<svg width="70" height="70" viewBox="0 0 70 70" fill="none" xmlns="http://www.w3.org/2000/svg">
<rect width="70" height="70" rx="6" fill="url(#paint0_linear_1327_4388)"/>
<path d="M50 28.3333C50.884 28.3333 51.7319 28.6845 52.357 29.3096C52.9821 29.9348 53.3333 30.7826 53.3333 31.6667V38.3333C53.3333 39.2174 52.9821 40.0652 52.357 40.6904C51.7319 41.3155 50.884 41.6667 50 41.6667H48.23C47.8236 44.8888 46.2554 47.852 43.8195 50C41.3837 52.148 38.2476 53.3333 35 53.3333V50C37.6521 50 40.1957 48.9464 42.071 47.0711C43.9464 45.1957 45 42.6522 45 40V30C45 27.3478 43.9464 24.8043 42.071 22.9289C40.1957 21.0536 37.6521 20 35 20C32.3478 20 29.8043 21.0536 27.9289 22.9289C26.0535 24.8043 25 27.3478 25 30V41.6667H20C19.1159 41.6667 18.2681 41.3155 17.6429 40.6904C17.0178 40.0652 16.6666 39.2174 16.6666 38.3333V31.6667C16.6666 30.7826 17.0178 29.9348 17.6429 29.3096C18.2681 28.6845 19.1159 28.3333 20 28.3333H21.77C22.1767 25.1115 23.7451 22.1488 26.1809 20.0011C28.6167 17.8535 31.7525 16.6685 35 16.6685C38.2474 16.6685 41.3832 17.8535 43.819 20.0011C46.2548 22.1488 47.8232 25.1115 48.23 28.3333H50ZM27.9333 41.3083L29.7 38.4817C31.2884 39.4767 33.1256 40.003 35 40C36.8743 40.003 38.7115 39.4767 40.3 38.4817L42.0666 41.3083C39.9487 42.6352 37.4992 43.3372 35 43.3333C32.5007 43.3373 30.0512 42.6353 27.9333 41.3083Z" fill="#FBFBFB"/>
<defs>
<linearGradient id="paint0_linear_1327_4388" x1="66" y1="7.5" x2="1.96695e-06" y2="70" gradientUnits="userSpaceOnUse">
<stop stop-color="#002196"/>
<stop offset="0.598958" stop-color="#0033E7"/>
</linearGradient>
</defs>
</svg>
