<svg width="74" height="77" viewBox="0 0 74 77" fill="none" xmlns="http://www.w3.org/2000/svg">
<rect width="74" height="77" rx="6" fill="#EDF2FF"/>
<path d="M41.917 42.6459C40.5243 43.7688 38.7893 44.3811 37.0003 44.3811C35.2114 44.3811 33.4763 43.7688 32.0837 42.6459C31.6582 42.2923 31.1097 42.1222 30.5588 42.173C30.0079 42.2237 29.4998 42.4913 29.1462 42.9167C28.7925 43.3422 28.6224 43.8907 28.6732 44.4416C28.724 44.9925 28.9915 45.5006 29.417 45.8542C31.5448 47.6305 34.2286 48.6035 37.0003 48.6035C39.7721 48.6035 42.4559 47.6305 44.5837 45.8542C45.0091 45.5006 45.2767 44.9925 45.3275 44.4416C45.3783 43.8907 45.2081 43.3422 44.8545 42.9167C44.6794 42.7061 44.4645 42.532 44.2221 42.4044C43.9798 42.2767 43.7146 42.1981 43.4418 42.173C42.891 42.1222 42.3425 42.2923 41.917 42.6459ZM33.8753 33.8334C33.8753 33.2153 33.6921 32.6112 33.3487 32.0973C33.0053 31.5834 32.5172 31.1828 31.9462 30.9463C31.3752 30.7098 30.7469 30.6479 30.1407 30.7685C29.5345 30.889 28.9777 31.1867 28.5406 31.6237C28.1036 32.0607 27.806 32.6176 27.6854 33.2238C27.5648 33.8299 27.6267 34.4583 27.8632 35.0293C28.0997 35.6003 28.5003 36.0884 29.0142 36.4318C29.5281 36.7751 30.1323 36.9584 30.7503 36.9584C31.5791 36.9584 32.374 36.6292 32.96 36.0431C33.5461 35.4571 33.8753 34.6622 33.8753 33.8334ZM43.2503 31.7501H41.167C40.6145 31.7501 40.0846 31.9696 39.6939 32.3603C39.3032 32.751 39.0837 33.2809 39.0837 33.8334C39.0837 34.3859 39.3032 34.9159 39.6939 35.3066C40.0846 35.6973 40.6145 35.9167 41.167 35.9167H43.2503C43.8029 35.9167 44.3328 35.6973 44.7235 35.3066C45.1142 34.9159 45.3337 34.3859 45.3337 33.8334C45.3337 33.2809 45.1142 32.751 44.7235 32.3603C44.3328 31.9696 43.8029 31.7501 43.2503 31.7501ZM37.0003 17.1667C32.8799 17.1667 28.852 18.3886 25.426 20.6778C21.9999 22.967 19.3297 26.2207 17.7528 30.0275C16.176 33.8343 15.7634 38.0232 16.5673 42.0645C17.3712 46.1057 19.3554 49.8179 22.2689 52.7315C25.1825 55.6451 28.8947 57.6292 32.936 58.4331C36.9772 59.237 41.1661 58.8244 44.9729 57.2476C48.7797 55.6707 52.0334 53.0005 54.3226 49.5745C56.6118 46.1484 57.8337 42.1205 57.8337 38.0001C57.8337 35.2642 57.2948 32.5551 56.2478 30.0275C55.2009 27.4999 53.6663 25.2032 51.7317 23.2687C49.7972 21.3341 47.5005 19.7996 44.9729 18.7526C42.4453 17.7056 39.7362 17.1667 37.0003 17.1667ZM37.0003 54.6667C33.704 54.6667 30.4817 53.6893 27.7408 51.8579C25 50.0266 22.8638 47.4236 21.6023 44.3781C20.3409 41.3327 20.0108 37.9816 20.6539 34.7486C21.297 31.5156 22.8843 28.5458 25.2152 26.215C27.5461 23.8841 30.5158 22.2967 33.7488 21.6537C36.9818 21.0106 40.333 21.3406 43.3784 22.6021C46.4238 23.8635 49.0268 25.9998 50.8582 28.7406C52.6895 31.4814 53.667 34.7037 53.667 38.0001C53.667 42.4204 51.9111 46.6596 48.7854 49.7852C45.6598 52.9108 41.4206 54.6667 37.0003 54.6667Z" fill="#162A5A"/>
</svg>
