<svg width="20" height="21" viewBox="0 0 20 21" fill="none" xmlns="http://www.w3.org/2000/svg">
<path fill-rule="evenodd" clip-rule="evenodd" d="M7.70679 15.2227C7.51926 15.4101 7.26495 15.5155 6.99979 15.5155C6.73462 15.5155 6.48031 15.4101 6.29279 15.2227L2.29279 11.2227C2.10532 11.0351 2 10.7808 2 10.5157C2 10.2505 2.10532 9.99619 2.29279 9.80867L6.29279 5.80867C6.48139 5.62651 6.73399 5.52571 6.99619 5.52799C7.25838 5.53027 7.5092 5.63544 7.6946 5.82085C7.88001 6.00626 7.98518 6.25707 7.98746 6.51926C7.98974 6.78146 7.88894 7.03406 7.70679 7.22267L5.41379 9.51567H16.9998C17.265 9.51567 17.5194 9.62102 17.7069 9.80856C17.8944 9.9961 17.9998 10.2504 17.9998 10.5157C17.9998 10.7809 17.8944 11.0352 17.7069 11.2228C17.5194 11.4103 17.265 11.5157 16.9998 11.5157H5.41379L7.70679 13.8087C7.89426 13.9962 7.99957 14.2505 7.99957 14.5157C7.99957 14.7808 7.89426 15.0351 7.70679 15.2227Z" fill="#162A5A"/>
</svg>
