<svg width="327" height="373" viewBox="0 0 327 373" fill="none" xmlns="http://www.w3.org/2000/svg">
<g filter="url(#filter0_d_530_2861)">
<path d="M300.47 360.41C300.47 362.951 239.648 365 164.616 365C89.5841 365 28.7617 362.951 28.7617 360.41C28.7617 357.869 89.5841 355.829 164.616 355.829C239.648 355.829 300.47 357.878 300.47 360.41Z" fill="url(#paint0_linear_530_2861)"/>
<path opacity="0.6" d="M300.47 360.41C300.47 362.951 239.648 365 164.616 365C89.5841 365 28.7617 362.951 28.7617 360.41C28.7617 357.869 89.5841 355.829 164.616 355.829C239.648 355.829 300.47 357.878 300.47 360.41Z" fill="white"/>
<path d="M68.1924 217.348C68.1405 217.348 68.7888 214.124 68.8579 213.89C69.6013 211.591 72.4017 207.581 75.107 207.581C75.5572 207.595 75.9994 207.703 76.405 207.899C76.8106 208.095 77.1705 208.374 77.4615 208.718C77.7524 209.062 77.9678 209.463 78.0937 209.895C78.2197 210.328 78.2534 210.782 78.1926 211.228C77.9938 213.13 76.2825 214.755 74.7353 215.688C72.9289 216.82 68.1924 217.348 68.1924 217.348Z" fill="url(#paint1_linear_530_2861)"/>
<path d="M62.9467 195.636C65.5397 196.552 66.767 201.271 66.6806 203.691C66.6806 203.899 66.1965 207.149 66.1533 207.149H66.1015C66.3003 207.892 66.5163 208.687 66.7324 209.569C67.1127 211.194 67.5276 213.026 67.8474 215.066C68.2182 217.251 68.4606 219.456 68.5734 221.669C68.7113 224.149 68.6274 226.637 68.3228 229.102C68.3195 229.131 68.3195 229.16 68.3228 229.189C68.6599 228.471 69.6625 226.492 69.7489 226.345C71.08 224.323 74.8311 221.159 77.45 221.911C77.88 222.042 78.2776 222.263 78.6167 222.558C78.9558 222.853 79.2288 223.216 79.418 223.624C79.6073 224.032 79.7084 224.475 79.7148 224.924C79.7212 225.374 79.6328 225.82 79.4553 226.233C78.7638 228.022 76.6894 229.128 74.9521 229.63C72.9901 230.183 68.6167 229.526 68.2709 229.474C67.9004 231.973 67.3633 234.445 66.6633 236.873C66.2542 238.29 65.8162 239.705 65.3495 241.116C65.652 240.503 65.9373 239.958 65.9805 239.889C67.3115 237.867 71.0713 234.703 73.6816 235.455C74.1116 235.586 74.5091 235.807 74.8482 236.102C75.1873 236.397 75.4604 236.76 75.6496 237.168C75.8388 237.576 75.9399 238.019 75.9463 238.468C75.9527 238.918 75.8643 239.364 75.6868 239.777C74.9954 241.557 72.921 242.672 71.1837 243.165C69.4464 243.658 65.678 243.165 64.6926 243.044L64.1481 244.66C63.2838 247.253 62.3417 249.846 61.5551 252.387C61.2699 253.252 61.0193 254.185 60.7686 255.084C61.0452 254.539 61.2786 254.081 61.3218 254.021C62.6442 251.99 66.404 248.835 69.0142 249.587C69.4442 249.718 69.8418 249.938 70.1811 250.233C70.5204 250.528 70.7939 250.891 70.9838 251.299C71.1737 251.707 71.2758 252.149 71.2834 252.599C71.2911 253.049 71.2041 253.495 71.0281 253.908C70.3367 255.689 68.2536 256.804 66.5163 257.297C64.7791 257.789 61.3823 257.357 60.2068 257.193C59.9734 258.118 59.7487 259.051 59.5672 259.959C59.4548 260.581 59.3079 261.169 59.2301 261.808L58.9708 263.658C58.8498 264.842 58.7115 266.061 58.6251 267.219C58.5559 268.031 58.5041 268.801 58.4522 269.57C58.7288 268.706 59.3165 266.916 59.3165 266.778C60.2763 264.878 61.7041 263.254 63.4653 262.059C63.5631 261.841 63.6818 261.632 63.8197 261.437C64.0644 261.059 64.386 260.737 64.7635 260.492C65.1411 260.248 65.5661 260.085 66.0107 260.016C66.4553 259.947 66.9095 259.972 67.3436 260.09C67.7778 260.208 68.1821 260.417 68.5302 260.702C70.5873 262.474 70.0687 267.331 69.1266 269.561C69.0747 269.691 68.2623 271.057 67.8128 271.904C68.1845 271.445 68.5302 271.039 68.9192 270.538C69.6711 269.613 70.449 268.714 71.2788 267.746C71.7052 267.297 72.1287 266.839 72.5493 266.372C72.9642 265.905 73.4655 265.464 73.9236 264.998C75.004 263.952 76.1536 262.941 77.3809 261.955C76.5771 261.29 73.7421 258.904 72.9296 257.279C72.1172 255.654 71.5381 253.381 72.3851 251.661C72.5712 251.251 72.8416 250.884 73.1788 250.585C73.516 250.286 73.9125 250.062 74.3422 249.927C74.772 249.791 75.2255 249.748 75.6731 249.8C76.1207 249.851 76.5524 249.997 76.9401 250.226C79.2305 251.661 79.4639 256.545 78.8675 258.87C78.8675 259.017 78.2106 260.659 77.8563 261.549C78.5737 260.953 79.2824 260.365 80.0257 259.82C82.1692 258.17 84.3473 256.562 86.5946 254.946L88.6084 253.45C88.3232 253.217 84.9005 250.451 83.9843 248.627C83.1805 247.011 82.5928 244.729 83.4398 243.018C83.625 242.607 83.8949 242.239 84.2317 241.94C84.5686 241.64 84.9649 241.415 85.3947 241.278C85.8246 241.142 86.2783 241.098 86.7263 241.149C87.1744 241.2 87.6066 241.345 87.9948 241.574C90.2939 243.018 90.5186 247.893 89.9222 250.218C89.879 250.391 88.9887 252.742 88.7381 253.329C90.2074 252.232 91.6681 251.125 93.0597 249.976C94.9512 248.427 96.7411 246.758 98.4185 244.98C98.2889 244.876 94.7019 241.998 93.7685 240.14C92.956 238.523 92.3769 236.242 93.2239 234.522C93.4093 234.112 93.6788 233.745 94.015 233.446C94.3512 233.148 94.7466 232.923 95.1754 232.787C95.6042 232.65 96.0568 232.606 96.5038 232.656C96.9509 232.707 97.3824 232.85 97.7703 233.078C100.069 234.522 100.303 239.405 99.7064 241.721C99.6631 241.877 98.989 243.675 98.6519 244.513C98.6916 244.547 98.7351 244.576 98.7815 244.6C100.421 242.764 101.893 240.785 103.181 238.688C103.898 237.547 104.529 236.406 105.117 235.291C104.391 234.824 101.115 232.655 100.087 231.073C99.0581 229.491 98.2802 227.348 98.9285 225.55C99.0679 225.127 99.2943 224.738 99.593 224.407C99.8917 224.076 100.256 223.812 100.663 223.631C101.07 223.449 101.51 223.355 101.956 223.353C102.401 223.352 102.842 223.444 103.25 223.623C105.696 224.798 106.457 229.63 106.12 232.024C106.12 232.153 105.774 233.459 105.523 234.401C105.774 233.899 106.05 233.372 106.284 232.879C107.148 231.038 107.883 229.292 108.488 227.745C108.834 226.881 109.119 226.017 109.352 225.291C108.877 224.47 107.027 221.107 106.846 219.24C106.664 217.373 106.958 215.1 108.367 213.804C108.688 213.488 109.071 213.243 109.493 213.086C109.914 212.928 110.364 212.861 110.814 212.889C111.263 212.916 111.701 213.038 112.1 213.247C112.499 213.455 112.85 213.745 113.129 214.098C114.754 216.267 113.207 220.909 111.807 222.879C111.686 223.052 109.482 225.472 109.456 225.472V225.42C109.214 226.155 108.955 226.933 108.643 227.789C108.073 229.353 107.407 231.116 106.552 232.974C105.647 235.001 104.629 236.975 103.501 238.886C102.242 241.027 100.796 243.052 99.1791 244.937L99.1186 244.997C99.7928 244.582 101.712 243.485 101.876 243.416C104.106 242.456 108.963 241.92 110.744 243.96C111.03 244.307 111.241 244.711 111.361 245.145C111.481 245.578 111.509 246.033 111.442 246.478C111.375 246.923 111.215 247.349 110.973 247.728C110.73 248.108 110.411 248.432 110.035 248.679C108.471 249.786 106.128 249.544 104.4 249.025C102.455 248.411 99.2137 245.447 98.9198 245.213C97.2292 247.092 95.4159 248.856 93.4919 250.494C92.3769 251.454 91.2187 252.387 90.0346 253.312C90.631 252.975 91.1668 252.672 91.2446 252.638C93.4659 251.678 98.3234 251.143 100.104 253.182C100.392 253.529 100.603 253.932 100.724 254.366C100.845 254.8 100.873 255.255 100.806 255.701C100.74 256.146 100.579 256.573 100.336 256.952C100.093 257.331 99.7722 257.655 99.3952 257.902C97.8394 259.008 95.4885 258.766 93.7685 258.247C92.0485 257.729 89.1703 255.222 88.4269 254.557C87.9688 254.911 87.5626 255.265 87.07 255.611C84.9005 257.279 82.7483 258.93 80.6307 260.616C79.8961 261.212 79.196 261.817 78.4872 262.431L79.5417 261.843C81.763 260.892 86.6205 260.348 88.401 262.396C88.6889 262.743 88.9003 263.146 89.0214 263.58C89.1424 264.014 89.1704 264.469 89.1035 264.914C89.0366 265.36 88.8763 265.786 88.6331 266.166C88.3899 266.545 88.0692 266.868 87.6923 267.115C86.1278 268.222 83.7855 267.98 82.0655 267.452C80.3455 266.925 77.7439 264.669 76.8796 263.891C76.1795 264.531 75.4707 265.179 74.8225 265.836C74.3817 266.294 73.9582 266.7 73.526 267.193L72.2814 268.602C71.5294 269.518 70.7429 270.46 70.0255 271.376C69.5242 272.016 69.0575 272.63 68.5907 273.243C69.3081 272.647 70.7602 271.515 70.8898 271.42C72.9383 270.132 77.6661 268.87 79.7318 270.616C80.0666 270.916 80.3344 271.284 80.5176 271.695C80.7009 272.106 80.7956 272.551 80.7956 273.001C80.7956 273.451 80.7009 273.896 80.5176 274.307C80.3344 274.718 80.0666 275.086 79.7318 275.387C78.3489 276.718 75.998 276.856 74.2175 276.58C72.2468 276.277 68.6858 273.987 68.245 273.667C67.4671 274.687 66.7238 275.689 66.0323 276.64C63.6382 279.95 61.7712 282.803 60.492 284.808L60.3624 285.015L58.7029 284.212L58.9622 283.814C60.3019 281.817 62.2552 278.982 64.7445 275.689C65.531 274.643 66.3867 273.554 67.277 272.431C66.3504 271.423 65.4846 270.361 64.684 269.25C62.7738 269.993 58.8152 270.019 58.2966 270.019C58.2188 271.307 58.1497 272.552 58.0978 273.727C57.925 277.816 57.9423 281.221 57.9855 283.598V283.874L56.1618 283.01C56.1618 280.642 56.2568 277.444 56.4988 273.658C56.5766 272.362 56.689 270.97 56.8186 269.544C56.3087 269.423 52.1859 268.36 50.6301 267.115C49.2213 265.992 47.7346 264.159 47.7865 262.249C47.7817 261.799 47.8721 261.352 48.0519 260.939C48.2316 260.526 48.4967 260.155 48.8296 259.852C49.1626 259.548 49.5559 259.318 49.9839 259.177C50.4118 259.036 50.8647 258.988 51.3129 259.034C54.001 259.38 56.2568 263.71 56.6976 266.095C56.6976 266.234 56.8359 267.824 56.8878 268.766C56.9483 268.187 56.9915 267.625 57.0607 267.037C57.173 265.853 57.3286 264.678 57.4928 263.407C57.5879 262.802 57.6916 262.18 57.7867 261.558C57.8818 260.935 58.046 260.296 58.1756 259.665C58.5041 258.187 58.9017 256.709 59.3425 255.231C58.3053 255.127 54.6319 254.695 53.0502 253.787C51.4685 252.88 49.7398 251.307 49.5065 249.405C49.4341 248.961 49.4564 248.506 49.5719 248.071C49.6874 247.636 49.8934 247.23 50.1765 246.88C50.4596 246.53 50.8134 246.244 51.2148 246.04C51.6162 245.836 52.056 245.719 52.5057 245.697C55.211 245.628 58.0978 249.569 58.893 251.86C58.9449 251.998 59.3338 253.701 59.5326 254.643C59.8006 253.779 60.0599 252.871 60.3969 251.981C61.2613 249.388 62.238 246.856 63.1887 244.288C63.4826 243.502 63.7592 242.715 64.053 241.929C63.6814 241.929 59.2993 241.479 57.536 240.46C55.9716 239.595 54.2257 237.979 53.9837 236.077C53.9127 235.633 53.936 235.179 54.0521 234.745C54.1681 234.31 54.3742 233.905 54.657 233.555C54.9399 233.205 55.2931 232.919 55.6938 232.715C56.0945 232.511 56.5337 232.393 56.9829 232.369C59.6968 232.3 62.5837 236.25 63.3789 238.532C63.4394 238.705 63.9925 241.125 64.1049 241.791C64.7272 240.062 65.3409 238.333 65.8335 236.605C66.5635 234.271 67.141 231.892 67.5622 229.483C67.3893 229.483 62.817 229.05 61.0106 228.013C59.4375 227.149 57.6916 225.524 57.4582 223.623C57.3859 223.178 57.4082 222.724 57.5237 222.288C57.6391 221.853 57.8452 221.448 58.1283 221.098C58.4114 220.748 58.7652 220.461 59.1666 220.257C59.5679 220.054 60.0078 219.937 60.4574 219.915C63.1628 219.845 66.0496 223.795 66.8448 226.077C66.8967 226.224 67.3288 228.1 67.5103 228.99H67.6573C68.0143 226.555 68.1531 224.094 68.0721 221.635C68.0721 220.286 67.9425 218.99 67.8128 217.736C66.9485 217.736 63.0245 217.736 61.2958 216.993C59.5672 216.25 57.7262 214.884 57.2767 213.026C57.1568 212.591 57.1302 212.135 57.1987 211.689C57.2671 211.242 57.429 210.815 57.6737 210.436C57.9185 210.057 58.2407 209.733 58.6191 209.487C58.9975 209.241 59.4237 209.077 59.8697 209.007C62.5577 208.644 65.8595 212.248 66.9053 214.426C66.9572 214.547 67.4066 215.818 67.7091 216.751C67.6486 216.181 67.5881 215.602 67.5103 215.022C67.2424 212.991 66.8621 211.15 66.5163 209.517C66.3089 208.592 66.1101 207.788 65.9113 206.984C65.047 206.552 61.6589 204.78 60.5007 203.337C59.3425 201.893 58.3053 199.828 58.772 197.969C58.8703 197.529 59.0605 197.114 59.3302 196.752C59.5999 196.39 59.943 196.089 60.3371 195.868C60.7312 195.648 61.1674 195.513 61.6171 195.473C62.0668 195.433 62.5199 195.489 62.9467 195.636Z" fill="url(#paint2_linear_530_2861)"/>
<path d="M111.937 237.417C109.819 237.331 105.584 235.153 105.584 235.153C105.584 235.153 107.857 232.802 108.021 232.663C109.914 231.159 114.461 229.353 116.716 230.857C117.085 231.115 117.395 231.449 117.626 231.835C117.857 232.221 118.004 232.652 118.057 233.099C118.11 233.547 118.068 234 117.934 234.43C117.8 234.859 117.576 235.256 117.278 235.593C116.06 237.071 113.743 237.486 111.937 237.417Z" fill="url(#paint3_linear_530_2861)"/>
<g opacity="0.5">
<path d="M68.1924 217.348C68.1405 217.348 68.7888 214.124 68.8579 213.89C69.6013 211.591 72.4017 207.581 75.107 207.581C75.5572 207.595 75.9994 207.703 76.405 207.899C76.8106 208.095 77.1705 208.374 77.4615 208.718C77.7524 209.062 77.9678 209.463 78.0937 209.895C78.2197 210.328 78.2534 210.782 78.1926 211.228C77.9938 213.13 76.2825 214.755 74.7353 215.688C72.9289 216.82 68.1924 217.348 68.1924 217.348Z" fill="white"/>
<path d="M62.9467 195.636C65.5397 196.552 66.767 201.271 66.6806 203.691C66.6806 203.899 66.1965 207.149 66.1533 207.149H66.1015C66.3003 207.892 66.5163 208.687 66.7324 209.569C67.1127 211.194 67.5276 213.026 67.8474 215.066C68.2182 217.251 68.4606 219.456 68.5734 221.669C68.7113 224.149 68.6274 226.637 68.3228 229.102C68.3195 229.131 68.3195 229.16 68.3228 229.189C68.6599 228.471 69.6625 226.492 69.7489 226.345C71.08 224.323 74.8311 221.159 77.45 221.911C77.88 222.042 78.2776 222.263 78.6167 222.558C78.9558 222.853 79.2288 223.216 79.418 223.624C79.6073 224.032 79.7084 224.475 79.7148 224.924C79.7212 225.374 79.6328 225.82 79.4553 226.233C78.7638 228.022 76.6894 229.128 74.9521 229.63C72.9901 230.183 68.6167 229.526 68.2709 229.474C67.9004 231.973 67.3633 234.445 66.6633 236.873C66.2542 238.29 65.8162 239.705 65.3495 241.116C65.652 240.503 65.9373 239.958 65.9805 239.889C67.3115 237.867 71.0713 234.703 73.6816 235.455C74.1116 235.586 74.5091 235.807 74.8482 236.102C75.1873 236.397 75.4604 236.76 75.6496 237.168C75.8388 237.576 75.9399 238.019 75.9463 238.468C75.9527 238.918 75.8643 239.364 75.6868 239.777C74.9954 241.557 72.921 242.672 71.1837 243.165C69.4464 243.658 65.678 243.165 64.6926 243.044L64.1481 244.66C63.2838 247.253 62.3417 249.846 61.5551 252.387C61.2699 253.252 61.0193 254.185 60.7686 255.084C61.0452 254.539 61.2786 254.081 61.3218 254.021C62.6442 251.99 66.404 248.835 69.0142 249.587C69.4442 249.718 69.8418 249.938 70.1811 250.233C70.5204 250.528 70.7939 250.891 70.9838 251.299C71.1737 251.707 71.2758 252.149 71.2834 252.599C71.2911 253.049 71.2041 253.495 71.0281 253.908C70.3367 255.689 68.2536 256.804 66.5163 257.297C64.7791 257.789 61.3823 257.357 60.2068 257.193C59.9734 258.118 59.7487 259.051 59.5672 259.959C59.4548 260.581 59.3079 261.169 59.2301 261.808L58.9708 263.658C58.8498 264.842 58.7115 266.061 58.6251 267.219C58.5559 268.031 58.5041 268.801 58.4522 269.57C58.7288 268.706 59.3165 266.916 59.3165 266.778C60.2763 264.878 61.7041 263.254 63.4653 262.059C63.5631 261.841 63.6818 261.632 63.8197 261.437C64.0644 261.059 64.386 260.737 64.7635 260.492C65.1411 260.248 65.5661 260.085 66.0107 260.016C66.4553 259.947 66.9095 259.972 67.3436 260.09C67.7778 260.208 68.1821 260.417 68.5302 260.702C70.5873 262.474 70.0687 267.331 69.1266 269.561C69.0747 269.691 68.2623 271.057 67.8128 271.904C68.1845 271.445 68.5302 271.039 68.9192 270.538C69.6711 269.613 70.449 268.714 71.2788 267.746C71.7052 267.297 72.1287 266.839 72.5493 266.372C72.9642 265.905 73.4655 265.464 73.9236 264.998C75.004 263.952 76.1536 262.941 77.3809 261.955C76.5771 261.29 73.7421 258.904 72.9296 257.279C72.1172 255.654 71.5381 253.381 72.3851 251.661C72.5712 251.251 72.8416 250.884 73.1788 250.585C73.516 250.286 73.9125 250.062 74.3422 249.927C74.772 249.791 75.2255 249.748 75.6731 249.8C76.1207 249.851 76.5524 249.997 76.9401 250.226C79.2305 251.661 79.4639 256.545 78.8675 258.87C78.8675 259.017 78.2106 260.659 77.8563 261.549C78.5737 260.953 79.2824 260.365 80.0257 259.82C82.1692 258.17 84.3473 256.562 86.5946 254.946L88.6084 253.45C88.3232 253.217 84.9005 250.451 83.9843 248.627C83.1805 247.011 82.5928 244.729 83.4398 243.018C83.625 242.607 83.8949 242.239 84.2317 241.94C84.5686 241.64 84.9649 241.415 85.3947 241.278C85.8246 241.142 86.2783 241.098 86.7263 241.149C87.1744 241.2 87.6066 241.345 87.9948 241.574C90.2939 243.018 90.5186 247.893 89.9222 250.218C89.879 250.391 88.9887 252.742 88.7381 253.329C90.2074 252.232 91.6681 251.125 93.0597 249.976C94.9512 248.427 96.7411 246.758 98.4185 244.98C98.2889 244.876 94.7019 241.998 93.7685 240.14C92.956 238.523 92.3769 236.242 93.2239 234.522C93.4093 234.112 93.6788 233.745 94.015 233.446C94.3512 233.148 94.7466 232.923 95.1754 232.787C95.6042 232.65 96.0568 232.606 96.5038 232.656C96.9509 232.707 97.3824 232.85 97.7703 233.078C100.069 234.522 100.303 239.405 99.7064 241.721C99.6631 241.877 98.989 243.675 98.6519 244.513C98.6916 244.547 98.7351 244.576 98.7815 244.6C100.421 242.764 101.893 240.785 103.181 238.688C103.898 237.547 104.529 236.406 105.117 235.291C104.391 234.824 101.115 232.655 100.087 231.073C99.0581 229.491 98.2802 227.348 98.9285 225.55C99.0679 225.127 99.2943 224.738 99.593 224.407C99.8917 224.076 100.256 223.812 100.663 223.631C101.07 223.449 101.51 223.355 101.956 223.353C102.401 223.352 102.842 223.444 103.25 223.623C105.696 224.798 106.457 229.63 106.12 232.024C106.12 232.153 105.774 233.459 105.523 234.401C105.774 233.899 106.05 233.372 106.284 232.879C107.148 231.038 107.883 229.292 108.488 227.745C108.834 226.881 109.119 226.017 109.352 225.291C108.877 224.47 107.027 221.107 106.846 219.24C106.664 217.373 106.958 215.1 108.367 213.804C108.688 213.488 109.071 213.243 109.493 213.086C109.914 212.928 110.364 212.861 110.814 212.889C111.263 212.916 111.701 213.038 112.1 213.247C112.499 213.455 112.85 213.745 113.129 214.098C114.754 216.267 113.207 220.909 111.807 222.879C111.686 223.052 109.482 225.472 109.456 225.472V225.42C109.214 226.155 108.955 226.933 108.643 227.789C108.073 229.353 107.407 231.116 106.552 232.974C105.647 235.001 104.629 236.975 103.501 238.886C102.242 241.027 100.796 243.052 99.1791 244.937L99.1186 244.997C99.7928 244.582 101.712 243.485 101.876 243.416C104.106 242.456 108.963 241.92 110.744 243.96C111.03 244.307 111.241 244.711 111.361 245.145C111.481 245.578 111.509 246.033 111.442 246.478C111.375 246.923 111.215 247.349 110.973 247.728C110.73 248.108 110.411 248.432 110.035 248.679C108.471 249.786 106.128 249.544 104.4 249.025C102.455 248.411 99.2137 245.447 98.9198 245.213C97.2292 247.092 95.4159 248.856 93.4919 250.494C92.3769 251.454 91.2187 252.387 90.0346 253.312C90.631 252.975 91.1668 252.672 91.2446 252.638C93.4659 251.678 98.3234 251.143 100.104 253.182C100.392 253.529 100.603 253.932 100.724 254.366C100.845 254.8 100.873 255.255 100.806 255.701C100.74 256.146 100.579 256.573 100.336 256.952C100.093 257.331 99.7722 257.655 99.3952 257.902C97.8394 259.008 95.4885 258.766 93.7685 258.247C92.0485 257.729 89.1703 255.222 88.4269 254.557C87.9688 254.911 87.5626 255.265 87.07 255.611C84.9005 257.279 82.7483 258.93 80.6307 260.616C79.8961 261.212 79.196 261.817 78.4872 262.431L79.5417 261.843C81.763 260.892 86.6205 260.348 88.401 262.396C88.6889 262.743 88.9003 263.146 89.0214 263.58C89.1424 264.014 89.1704 264.469 89.1035 264.914C89.0366 265.36 88.8763 265.786 88.6331 266.166C88.3899 266.545 88.0692 266.868 87.6923 267.115C86.1278 268.222 83.7855 267.98 82.0655 267.452C80.3455 266.925 77.7439 264.669 76.8796 263.891C76.1795 264.531 75.4707 265.179 74.8225 265.836C74.3817 266.294 73.9582 266.7 73.526 267.193L72.2814 268.602C71.5294 269.518 70.7429 270.46 70.0255 271.376C69.5242 272.016 69.0575 272.63 68.5907 273.243C69.3081 272.647 70.7602 271.515 70.8898 271.42C72.9383 270.132 77.6661 268.87 79.7318 270.616C80.0666 270.916 80.3344 271.284 80.5176 271.695C80.7009 272.106 80.7956 272.551 80.7956 273.001C80.7956 273.451 80.7009 273.896 80.5176 274.307C80.3344 274.718 80.0666 275.086 79.7318 275.387C78.3489 276.718 75.998 276.856 74.2175 276.58C72.2468 276.277 68.6858 273.987 68.245 273.667C67.4671 274.687 66.7238 275.689 66.0323 276.64C63.6382 279.95 61.7712 282.803 60.492 284.808L60.3624 285.015L58.7029 284.212L58.9622 283.814C60.3019 281.817 62.2552 278.982 64.7445 275.689C65.531 274.643 66.3867 273.554 67.277 272.431C66.3504 271.423 65.4846 270.361 64.684 269.25C62.7738 269.993 58.8152 270.019 58.2966 270.019C58.2188 271.307 58.1497 272.552 58.0978 273.727C57.925 277.816 57.9423 281.221 57.9855 283.598V283.874L56.1618 283.01C56.1618 280.642 56.2568 277.444 56.4988 273.658C56.5766 272.362 56.689 270.97 56.8186 269.544C56.3087 269.423 52.1859 268.36 50.6301 267.115C49.2213 265.992 47.7346 264.159 47.7865 262.249C47.7817 261.799 47.8721 261.352 48.0519 260.939C48.2316 260.526 48.4967 260.155 48.8296 259.852C49.1626 259.548 49.5559 259.318 49.9839 259.177C50.4118 259.036 50.8647 258.988 51.3129 259.034C54.001 259.38 56.2568 263.71 56.6976 266.095C56.6976 266.234 56.8359 267.824 56.8878 268.766C56.9483 268.187 56.9915 267.625 57.0607 267.037C57.173 265.853 57.3286 264.678 57.4928 263.407C57.5879 262.802 57.6916 262.18 57.7867 261.558C57.8818 260.935 58.046 260.296 58.1756 259.665C58.5041 258.187 58.9017 256.709 59.3425 255.231C58.3053 255.127 54.6319 254.695 53.0502 253.787C51.4685 252.88 49.7398 251.307 49.5065 249.405C49.4341 248.961 49.4564 248.506 49.5719 248.071C49.6874 247.636 49.8934 247.23 50.1765 246.88C50.4596 246.53 50.8134 246.244 51.2148 246.04C51.6162 245.836 52.056 245.719 52.5057 245.697C55.211 245.628 58.0978 249.569 58.893 251.86C58.9449 251.998 59.3338 253.701 59.5326 254.643C59.8006 253.779 60.0599 252.871 60.3969 251.981C61.2613 249.388 62.238 246.856 63.1887 244.288C63.4826 243.502 63.7592 242.715 64.053 241.929C63.6814 241.929 59.2993 241.479 57.536 240.46C55.9716 239.595 54.2257 237.979 53.9837 236.077C53.9127 235.633 53.936 235.179 54.0521 234.745C54.1681 234.31 54.3742 233.905 54.657 233.555C54.9399 233.205 55.2931 232.919 55.6938 232.715C56.0945 232.511 56.5337 232.393 56.9829 232.369C59.6968 232.3 62.5837 236.25 63.3789 238.532C63.4394 238.705 63.9925 241.125 64.1049 241.791C64.7272 240.062 65.3409 238.333 65.8335 236.605C66.5635 234.271 67.141 231.892 67.5622 229.483C67.3893 229.483 62.817 229.05 61.0106 228.013C59.4375 227.149 57.6916 225.524 57.4582 223.623C57.3859 223.178 57.4082 222.724 57.5237 222.288C57.6391 221.853 57.8452 221.448 58.1283 221.098C58.4114 220.748 58.7652 220.461 59.1666 220.257C59.5679 220.054 60.0078 219.937 60.4574 219.915C63.1628 219.845 66.0496 223.795 66.8448 226.077C66.8967 226.224 67.3288 228.1 67.5103 228.99H67.6573C68.0143 226.555 68.1531 224.094 68.0721 221.635C68.0721 220.286 67.9425 218.99 67.8128 217.736C66.9485 217.736 63.0245 217.736 61.2958 216.993C59.5672 216.25 57.7262 214.884 57.2767 213.026C57.1568 212.591 57.1302 212.135 57.1987 211.689C57.2671 211.242 57.429 210.815 57.6737 210.436C57.9185 210.057 58.2407 209.733 58.6191 209.487C58.9975 209.241 59.4237 209.077 59.8697 209.007C62.5577 208.644 65.8595 212.248 66.9053 214.426C66.9572 214.547 67.4066 215.818 67.7091 216.751C67.6486 216.181 67.5881 215.602 67.5103 215.022C67.2424 212.991 66.8621 211.15 66.5163 209.517C66.3089 208.592 66.1101 207.788 65.9113 206.984C65.047 206.552 61.6589 204.78 60.5007 203.337C59.3425 201.893 58.3053 199.828 58.772 197.969C58.8703 197.529 59.0605 197.114 59.3302 196.752C59.5999 196.39 59.943 196.089 60.3371 195.868C60.7312 195.648 61.1674 195.513 61.6171 195.473C62.0668 195.433 62.5199 195.489 62.9467 195.636Z" fill="white"/>
<path d="M111.937 237.417C109.819 237.331 105.584 235.153 105.584 235.153C105.584 235.153 107.857 232.802 108.021 232.663C109.914 231.159 114.461 229.353 116.716 230.857C117.085 231.115 117.395 231.449 117.626 231.835C117.857 232.221 118.004 232.652 118.057 233.099C118.11 233.547 118.068 234 117.934 234.43C117.8 234.859 117.576 235.256 117.278 235.593C116.06 237.071 113.743 237.486 111.937 237.417Z" fill="white"/>
</g>
<path d="M87.2084 290.443C87.2084 290.443 74.3559 259.466 67.1647 260.815C59.9735 262.163 79.4986 310.202 79.4986 310.202C79.4986 310.202 56.8879 267.548 41.4684 267.548C26.0489 267.548 47.1211 314.688 66.6548 330.401C66.6548 330.401 35.8157 297.177 17.8292 304.368C-0.157393 311.559 53.8282 345.224 53.8282 345.224C53.8282 345.224 22.4792 335.345 26.0748 342.977C29.6704 350.609 39.4372 351.957 39.4372 351.957L4 353.755H127.296L99.5423 351.058C99.5423 351.058 128.324 336.693 120.614 330.851C112.905 325.008 95.9467 337.584 95.9467 337.584C95.9467 337.584 125.239 305.258 119.586 293.14C113.933 281.022 88.7469 315.137 88.7469 315.137C88.7469 315.137 109.309 271.593 105.169 263.952C101.029 256.311 87.2084 290.443 87.2084 290.443Z" fill="url(#paint4_linear_530_2861)"/>
<path opacity="0.4" d="M87.2084 290.443C87.2084 290.443 74.3559 259.466 67.1647 260.815C59.9735 262.163 79.4986 310.202 79.4986 310.202C79.4986 310.202 56.8879 267.548 41.4684 267.548C26.0489 267.548 47.1211 314.688 66.6548 330.401C66.6548 330.401 35.8157 297.177 17.8292 304.368C-0.157393 311.559 53.8282 345.224 53.8282 345.224C53.8282 345.224 22.4792 335.345 26.0748 342.977C29.6704 350.609 39.4372 351.957 39.4372 351.957L4 353.755H127.296L99.5423 351.058C99.5423 351.058 128.324 336.693 120.614 330.851C112.905 325.008 95.9467 337.584 95.9467 337.584C95.9467 337.584 125.239 305.258 119.586 293.14C113.933 281.022 88.7469 315.137 88.7469 315.137C88.7469 315.137 109.309 271.593 105.169 263.952C101.029 256.311 87.2084 290.443 87.2084 290.443Z" fill="white"/>
<path d="M91.321 292.077C80.0156 325.483 80.0156 349.122 80.0156 349.122C80.0156 349.122 93.3781 349.641 107.25 339.364" stroke="#263238" stroke-linecap="round" stroke-linejoin="round"/>
<path d="M85.671 310.064C83.3382 300.077 80.2435 290.285 76.4141 280.772" stroke="#263238" stroke-linecap="round" stroke-linejoin="round"/>
<path d="M52.2656 290.539L81.0389 333.193C81.0389 333.193 100.573 316.771 107.254 307.497" stroke="#263238" stroke-linecap="round" stroke-linejoin="round"/>
<path d="M80.5274 343.47C80.5274 343.47 50.2069 329.079 37.873 320.859" stroke="#263238" stroke-linecap="round" stroke-linejoin="round"/>
<path d="M102.974 25.6583L95.9301 14.4221H33.9062V25.6583V29.7033V216.674H289.193V25.6583H102.974Z" fill="#263238"/>
<path d="M287.507 30.8093H35.7988V212.594H287.507V30.8093Z" fill="white"/>
<mask id="mask0_530_2861" style="mask-type:luminance" maskUnits="userSpaceOnUse" x="35" y="30" width="253" height="183">
<path d="M287.507 30.8093H35.7988V212.594H287.507V30.8093Z" fill="white"/>
</mask>
<g mask="url(#mask0_530_2861)">
<path opacity="0.17" d="M288.741 29.2532H282.898V213.976H288.741V29.2532Z" fill="black"/>
<path opacity="0.17" d="M288.741 140.941H282.898V212.481H288.741V140.941Z" fill="black"/>
<path d="M287.842 28.3542H34.8027V38.2421H287.842V28.3542Z" fill="url(#paint5_linear_530_2861)" stroke="#263238" stroke-miterlimit="10"/>
</g>
<path d="M287.507 30.8093H35.7988V212.594H287.507V30.8093Z" stroke="#263238" stroke-linecap="round" stroke-linejoin="round"/>
<g opacity="0.17">
<path d="M166.941 47.7764H149.335C148.923 47.7741 148.529 47.6094 148.237 47.3182C147.946 47.0269 147.782 46.6325 147.779 46.2206C147.782 45.8087 147.946 45.4143 148.237 45.123C148.529 44.8317 148.923 44.6671 149.335 44.6648H166.941C167.354 44.6648 167.75 44.8287 168.041 45.1205C168.333 45.4122 168.497 45.808 168.497 46.2206C168.497 46.6332 168.333 47.0289 168.041 47.3207C167.75 47.6124 167.354 47.7764 166.941 47.7764Z" fill="black"/>
<path d="M202.16 47.7764H184.554C184.141 47.7764 183.745 47.6124 183.454 47.3207C183.162 47.0289 182.998 46.6332 182.998 46.2206C182.998 45.808 183.162 45.4122 183.454 45.1205C183.745 44.8287 184.141 44.6648 184.554 44.6648H202.16C202.572 44.6671 202.966 44.8317 203.258 45.123C203.549 45.4143 203.714 45.8087 203.716 46.2206C203.714 46.6325 203.549 47.0269 203.258 47.3182C202.966 47.6094 202.572 47.7741 202.16 47.7764Z" fill="black"/>
<path d="M237.384 47.7763H219.778C219.366 47.774 218.973 47.6091 218.683 47.3175C218.393 47.026 218.23 46.6316 218.23 46.2205C218.233 45.8109 218.396 45.4187 218.686 45.129C218.976 44.8393 219.368 44.6756 219.778 44.6733H237.393C237.804 44.6756 238.199 44.8402 238.49 45.1315C238.781 45.4228 238.946 45.8172 238.948 46.2291C238.944 46.641 238.777 47.0345 238.484 47.3242C238.191 47.6138 237.796 47.7763 237.384 47.7763Z" fill="black"/>
<path d="M272.596 47.7764H254.989C254.577 47.7741 254.183 47.6094 253.892 47.3182C253.601 47.0269 253.436 46.6325 253.434 46.2206C253.436 45.8087 253.601 45.4143 253.892 45.123C254.183 44.8317 254.577 44.6671 254.989 44.6648H272.596C273.008 44.6648 273.404 44.8287 273.696 45.1205C273.987 45.4122 274.151 45.808 274.151 46.2206C274.151 46.6332 273.987 47.0289 273.696 47.3207C273.404 47.6124 273.008 47.7764 272.596 47.7764Z" fill="black"/>
</g>
<path d="M144.963 115.107H155.292" stroke="#263238" stroke-linecap="round" stroke-linejoin="round"/>
<path d="M85.8184 115.107H138.741" stroke="#263238" stroke-linecap="round" stroke-linejoin="round"/>
<path d="M44.9707 115.107H80.2178" stroke="#263238" stroke-linecap="round" stroke-linejoin="round"/>
<path d="M111.963 121.529H155.291" stroke="#263238" stroke-linecap="round" stroke-linejoin="round"/>
<path d="M88.3066 121.529H105.118" stroke="#263238" stroke-linecap="round" stroke-linejoin="round"/>
<path d="M44.9707 121.529H80.8401" stroke="#263238" stroke-linecap="round" stroke-linejoin="round"/>
<path d="M68.3848 127.959H155.292" stroke="#263238" stroke-linecap="round" stroke-linejoin="round"/>
<path d="M44.9707 127.959H60.2952" stroke="#263238" stroke-linecap="round" stroke-linejoin="round"/>
<path d="M133.76 134.39H155.29" stroke="#263238" stroke-linecap="round" stroke-linejoin="round"/>
<path d="M92.6621 134.39H126.284" stroke="#263238" stroke-linecap="round" stroke-linejoin="round"/>
<path d="M44.9707 134.39H85.8186" stroke="#263238" stroke-linecap="round" stroke-linejoin="round"/>
<path d="M80.8379 140.812H155.291" stroke="#263238" stroke-linecap="round" stroke-linejoin="round"/>
<path d="M44.9707 140.812H73.9947" stroke="#263238" stroke-linecap="round" stroke-linejoin="round"/>
<path d="M268.318 115.107H278.854" stroke="#263238" stroke-linecap="round" stroke-linejoin="round"/>
<path d="M207.979 115.107H261.964" stroke="#263238" stroke-linecap="round" stroke-linejoin="round"/>
<path d="M166.305 115.107H202.261" stroke="#263238" stroke-linecap="round" stroke-linejoin="round"/>
<path d="M234.654 121.529H278.856" stroke="#263238" stroke-linecap="round" stroke-linejoin="round"/>
<path d="M210.521 121.529H227.67" stroke="#263238" stroke-linecap="round" stroke-linejoin="round"/>
<path d="M166.305 121.529H202.9" stroke="#263238" stroke-linecap="round" stroke-linejoin="round"/>
<path d="M190.193 127.959H278.856" stroke="#263238" stroke-linecap="round" stroke-linejoin="round"/>
<path d="M166.305 127.959H181.94" stroke="#263238" stroke-linecap="round" stroke-linejoin="round"/>
<path d="M256.883 134.39H278.854" stroke="#263238" stroke-linecap="round" stroke-linejoin="round"/>
<path d="M214.963 134.39H249.259" stroke="#263238" stroke-linecap="round" stroke-linejoin="round"/>
<path d="M166.305 134.39H207.982" stroke="#263238" stroke-linecap="round" stroke-linejoin="round"/>
<path d="M202.898 140.812H278.855" stroke="#263238" stroke-linecap="round" stroke-linejoin="round"/>
<path d="M166.305 140.812H195.908" stroke="#263238" stroke-linecap="round" stroke-linejoin="round"/>
<path d="M144.963 146.966H155.292" stroke="#263238" stroke-linecap="round" stroke-linejoin="round"/>
<path d="M85.8184 146.966H138.741" stroke="#263238" stroke-linecap="round" stroke-linejoin="round"/>
<path d="M44.9707 146.966H80.2178" stroke="#263238" stroke-linecap="round" stroke-linejoin="round"/>
<path d="M111.963 153.397H155.291" stroke="#263238" stroke-linecap="round" stroke-linejoin="round"/>
<path d="M88.3066 153.397H105.118" stroke="#263238" stroke-linecap="round" stroke-linejoin="round"/>
<path d="M44.9707 153.397H80.8401" stroke="#263238" stroke-linecap="round" stroke-linejoin="round"/>
<path d="M68.3848 159.819H155.292" stroke="#263238" stroke-linecap="round" stroke-linejoin="round"/>
<path d="M44.9707 159.819H60.2952" stroke="#263238" stroke-linecap="round" stroke-linejoin="round"/>
<path d="M133.76 166.249H155.29" stroke="#263238" stroke-linecap="round" stroke-linejoin="round"/>
<path d="M92.6621 166.249H126.284" stroke="#263238" stroke-linecap="round" stroke-linejoin="round"/>
<path d="M44.9707 166.249H85.8186" stroke="#263238" stroke-linecap="round" stroke-linejoin="round"/>
<path d="M80.8379 172.68H155.291" stroke="#263238" stroke-linecap="round" stroke-linejoin="round"/>
<path d="M44.9707 172.68H73.9947" stroke="#263238" stroke-linecap="round" stroke-linejoin="round"/>
<path d="M268.318 146.966H278.854" stroke="#263238" stroke-linecap="round" stroke-linejoin="round"/>
<path d="M207.979 146.966H261.964" stroke="#263238" stroke-linecap="round" stroke-linejoin="round"/>
<path d="M166.305 146.966H202.261" stroke="#263238" stroke-linecap="round" stroke-linejoin="round"/>
<path d="M234.654 153.397H278.856" stroke="#263238" stroke-linecap="round" stroke-linejoin="round"/>
<path d="M210.521 153.397H227.67" stroke="#263238" stroke-linecap="round" stroke-linejoin="round"/>
<path d="M166.305 153.397H202.9" stroke="#263238" stroke-linecap="round" stroke-linejoin="round"/>
<path d="M190.193 159.819H278.856" stroke="#263238" stroke-linecap="round" stroke-linejoin="round"/>
<path d="M166.305 159.819H181.94" stroke="#263238" stroke-linecap="round" stroke-linejoin="round"/>
<path d="M256.883 166.249H278.854" stroke="#263238" stroke-linecap="round" stroke-linejoin="round"/>
<path d="M214.963 166.249H249.259" stroke="#263238" stroke-linecap="round" stroke-linejoin="round"/>
<path d="M166.305 166.249H207.982" stroke="#263238" stroke-linecap="round" stroke-linejoin="round"/>
<path d="M202.898 172.68H278.855" stroke="#263238" stroke-linecap="round" stroke-linejoin="round"/>
<path d="M166.305 172.68H195.908" stroke="#263238" stroke-linecap="round" stroke-linejoin="round"/>
<path d="M278.855 108.633H44.459V60.2312H278.855V108.633Z" fill="url(#paint6_linear_530_2861)"/>
<path opacity="0.7" d="M278.855 108.633H44.459V60.2312H278.855V108.633Z" fill="white"/>
<path d="M155.68 108.633H44.459V60.2312H146.492L155.68 67.3964V108.633Z" fill="#263238"/>
<path d="M146.492 60.2656V67.4309H155.68L146.492 60.2656Z" fill="white"/>
<path d="M132.957 74.2849H140.537" stroke="white" stroke-linecap="round" stroke-linejoin="round"/>
<path d="M89.5684 74.2849H128.394" stroke="white" stroke-linecap="round" stroke-linejoin="round"/>
<path d="M59.6035 74.2849H85.4641" stroke="white" stroke-linecap="round" stroke-linejoin="round"/>
<path d="M108.756 78.425H140.537" stroke="white" stroke-linecap="round" stroke-linejoin="round"/>
<path d="M91.4004 78.425H103.734" stroke="white" stroke-linecap="round" stroke-linejoin="round"/>
<path d="M59.6035 78.425H85.9222" stroke="white" stroke-linecap="round" stroke-linejoin="round"/>
<path d="M76.7852 82.5652H140.538" stroke="white" stroke-linecap="round" stroke-linejoin="round"/>
<path d="M59.6035 82.5652H70.8484" stroke="white" stroke-linecap="round" stroke-linejoin="round"/>
<path d="M124.74 86.7139H140.54" stroke="white" stroke-linecap="round" stroke-linejoin="round"/>
<path d="M94.5977 86.7139H119.257" stroke="white" stroke-linecap="round" stroke-linejoin="round"/>
<path d="M59.6035 86.7139H89.5696" stroke="white" stroke-linecap="round" stroke-linejoin="round"/>
<path d="M85.9199 90.854H140.536" stroke="white" stroke-linecap="round" stroke-linejoin="round"/>
<path d="M59.6035 90.854H80.8918" stroke="white" stroke-linecap="round" stroke-linejoin="round"/>
<path d="M164.1 200.606H113.468C112.893 200.606 112.341 200.377 111.934 199.97C111.527 199.564 111.299 199.012 111.299 198.436V181.928C111.299 181.352 111.527 180.801 111.934 180.394C112.341 179.987 112.893 179.758 113.468 179.758H164.109C164.684 179.758 165.236 179.987 165.643 180.394C166.05 180.801 166.278 181.352 166.278 181.928V198.436C166.276 199.012 166.046 199.564 165.637 199.971C165.229 200.377 164.676 200.606 164.1 200.606Z" fill="url(#paint7_linear_530_2861)"/>
<path d="M128.28 191.323H125.324L124.909 192.429C124.873 192.562 124.794 192.678 124.684 192.761C124.575 192.844 124.441 192.888 124.304 192.887C124.14 192.886 123.983 192.825 123.863 192.714C123.8 192.665 123.749 192.602 123.715 192.53C123.68 192.458 123.663 192.379 123.664 192.3C123.665 192.216 123.683 192.134 123.716 192.057L125.747 186.975C125.824 186.707 125.977 186.467 126.188 186.284C126.369 186.163 126.584 186.102 126.802 186.111C127.017 186.102 127.229 186.163 127.407 186.284C127.623 186.463 127.78 186.704 127.856 186.975L129.887 192.057C129.918 192.134 129.932 192.217 129.93 192.3C129.933 192.379 129.917 192.457 129.884 192.529C129.851 192.601 129.802 192.665 129.74 192.714C129.617 192.826 129.457 192.888 129.291 192.887C129.164 192.886 129.041 192.847 128.936 192.775C128.819 192.69 128.734 192.568 128.694 192.429L128.28 191.323ZM126.802 187.373L125.661 190.424H127.943L126.802 187.373Z" fill="white"/>
<path d="M132.067 191.608C132.177 191.747 132.318 191.858 132.479 191.932C132.639 192.005 132.815 192.04 132.992 192.032C133.318 192.048 133.641 191.964 133.917 191.79C133.988 191.741 134.072 191.714 134.159 191.712C134.206 191.711 134.254 191.72 134.297 191.74C134.34 191.759 134.379 191.788 134.41 191.824C134.477 191.897 134.514 191.993 134.513 192.092C134.512 192.165 134.494 192.236 134.461 192.3C134.428 192.364 134.381 192.421 134.323 192.464C134.159 192.601 133.968 192.701 133.761 192.758C133.481 192.84 133.19 192.881 132.897 192.879C132.587 192.89 132.278 192.836 131.991 192.72C131.704 192.603 131.444 192.428 131.229 192.205C131.009 191.975 130.839 191.704 130.727 191.407C130.616 191.11 130.566 190.793 130.581 190.476C130.577 190.061 130.675 189.651 130.866 189.283C131.064 188.918 131.365 188.617 131.73 188.419C132.099 188.2 132.521 188.09 132.949 188.099C133.416 188.077 133.877 188.208 134.263 188.471C134.324 188.507 134.376 188.559 134.412 188.621C134.448 188.683 134.468 188.753 134.47 188.825C134.471 188.924 134.434 189.02 134.366 189.093C134.332 189.129 134.29 189.158 134.244 189.177C134.198 189.197 134.148 189.206 134.098 189.205C134.023 189.203 133.949 189.182 133.882 189.145C133.631 189.014 133.353 188.943 133.07 188.937C132.891 188.928 132.713 188.961 132.549 189.033C132.386 189.105 132.241 189.214 132.128 189.352C131.882 189.67 131.759 190.066 131.782 190.467C131.741 190.869 131.842 191.273 132.067 191.608Z" fill="white"/>
<path d="M136.604 191.608C136.714 191.747 136.855 191.858 137.016 191.932C137.176 192.005 137.353 192.04 137.529 192.032C137.858 192.047 138.183 191.963 138.463 191.79C138.531 191.741 138.612 191.714 138.696 191.712C138.744 191.71 138.791 191.719 138.834 191.739C138.878 191.758 138.916 191.788 138.947 191.824C139.014 191.897 139.051 191.993 139.05 192.092C139.05 192.165 139.033 192.236 139 192.301C138.967 192.366 138.919 192.421 138.86 192.464C138.697 192.603 138.505 192.703 138.298 192.758C138.018 192.842 137.727 192.882 137.434 192.879C137.124 192.89 136.816 192.836 136.528 192.72C136.241 192.603 135.981 192.428 135.766 192.205C135.546 191.975 135.376 191.704 135.264 191.407C135.153 191.11 135.103 190.793 135.118 190.476C135.112 190.06 135.213 189.649 135.412 189.283C135.6 188.925 135.885 188.626 136.233 188.419C136.602 188.202 137.023 188.091 137.451 188.099C137.921 188.078 138.384 188.209 138.774 188.471C138.836 188.507 138.887 188.559 138.923 188.621C138.96 188.683 138.98 188.753 138.981 188.825C138.979 188.925 138.939 189.021 138.869 189.093C138.835 189.13 138.794 189.159 138.747 189.179C138.701 189.198 138.651 189.207 138.601 189.205C138.525 189.202 138.452 189.181 138.385 189.145C138.134 189.013 137.856 188.942 137.572 188.937C137.394 188.928 137.216 188.961 137.052 189.033C136.888 189.105 136.744 189.214 136.63 189.352C136.392 189.674 136.273 190.068 136.293 190.467C136.26 190.872 136.37 191.276 136.604 191.608Z" fill="white"/>
<path d="M139.906 189.326C140.085 188.97 140.36 188.67 140.701 188.462C141.071 188.24 141.496 188.126 141.928 188.134C142.254 188.128 142.578 188.19 142.879 188.315C143.137 188.423 143.366 188.592 143.544 188.808C143.715 189.018 143.844 189.259 143.925 189.517C144.018 189.795 144.065 190.087 144.063 190.381C144.07 190.486 144.04 190.59 143.977 190.675C143.948 190.714 143.91 190.745 143.866 190.764C143.822 190.784 143.774 190.792 143.726 190.787H140.805C140.789 190.965 140.814 191.145 140.876 191.312C140.939 191.48 141.038 191.632 141.166 191.756C141.294 191.881 141.448 191.976 141.617 192.034C141.787 192.092 141.967 192.112 142.144 192.092C142.592 192.067 143.021 191.904 143.372 191.626C143.422 191.581 143.486 191.557 143.553 191.556C143.602 191.558 143.65 191.571 143.693 191.593C143.736 191.615 143.774 191.647 143.804 191.686C143.872 191.769 143.911 191.872 143.916 191.98C143.917 192.041 143.904 192.101 143.878 192.156C143.853 192.211 143.816 192.26 143.769 192.3C143.287 192.708 142.672 192.926 142.041 192.913C141.403 192.937 140.781 192.707 140.312 192.274C140.084 192.039 139.907 191.76 139.792 191.454C139.677 191.147 139.628 190.82 139.646 190.493C139.641 190.089 139.73 189.69 139.906 189.326ZM143.069 190.139C143.057 189.827 142.951 189.526 142.767 189.275C142.662 189.165 142.537 189.078 142.398 189.018C142.259 188.959 142.11 188.928 141.958 188.928C141.807 188.928 141.658 188.959 141.519 189.018C141.38 189.078 141.254 189.165 141.15 189.275C140.948 189.519 140.83 189.822 140.813 190.139H143.069Z" fill="white"/>
<path d="M145.136 194.443C145.079 194.382 145.035 194.31 145.007 194.231C144.979 194.152 144.967 194.069 144.972 193.985V188.877C144.965 188.699 145.027 188.526 145.145 188.393C145.197 188.335 145.261 188.288 145.332 188.257C145.404 188.226 145.481 188.21 145.559 188.211C145.711 188.206 145.86 188.258 145.974 188.358C146.028 188.416 146.07 188.484 146.097 188.558C146.124 188.633 146.135 188.712 146.13 188.791V188.955C146.283 188.69 146.508 188.474 146.778 188.331C147.049 188.189 147.355 188.126 147.66 188.151C148.045 188.141 148.423 188.253 148.74 188.471C149.047 188.689 149.286 188.988 149.432 189.335C149.593 189.724 149.672 190.142 149.665 190.562C149.7 191.189 149.499 191.805 149.103 192.291C148.913 192.501 148.679 192.666 148.417 192.775C148.156 192.884 147.874 192.934 147.591 192.922C147.303 192.942 147.014 192.884 146.757 192.753C146.5 192.622 146.283 192.424 146.13 192.179V193.994C146.136 194.077 146.125 194.161 146.097 194.24C146.068 194.319 146.024 194.391 145.966 194.452C145.911 194.508 145.845 194.551 145.772 194.579C145.699 194.608 145.62 194.62 145.542 194.616C145.466 194.618 145.39 194.604 145.32 194.574C145.25 194.544 145.187 194.5 145.136 194.443ZM147.807 192.032C147.937 191.98 148.053 191.897 148.144 191.79C148.234 191.684 148.307 191.564 148.36 191.435C148.413 191.298 148.454 191.156 148.481 191.012C148.523 190.725 148.523 190.434 148.481 190.148C148.46 190.003 148.422 189.86 148.369 189.724C148.319 189.588 148.249 189.459 148.161 189.344C148.071 189.23 147.955 189.138 147.824 189.076C147.682 189.004 147.525 188.969 147.366 188.972C147.186 188.955 147.005 188.983 146.839 189.054C146.673 189.125 146.527 189.237 146.415 189.378C146.207 189.743 146.111 190.161 146.139 190.58C146.133 190.846 146.171 191.112 146.251 191.366C146.329 191.592 146.47 191.79 146.657 191.937C146.855 192.087 147.1 192.164 147.349 192.153C147.508 192.146 147.664 192.104 147.807 192.032Z" fill="white"/>
<path d="M151.36 192.516C151.106 192.205 150.98 191.81 151.005 191.409V189.015H150.556C150.443 189.021 150.332 188.984 150.245 188.912C150.174 188.83 150.137 188.725 150.141 188.618C150.138 188.52 150.172 188.424 150.236 188.35C150.276 188.312 150.324 188.282 150.376 188.263C150.428 188.244 150.483 188.235 150.539 188.237H151.031L151.169 187.096C151.178 186.942 151.239 186.796 151.342 186.682C151.393 186.628 151.455 186.587 151.524 186.56C151.593 186.533 151.666 186.522 151.74 186.526C151.799 186.523 151.859 186.533 151.914 186.555C151.97 186.578 152.019 186.612 152.06 186.656C152.14 186.775 152.18 186.918 152.172 187.062V188.237H152.915C152.969 188.235 153.023 188.244 153.074 188.263C153.124 188.283 153.171 188.312 153.209 188.35C153.245 188.389 153.273 188.436 153.29 188.486C153.308 188.537 153.316 188.59 153.313 188.644C153.315 188.694 153.307 188.745 153.289 188.792C153.271 188.84 153.244 188.883 153.209 188.92C153.169 188.955 153.123 188.982 153.072 188.998C153.022 189.015 152.968 189.02 152.915 189.015H152.172V191.124C152.158 191.352 152.196 191.579 152.284 191.79C152.319 191.861 152.375 191.92 152.445 191.959C152.515 191.998 152.594 192.014 152.673 192.006H152.725H153.054C153.111 192.003 153.167 192.014 153.22 192.036C153.272 192.059 153.319 192.093 153.356 192.135C153.415 192.204 153.452 192.287 153.465 192.376C153.477 192.465 153.463 192.555 153.425 192.637C153.4 192.689 153.362 192.734 153.313 192.766L153.149 192.853C153.075 192.875 153 192.889 152.924 192.896H152.673H152.362C152.178 192.909 151.992 192.882 151.819 192.816C151.646 192.75 151.489 192.648 151.36 192.516Z" fill="white"/>
<path opacity="0.25" d="M97.5735 200.606H46.9155C46.6306 200.606 46.3485 200.55 46.0853 200.441C45.8221 200.332 45.583 200.172 45.3815 199.97C45.1801 199.769 45.0203 199.53 44.9112 199.267C44.8022 199.003 44.7461 198.721 44.7461 198.436V181.928C44.7461 181.643 44.8022 181.361 44.9112 181.098C45.0203 180.834 45.1801 180.595 45.3815 180.394C45.583 180.192 45.8221 180.032 46.0853 179.923C46.3485 179.814 46.6306 179.758 46.9155 179.758H97.5476C98.123 179.758 98.6748 179.987 99.0816 180.394C99.4885 180.801 99.717 181.352 99.717 181.928V198.436C99.7171 199.007 99.4921 199.555 99.0908 199.961C98.6896 200.367 98.1444 200.599 97.5735 200.606Z" fill="black"/>
<path d="M50.0616 192.697C50.0018 192.645 49.9544 192.579 49.923 192.506C49.8916 192.433 49.877 192.354 49.8801 192.274V186.984C49.8743 186.877 49.8896 186.771 49.9252 186.67C49.9608 186.569 50.016 186.476 50.0875 186.397C50.1483 186.326 50.2241 186.27 50.3093 186.233C50.3946 186.195 50.4872 186.177 50.5802 186.18C50.7332 186.185 50.8823 186.229 51.0124 186.31C51.1647 186.386 51.2932 186.503 51.384 186.647L54.4264 190.865V186.768C54.4233 186.689 54.438 186.609 54.4694 186.536C54.5008 186.463 54.5481 186.397 54.608 186.345C54.724 186.233 54.8789 186.17 55.0401 186.17C55.2013 186.17 55.3563 186.233 55.4723 186.345C55.5323 186.399 55.5797 186.466 55.6111 186.541C55.6424 186.615 55.657 186.696 55.6538 186.777V191.963C55.6634 192.195 55.5932 192.424 55.455 192.611C55.3975 192.692 55.3208 192.757 55.2318 192.801C55.1427 192.845 55.0442 192.866 54.945 192.862C54.7937 192.856 54.6471 192.808 54.5215 192.723C54.3705 192.631 54.2385 192.511 54.1326 192.369L51.1074 188.177V192.283C51.1111 192.362 51.0975 192.44 51.0676 192.513C51.0378 192.587 50.9924 192.652 50.9346 192.706C50.817 192.808 50.6664 192.863 50.5111 192.862C50.429 192.865 50.3471 192.853 50.2699 192.825C50.1928 192.796 50.122 192.753 50.0616 192.697Z" fill="white"/>
<path d="M58.0917 192.715C57.7991 192.599 57.5384 192.415 57.3311 192.179C57.1425 191.953 56.9961 191.696 56.8989 191.418C56.8031 191.14 56.7535 190.848 56.752 190.554C56.7532 190.312 56.7852 190.071 56.847 189.836C56.9094 189.607 57.0056 189.389 57.1323 189.188C57.2595 188.989 57.417 188.811 57.599 188.661C57.8037 188.496 58.0386 188.373 58.2905 188.298C58.5703 188.211 58.8617 188.167 59.1548 188.168C59.4479 188.166 59.7396 188.21 60.0191 188.298C60.2666 188.369 60.4983 188.486 60.7019 188.644C60.8913 188.788 61.0549 188.963 61.1859 189.162C61.3169 189.365 61.416 189.586 61.4798 189.819C61.5428 190.059 61.5748 190.306 61.5749 190.554C61.5742 190.793 61.5422 191.031 61.4798 191.263C61.4258 191.49 61.3322 191.707 61.2032 191.902C61.0757 192.106 60.915 192.287 60.7278 192.438C60.5237 192.597 60.2923 192.717 60.045 192.792C59.7663 192.885 59.4744 192.932 59.1807 192.931C58.8071 192.93 58.4372 192.857 58.0917 192.715ZM60.1142 191.703C60.3578 191.365 60.4769 190.953 60.4513 190.537C60.4754 190.118 60.3566 189.703 60.1142 189.361C60.0024 189.223 59.8598 189.112 59.6977 189.039C59.5356 188.965 59.3586 188.93 59.1807 188.938C59.0027 188.929 58.8252 188.963 58.6629 189.037C58.5005 189.11 58.3581 189.221 58.2472 189.361C58.0066 189.704 57.8907 190.119 57.9188 190.537C57.8906 190.952 58.0066 191.364 58.2472 191.703C58.3648 191.835 58.5087 191.94 58.6695 192.011C58.8304 192.083 59.0045 192.12 59.1807 192.12C59.3569 192.12 59.531 192.083 59.6919 192.011C59.8527 191.94 59.9966 191.835 60.1142 191.703Z" fill="white"/>
<path d="M69.5079 191.323H66.5606L66.1371 192.429C66.0972 192.568 66.012 192.69 65.8951 192.775C65.7907 192.847 65.6673 192.886 65.5407 192.887C65.3746 192.888 65.2142 192.826 65.0912 192.714C65.0295 192.665 64.9802 192.601 64.9472 192.529C64.9142 192.457 64.8984 192.379 64.9011 192.3C64.8897 192.219 64.8897 192.138 64.9011 192.057L66.9323 186.975C67.0083 186.704 67.165 186.463 67.3817 186.284C67.5596 186.163 67.7717 186.102 67.9867 186.111C68.2044 186.102 68.4193 186.163 68.6004 186.284C68.8139 186.464 68.9676 186.706 69.0412 186.975L71.081 192.057C71.1069 192.136 71.1214 192.217 71.1242 192.3C71.1252 192.379 71.1078 192.458 71.0733 192.53C71.0389 192.602 70.9882 192.665 70.9254 192.714C70.8051 192.825 70.6479 192.886 70.4846 192.887C70.3555 192.884 70.2297 192.846 70.1216 192.775C70.0096 192.685 69.9256 192.565 69.8796 192.429L69.5079 191.323ZM68.0299 187.373L66.889 190.424H69.1795L68.0299 187.373Z" fill="white"/>
<path d="M73.3014 191.608C73.4094 191.749 73.5501 191.861 73.7113 191.935C73.8725 192.008 74.0492 192.042 74.2262 192.032C74.5518 192.046 74.8742 191.962 75.151 191.79C75.2191 191.741 75.3005 191.714 75.3844 191.712C75.432 191.71 75.4793 191.719 75.5228 191.739C75.5662 191.758 75.6046 191.788 75.635 191.824C75.7025 191.897 75.7396 191.993 75.7388 192.092C75.7391 192.164 75.7229 192.235 75.6914 192.299C75.6599 192.364 75.614 192.42 75.5572 192.464C75.3911 192.603 75.1963 192.703 74.9868 192.758C74.7065 192.842 74.415 192.883 74.1225 192.879C73.8114 192.89 73.5015 192.835 73.2127 192.719C72.9239 192.603 72.6626 192.428 72.4457 192.205C72.2262 191.975 72.0555 191.704 71.9441 191.407C71.8326 191.11 71.7827 190.793 71.7974 190.476C71.7919 190.06 71.8931 189.649 72.0913 189.283C72.2801 188.925 72.5642 188.626 72.9124 188.419C73.2816 188.203 73.7032 188.092 74.1311 188.099C74.6006 188.076 75.0649 188.206 75.4535 188.471C75.5153 188.507 75.5668 188.559 75.6031 188.621C75.6393 188.683 75.6593 188.753 75.661 188.825C75.6617 188.875 75.6521 188.925 75.6328 188.971C75.6134 189.017 75.5848 189.059 75.5486 189.093C75.5165 189.13 75.4765 189.159 75.4316 189.179C75.3868 189.198 75.3382 189.207 75.2893 189.205C75.2109 189.202 75.1343 189.181 75.0646 189.145C74.8139 189.013 74.5355 188.942 74.2521 188.937C74.0736 188.929 73.8956 188.962 73.732 189.034C73.5685 189.106 73.424 189.215 73.31 189.352C73.072 189.674 72.9529 190.068 72.9729 190.467C72.9443 190.874 73.0606 191.279 73.3014 191.608Z" fill="white"/>
<path d="M77.8388 191.608C77.9478 191.748 78.0887 191.859 78.2496 191.933C78.4105 192.006 78.5868 192.04 78.7636 192.032C79.0894 192.048 79.4125 191.964 79.6884 191.79C79.7592 191.74 79.8437 191.712 79.9304 191.712C79.9779 191.711 80.0251 191.72 80.0684 191.74C80.1118 191.759 80.1503 191.788 80.1811 191.824C80.2486 191.897 80.2857 191.993 80.2848 192.092C80.2835 192.165 80.2657 192.236 80.2327 192.3C80.1997 192.364 80.1525 192.421 80.0946 192.464C79.9307 192.601 79.7391 192.701 79.5328 192.758C79.2522 192.84 78.961 192.881 78.6685 192.879C78.3587 192.89 78.05 192.836 77.7625 192.72C77.4751 192.603 77.2154 192.428 77.0004 192.205C76.7808 191.975 76.6102 191.704 76.4988 191.407C76.3873 191.11 76.3374 190.793 76.3521 190.476C76.348 190.061 76.446 189.651 76.6373 189.283C76.8359 188.918 77.1361 188.617 77.5017 188.419C77.87 188.2 78.2922 188.09 78.7204 188.099C79.187 188.077 79.6482 188.208 80.0341 188.471C80.0959 188.507 80.1474 188.559 80.1837 188.621C80.22 188.683 80.2399 188.753 80.2416 188.825C80.2425 188.924 80.2054 189.02 80.1379 189.093C80.1033 189.129 80.0617 189.158 80.0156 189.177C79.9695 189.197 79.9199 189.206 79.8699 189.205C79.7941 189.203 79.72 189.182 79.6538 189.145C79.4001 189.013 79.1189 188.942 78.8327 188.937C78.6555 188.929 78.4787 188.962 78.3166 189.034C78.1544 189.106 78.0115 189.215 77.8993 189.352C77.6535 189.67 77.5307 190.066 77.5535 190.467C77.5123 190.869 77.6133 191.273 77.8388 191.608Z" fill="white"/>
<path d="M81.1427 189.327C81.319 188.968 81.5951 188.668 81.9379 188.462C82.3077 188.239 82.7333 188.125 83.1652 188.134C83.4913 188.128 83.815 188.19 84.116 188.315C84.3745 188.423 84.6029 188.592 84.7815 188.808C84.9484 189.02 85.077 189.26 85.1618 189.517C85.2521 189.796 85.2958 190.088 85.2915 190.381C85.2972 190.485 85.2699 190.588 85.2137 190.675C85.1842 190.713 85.146 190.743 85.1023 190.762C85.0586 190.782 85.0108 190.79 84.963 190.787H82.033C82.0178 190.965 82.0424 191.145 82.1048 191.312C82.1673 191.48 82.2662 191.632 82.3943 191.757C82.5224 191.881 82.6766 191.976 82.8458 192.034C83.015 192.092 83.1949 192.112 83.3727 192.092C83.8208 192.07 84.2504 191.907 84.6 191.626C84.6315 191.599 84.6683 191.58 84.7078 191.568C84.7473 191.557 84.7888 191.554 84.8295 191.56C84.8703 191.566 84.9094 191.58 84.9443 191.601C84.9792 191.623 85.0091 191.652 85.0322 191.686C85.1038 191.767 85.1437 191.872 85.1445 191.98C85.1469 192.041 85.1348 192.102 85.1093 192.157C85.0838 192.213 85.0455 192.262 84.9976 192.3C84.5154 192.708 83.9007 192.926 83.269 192.914C82.6312 192.935 82.0106 192.705 81.5403 192.274C81.3131 192.039 81.1373 191.759 81.0242 191.453C80.9111 191.146 80.8632 190.82 80.8834 190.493C80.8748 190.089 80.9638 189.689 81.1427 189.327ZM84.3061 190.139C84.2913 189.826 84.1829 189.525 83.995 189.275C83.8967 189.16 83.7728 189.069 83.6332 189.011C83.4936 188.952 83.3422 188.927 83.1912 188.938C83.0375 188.929 82.8839 188.957 82.7428 189.018C82.6017 189.08 82.477 189.174 82.3787 189.292C82.1827 189.539 82.068 189.841 82.0503 190.156L84.3061 190.139Z" fill="white"/>
<path d="M86.362 194.443C86.2506 194.317 86.1918 194.153 86.1978 193.985V188.877C86.1911 188.7 86.253 188.526 86.3706 188.393C86.425 188.335 86.4907 188.29 86.5636 188.258C86.6364 188.227 86.7149 188.211 86.7941 188.212C86.9461 188.206 87.0945 188.258 87.209 188.359C87.2631 188.416 87.3047 188.484 87.3315 188.559C87.3582 188.633 87.3695 188.712 87.3646 188.791V188.955C87.5158 188.688 87.7404 188.471 88.0116 188.329C88.2828 188.186 88.5892 188.124 88.8945 188.151C89.2765 188.142 89.6518 188.254 89.9662 188.471C90.2755 188.688 90.5179 188.988 90.6663 189.335C90.8272 189.724 90.9066 190.142 90.8997 190.563C90.9363 191.19 90.7323 191.809 90.3292 192.291C90.1414 192.502 89.9089 192.668 89.6487 192.777C89.3885 192.886 89.1072 192.936 88.8253 192.922C88.5372 192.943 88.2487 192.885 87.9912 192.754C87.7337 192.623 87.517 192.424 87.3646 192.179V193.994C87.371 194.078 87.3596 194.162 87.3313 194.24C87.303 194.319 87.2584 194.391 87.2004 194.452C87.1448 194.507 87.0785 194.55 87.0057 194.578C86.9328 194.606 86.8549 194.619 86.7769 194.616C86.6995 194.618 86.6228 194.603 86.5514 194.573C86.48 194.543 86.4155 194.499 86.362 194.443ZM89.0414 192.032C89.1686 191.979 89.2812 191.896 89.3698 191.79C89.4634 191.686 89.5367 191.566 89.5859 191.436C89.6472 191.301 89.688 191.158 89.7069 191.012C89.7354 190.861 89.7498 190.708 89.7501 190.554C89.7587 190.407 89.7587 190.26 89.7501 190.113C89.729 189.968 89.6913 189.826 89.6378 189.69C89.5852 189.553 89.5124 189.424 89.4217 189.309C89.3346 189.196 89.2222 189.104 89.0932 189.041C88.948 188.971 88.7881 188.935 88.6265 188.938C88.448 188.921 88.2683 188.95 88.1037 189.021C87.9391 189.092 87.7949 189.203 87.6844 189.344C87.4696 189.706 87.3701 190.125 87.3992 190.545C87.396 190.812 87.4369 191.078 87.5202 191.332C87.5949 191.556 87.733 191.754 87.9178 191.902C88.1198 192.052 88.3667 192.128 88.6179 192.118C88.7633 192.117 88.907 192.087 89.0414 192.032Z" fill="white"/>
<path d="M92.5844 192.516C92.331 192.205 92.2045 191.81 92.2301 191.41V189.015H91.7806C91.7258 189.019 91.6709 189.012 91.619 188.994C91.567 188.976 91.5192 188.948 91.4781 188.912C91.4399 188.873 91.4102 188.827 91.3909 188.777C91.3715 188.726 91.363 188.672 91.3657 188.618C91.3634 188.568 91.3714 188.519 91.3892 188.473C91.4071 188.427 91.4344 188.385 91.4695 188.35C91.5095 188.311 91.5571 188.282 91.6091 188.262C91.6611 188.243 91.7166 188.235 91.772 188.237H92.256L92.3943 187.097C92.4066 186.943 92.4671 186.798 92.5672 186.682C92.6199 186.628 92.6834 186.587 92.7535 186.56C92.8235 186.533 92.8985 186.522 92.9734 186.526C93.0316 186.524 93.0896 186.534 93.1434 186.556C93.1972 186.579 93.2453 186.613 93.2845 186.656C93.3688 186.774 93.4086 186.918 93.3969 187.062V188.237H94.1489C94.2029 188.235 94.2569 188.244 94.3074 188.263C94.3579 188.283 94.404 188.312 94.4427 188.35C94.4785 188.39 94.5061 188.436 94.5239 188.486C94.5417 188.537 94.5494 188.59 94.5465 188.644C94.5485 188.694 94.5404 188.745 94.5225 188.792C94.5047 188.84 94.4776 188.883 94.4427 188.92C94.3585 188.991 94.2497 189.025 94.1402 189.015H93.3969V191.124C93.3874 191.352 93.4257 191.578 93.5093 191.79C93.5466 191.861 93.6044 191.92 93.6752 191.958C93.746 191.997 93.8266 192.013 93.9069 192.006H93.9587H94.2872C94.3442 192.003 94.4011 192.013 94.4535 192.035C94.506 192.058 94.5526 192.092 94.5897 192.136C94.664 192.219 94.7042 192.327 94.702 192.438C94.7158 192.504 94.7158 192.571 94.702 192.637C94.6737 192.69 94.6319 192.735 94.581 192.766L94.4168 192.853C94.3437 192.876 94.2684 192.89 94.1921 192.896H93.9501H93.5871C93.4025 192.907 93.2177 192.879 93.0449 192.814C92.872 192.748 92.7151 192.647 92.5844 192.516Z" fill="white"/>
<path d="M157.868 185.273C158.11 184.797 159.675 186.388 159.675 186.388C160.945 187.658 170.436 197.148 172.138 197.148C173.841 197.148 204.395 207.365 204.395 207.365L228.553 200.796C230.67 206.302 223.462 216.673 223.462 216.673C223.462 216.673 204.602 218.16 200.989 216.673C197.377 215.187 171.11 200.571 171.11 200.571C171.11 200.571 167.92 200.614 166.226 199.759C164.997 199.23 163.911 198.418 163.054 197.39C162.631 196.751 162.423 196.751 160.937 195.48C160.759 195.378 160.608 195.236 160.495 195.066C160.382 194.895 160.311 194.7 160.287 194.497C160.262 194.294 160.286 194.088 160.355 193.896C160.424 193.703 160.538 193.529 160.686 193.389L161.55 193.466L158.957 189.326C158.583 188.884 158.261 188.4 157.998 187.883C157.618 187.018 158.223 186.776 158.223 186.776C158.223 186.776 157.626 185.757 157.868 185.273Z" fill="white"/>
<mask id="mask1_530_2861" style="mask-type:luminance" maskUnits="userSpaceOnUse" x="157" y="185" width="72" height="33">
<path d="M157.868 185.272C158.11 184.797 159.675 186.387 159.675 186.387C160.945 187.658 170.436 197.148 172.138 197.148C173.841 197.148 204.395 207.364 204.395 207.364L228.553 200.796C230.67 206.301 223.462 216.673 223.462 216.673C223.462 216.673 204.602 218.16 200.989 216.673C197.377 215.187 171.11 200.571 171.11 200.571C171.11 200.571 167.92 200.614 166.226 199.758C164.997 199.229 163.911 198.418 163.054 197.39C162.631 196.751 162.423 196.751 160.937 195.48C160.759 195.378 160.608 195.236 160.495 195.065C160.382 194.895 160.311 194.7 160.287 194.497C160.262 194.294 160.286 194.088 160.355 193.895C160.424 193.703 160.538 193.529 160.686 193.388L161.55 193.466L158.957 189.326C158.583 188.884 158.261 188.399 157.998 187.883C157.618 187.018 158.223 186.776 158.223 186.776C158.223 186.776 157.626 185.756 157.868 185.272Z" fill="white"/>
</mask>
<g mask="url(#mask1_530_2861)">
<path opacity="0.15" d="M157.868 185.272C158.11 184.797 159.675 186.387 159.675 186.387C160.945 187.658 170.436 197.148 172.138 197.148C173.841 197.148 204.395 207.364 204.395 207.364L228.553 200.796C230.67 206.301 223.462 216.673 223.462 216.673C223.462 216.673 204.602 218.16 200.989 216.673C197.377 215.187 171.11 200.571 171.11 200.571C171.11 200.571 167.92 200.614 166.226 199.758C164.997 199.229 163.911 198.418 163.054 197.39C162.631 196.751 162.423 196.751 160.937 195.48C160.759 195.378 160.608 195.236 160.495 195.065C160.382 194.895 160.311 194.7 160.287 194.497C160.262 194.294 160.286 194.088 160.355 193.895C160.424 193.703 160.538 193.529 160.686 193.388L161.55 193.466L158.957 189.326C158.583 188.884 158.261 188.399 157.998 187.883C157.618 187.018 158.223 186.776 158.223 186.776C158.223 186.776 157.626 185.756 157.868 185.272Z" fill="black"/>
</g>
<path d="M157.868 185.273C158.11 184.797 159.675 186.388 159.675 186.388C160.945 187.658 170.436 197.148 172.138 197.148C173.841 197.148 204.395 207.365 204.395 207.365L228.553 200.796C230.67 206.302 223.462 216.673 223.462 216.673C223.462 216.673 204.602 218.16 200.989 216.673C197.377 215.187 171.11 200.571 171.11 200.571C171.11 200.571 167.92 200.614 166.226 199.759C164.997 199.23 163.911 198.418 163.054 197.39C162.631 196.751 162.423 196.751 160.937 195.48C160.759 195.378 160.608 195.236 160.495 195.066C160.382 194.895 160.311 194.7 160.287 194.497C160.262 194.294 160.286 194.088 160.355 193.896C160.424 193.703 160.538 193.529 160.686 193.389L161.55 193.466L158.957 189.326C158.583 188.884 158.261 188.4 157.998 187.883C157.618 187.018 158.223 186.776 158.223 186.776C158.223 186.776 157.626 185.757 157.868 185.273Z" stroke="#263238" stroke-linecap="round" stroke-linejoin="round"/>
<path d="M160.946 195.497C160.768 195.395 160.617 195.254 160.504 195.083C160.392 194.912 160.32 194.718 160.296 194.514C160.271 194.311 160.295 194.105 160.364 193.913C160.434 193.72 160.547 193.547 160.695 193.406L161.56 193.483L158.967 189.343C158.592 188.901 158.27 188.417 158.007 187.9C157.627 187.036 158.232 186.794 158.232 186.794C158.232 186.794 157.67 185.756 157.912 185.272C158.154 184.788 159.719 186.387 159.719 186.387C160.989 187.658 170.479 197.148 172.182 197.148C173.885 197.148 204.439 207.365 204.439 207.365L216.263 204.149C219.133 207.456 222.207 210.579 225.468 213.501C224.404 215.403 223.506 216.691 223.506 216.691C223.506 216.691 204.646 218.177 201.033 216.691C197.42 215.204 171.154 200.588 171.154 200.588C171.154 200.588 167.964 200.631 166.27 199.776C165.041 199.247 163.954 198.435 163.098 197.407C162.64 196.794 162.432 196.794 160.946 195.497Z" fill="url(#paint8_linear_530_2861)" stroke="#263238" stroke-linecap="round" stroke-linejoin="round"/>
<path d="M159.166 185.938C160.836 186.716 162.404 187.697 163.833 188.859C165.106 190.35 166.261 191.937 167.291 193.605C167.291 193.605 159.883 187.364 159.166 185.938Z" fill="white"/>
<mask id="mask2_530_2861" style="mask-type:luminance" maskUnits="userSpaceOnUse" x="159" y="185" width="9" height="9">
<path d="M159.166 185.938C160.836 186.716 162.404 187.697 163.833 188.859C165.106 190.35 166.261 191.937 167.291 193.605C167.291 193.605 159.883 187.364 159.166 185.938Z" fill="white"/>
</mask>
<g mask="url(#mask2_530_2861)">
<path opacity="0.15" d="M159.166 185.938C160.836 186.716 162.404 187.697 163.833 188.859C165.106 190.35 166.261 191.937 167.291 193.605C167.291 193.605 159.883 187.364 159.166 185.938Z" fill="black"/>
</g>
<path d="M159.166 185.938C160.836 186.716 162.404 187.697 163.833 188.859C165.106 190.35 166.261 191.937 167.291 193.605C167.291 193.605 159.883 187.364 159.166 185.938Z" stroke="#263238" stroke-linecap="round" stroke-linejoin="round"/>
<path d="M157.964 187.9C157.584 187.036 158.189 186.794 158.189 186.794C158.189 186.794 157.627 185.756 157.869 185.272C158.111 184.788 159.676 186.387 159.676 186.387C160.946 187.658 170.436 197.148 172.139 197.148C173.003 197.148 181.111 199.741 188.993 202.291L185.942 208.756C178.475 204.685 171.119 200.588 171.119 200.588C171.119 200.588 167.93 200.631 166.236 199.776C165.007 199.247 163.92 198.435 163.064 197.407C162.64 196.768 162.433 196.768 160.946 195.497C160.769 195.395 160.618 195.254 160.505 195.083C160.392 194.912 160.32 194.718 160.296 194.514C160.272 194.311 160.295 194.105 160.364 193.913C160.434 193.72 160.547 193.547 160.695 193.406L161.56 193.483L158.967 189.343C158.577 188.903 158.24 188.419 157.964 187.9Z" fill="white"/>
<mask id="mask3_530_2861" style="mask-type:luminance" maskUnits="userSpaceOnUse" x="157" y="185" width="32" height="24">
<path d="M157.966 187.9C157.586 187.036 158.191 186.794 158.191 186.794C158.191 186.794 157.629 185.757 157.871 185.273C158.113 184.789 159.678 186.388 159.678 186.388C160.948 187.658 170.438 197.148 172.141 197.148C173.005 197.148 181.113 199.741 188.995 202.291L185.944 208.756C178.477 204.685 171.121 200.588 171.121 200.588C171.121 200.588 167.932 200.632 166.238 199.776C165.009 199.247 163.922 198.436 163.066 197.408C162.642 196.768 162.435 196.768 160.948 195.498C160.771 195.396 160.619 195.254 160.507 195.083C160.394 194.912 160.322 194.718 160.298 194.515C160.274 194.312 160.297 194.105 160.366 193.913C160.436 193.721 160.549 193.547 160.697 193.406L161.562 193.484L158.969 189.344C158.579 188.904 158.242 188.419 157.966 187.9Z" fill="white"/>
</mask>
<g mask="url(#mask3_530_2861)">
<path opacity="0.15" d="M157.966 187.9C157.586 187.036 158.191 186.794 158.191 186.794C158.191 186.794 157.629 185.757 157.871 185.273C158.113 184.789 159.678 186.388 159.678 186.388C160.948 187.658 170.438 197.148 172.141 197.148C173.005 197.148 181.113 199.741 188.995 202.291L185.944 208.756C178.477 204.685 171.121 200.588 171.121 200.588C171.121 200.588 167.932 200.632 166.238 199.776C165.009 199.247 163.922 198.436 163.066 197.408C162.642 196.768 162.435 196.768 160.948 195.498C160.771 195.396 160.619 195.254 160.507 195.083C160.394 194.912 160.322 194.718 160.298 194.515C160.274 194.312 160.297 194.105 160.366 193.913C160.436 193.721 160.549 193.547 160.697 193.406L161.562 193.484L158.969 189.344C158.579 188.904 158.242 188.419 157.966 187.9Z" fill="black"/>
<path d="M160.949 193.173C160.949 193.173 163.369 194.677 165.444 195.878" stroke="#263238" stroke-linecap="round" stroke-linejoin="round"/>
<path d="M158.189 186.794C159 187.263 159.687 187.918 160.195 188.704C161.416 190.376 162.829 191.899 164.404 193.242" stroke="#263238" stroke-linecap="round" stroke-linejoin="round"/>
</g>
<path d="M157.964 187.9C157.584 187.036 158.189 186.794 158.189 186.794C158.189 186.794 157.627 185.756 157.869 185.272C158.111 184.788 159.676 186.387 159.676 186.387C160.946 187.658 170.436 197.148 172.139 197.148C173.003 197.148 181.111 199.741 188.993 202.291L185.942 208.756C178.475 204.685 171.119 200.588 171.119 200.588C171.119 200.588 167.93 200.631 166.236 199.776C165.007 199.247 163.92 198.435 163.064 197.407C162.64 196.768 162.433 196.768 160.946 195.497C160.769 195.395 160.618 195.254 160.505 195.083C160.392 194.912 160.32 194.718 160.296 194.514C160.272 194.311 160.295 194.105 160.364 193.913C160.434 193.72 160.547 193.547 160.695 193.406L161.56 193.483L158.967 189.343C158.577 188.903 158.24 188.419 157.964 187.9Z" stroke="#263238" stroke-linecap="round" stroke-linejoin="round"/>
<path d="M241.673 168.09C242.062 165.537 242.849 163.06 244.007 160.752C245.865 157.139 251.457 156.326 252.045 157.026C252.633 157.727 252.745 157.96 254.958 157.606C257.17 157.251 262.529 158.772 261.483 159.818C260.437 160.864 261.129 161.218 263.696 162.152C266.263 163.085 266.142 165.765 264.508 166.698C262.875 167.632 263.575 168.323 264.854 169.844C266.133 171.366 265.718 172.869 264.508 172.982C263.298 173.094 262.529 172.524 263.696 174.503C264.863 176.482 264.396 178.574 262.641 178.825C260.887 179.075 261.25 179.879 261.25 181.504C261.25 183.129 260.083 184.097 259.15 183.838C258.216 183.578 257.283 184.183 256.816 185.471C256.349 186.759 254.958 186.638 254.024 186.05C253.091 185.463 252.391 185.817 252.157 186.517C251.924 187.217 251.69 187.684 249.945 186.75C248.199 185.817 247.62 184.304 246.686 185.35C246.478 185.568 246.21 185.719 245.915 185.783C245.621 185.847 245.314 185.821 245.034 185.708C244.755 185.595 244.516 185.401 244.348 185.151C244.18 184.901 244.091 184.606 244.093 184.304C243.959 182.623 243.565 180.973 242.926 179.412C242.252 177.883 240.739 171.824 241.673 168.09Z" fill="#263238" stroke="#263238" stroke-linecap="round" stroke-linejoin="round"/>
<path d="M250.811 245.516C250.811 245.516 258.434 251.03 259.497 256.112C260.56 261.195 262.462 269.89 262.678 270.944C262.894 271.999 271.788 301.68 272.004 302.734C272.22 303.789 280.284 310.366 280.051 316.935C279.817 323.504 283.871 354.023 284.079 355.933C284.286 357.843 282.35 358.898 280.474 359.961C278.599 361.024 274.744 364.948 270.301 362.502C266.844 360.618 278.357 353.816 278.357 350.401C278.357 346.987 267.121 316.287 263.949 309.925C260.776 303.564 253.136 288.542 250.811 284.955C249.251 282.459 247.904 279.837 246.783 277.116C246.783 277.116 246.143 291.1 247.838 298.309C249.532 305.517 251.018 316.952 248.702 328.188C246.385 339.425 245.737 350.436 246.377 354.04C247.016 357.644 245.953 357.861 243.827 358.492C241.701 359.122 237.664 358.362 235.123 359.451C232.582 360.54 227.457 360.315 227.102 358.587C226.748 356.858 235.357 353.401 238.105 351.3C240.854 349.2 240.015 345.579 240.655 336.883C241.295 328.188 235.988 305.941 235.141 301.066C234.294 296.191 229.203 278.179 229.203 268.006C229.203 257.833 229.842 253.597 229.842 253.597C229.842 253.597 232.807 250.633 239.168 247.875C242.824 246.23 246.803 245.424 250.811 245.516Z" fill="white"/>
<mask id="mask4_530_2861" style="mask-type:luminance" maskUnits="userSpaceOnUse" x="227" y="245" width="58" height="119">
<path d="M250.811 245.516C250.811 245.516 258.434 251.03 259.497 256.112C260.56 261.195 262.462 269.89 262.678 270.944C262.894 271.999 271.788 301.68 272.004 302.734C272.22 303.789 280.284 310.366 280.051 316.935C279.817 323.504 283.871 354.023 284.079 355.933C284.286 357.843 282.35 358.898 280.474 359.961C278.599 361.024 274.744 364.948 270.301 362.502C266.844 360.618 278.357 353.816 278.357 350.401C278.357 346.987 267.121 316.287 263.949 309.925C260.776 303.564 253.136 288.542 250.811 284.955C249.251 282.459 247.904 279.837 246.783 277.116C246.783 277.116 246.143 291.1 247.838 298.309C249.532 305.517 251.018 316.952 248.702 328.188C246.385 339.425 245.737 350.436 246.377 354.04C247.016 357.644 245.953 357.861 243.827 358.492C241.701 359.122 237.664 358.362 235.123 359.451C232.582 360.54 227.457 360.315 227.102 358.587C226.748 356.858 235.357 353.401 238.105 351.3C240.854 349.2 240.015 345.579 240.655 336.883C241.295 328.188 235.988 305.941 235.141 301.066C234.294 296.191 229.203 278.179 229.203 268.006C229.203 257.833 229.842 253.597 229.842 253.597C229.842 253.597 232.807 250.633 239.168 247.875C242.824 246.23 246.803 245.424 250.811 245.516Z" fill="white"/>
</mask>
<g mask="url(#mask4_530_2861)">
<path opacity="0.15" d="M250.811 245.516C250.811 245.516 258.434 251.03 259.497 256.112C260.56 261.195 262.462 269.89 262.678 270.944C262.894 271.999 271.788 301.68 272.004 302.734C272.22 303.789 280.284 310.366 280.051 316.935C279.817 323.504 283.871 354.023 284.079 355.933C284.286 357.843 282.35 358.898 280.474 359.961C278.599 361.024 274.744 364.948 270.301 362.502C266.844 360.618 278.357 353.816 278.357 350.401C278.357 346.987 267.121 316.287 263.949 309.925C260.776 303.564 253.136 288.542 250.811 284.955C249.251 282.459 247.904 279.837 246.783 277.116C246.783 277.116 246.143 291.1 247.838 298.309C249.532 305.517 251.018 316.952 248.702 328.188C246.385 339.425 245.737 350.436 246.377 354.04C247.016 357.644 245.953 357.861 243.827 358.492C241.701 359.122 237.664 358.362 235.123 359.451C232.582 360.54 227.457 360.315 227.102 358.587C226.748 356.858 235.357 353.401 238.105 351.3C240.854 349.2 240.015 345.579 240.655 336.883C241.295 328.188 235.988 305.941 235.141 301.066C234.294 296.191 229.203 278.179 229.203 268.006C229.203 257.833 229.842 253.597 229.842 253.597C229.842 253.597 232.807 250.633 239.168 247.875C242.824 246.23 246.803 245.424 250.811 245.516Z" fill="black"/>
</g>
<path d="M250.811 245.516C250.811 245.516 258.434 251.03 259.497 256.112C260.56 261.195 262.462 269.89 262.678 270.944C262.894 271.999 271.788 301.68 272.004 302.734C272.22 303.789 280.284 310.366 280.051 316.935C279.817 323.504 283.871 354.023 284.079 355.933C284.286 357.843 282.35 358.898 280.474 359.961C278.599 361.024 274.744 364.948 270.301 362.502C266.844 360.618 278.357 353.816 278.357 350.401C278.357 346.987 267.121 316.287 263.949 309.925C260.776 303.564 253.136 288.542 250.811 284.955C249.251 282.459 247.904 279.837 246.783 277.116C246.783 277.116 246.143 291.1 247.838 298.309C249.532 305.517 251.018 316.952 248.702 328.188C246.385 339.425 245.737 350.436 246.377 354.04C247.016 357.644 245.953 357.861 243.827 358.492C241.701 359.122 237.664 358.362 235.123 359.451C232.582 360.54 227.457 360.315 227.102 358.587C226.748 356.858 235.357 353.401 238.105 351.3C240.854 349.2 240.015 345.579 240.655 336.883C241.295 328.188 235.988 305.941 235.141 301.066C234.294 296.191 229.203 278.179 229.203 268.006C229.203 257.833 229.842 253.597 229.842 253.597C229.842 253.597 232.807 250.633 239.168 247.875C242.824 246.23 246.803 245.424 250.811 245.516Z" stroke="#263238" stroke-linecap="round" stroke-linejoin="round"/>
<path d="M240.456 331.015C239.506 320.712 235.815 305.042 235.123 301.04C234.259 296.165 229.186 278.153 229.186 267.98C229.186 257.807 229.825 253.571 229.825 253.571C229.825 253.571 232.79 250.607 239.151 247.85C242.815 246.21 246.799 245.413 250.811 245.516C250.811 245.516 258.434 251.03 259.497 256.113C260.56 261.195 262.462 269.89 262.678 270.944C262.894 271.999 271.788 301.68 272.004 302.734C272.22 303.789 280.284 310.366 280.051 316.935C279.982 319.078 280.371 323.78 280.915 329.2C278.323 330.609 275.503 331.548 272.583 331.974C269.316 322.873 265.565 313.201 263.94 309.943C260.759 303.59 253.127 288.542 250.802 284.938C249.242 282.442 247.895 279.82 246.775 277.098C246.775 277.098 246.135 291.083 247.829 298.291C249.523 305.5 251.01 316.935 248.693 328.171C248.512 329.035 248.348 329.9 248.183 330.764C246.835 331.257 244.458 331.628 240.456 331.015Z" fill="#263238" stroke="#263238" stroke-linecap="round" stroke-linejoin="round"/>
<path d="M246.782 277.098L240.213 267.98" stroke="white" stroke-linecap="round" stroke-linejoin="round"/>
<path d="M252.287 243.398L253.35 246.579C253.35 246.579 244.154 255.845 236.064 256.899C227.974 257.954 228.285 257.176 228.285 255.049C228.285 252.923 235.709 249.967 242.278 246.579C248.847 243.191 250.377 242.759 252.287 243.398Z" fill="url(#paint9_linear_530_2861)" stroke="#263238" stroke-linecap="round" stroke-linejoin="round"/>
<path d="M217.671 175.67C217.671 174.045 216.176 168.28 220.324 164.494C224.473 160.708 231.768 161.564 231.768 161.564C240.411 162.152 245.519 172.057 243.773 179.041C242.028 186.024 237.014 186.82 235.269 189.067C234.318 190.26 234.975 193.388 235.778 195.981C243.212 196.319 242.65 202.222 244.024 206.353C245.753 211.436 248.052 227.547 248.683 231.151C249.314 234.755 253.981 240.9 253.981 243.018C253.981 245.136 244.655 248.524 236.608 252.525C228.561 256.527 228.682 256.752 227.196 254.626C225.709 252.5 224.101 231.315 224.101 228.774C224.101 226.233 216.47 219.871 218.164 216.267C219.529 213.363 225.709 202.49 228.06 198.376L227.93 197.918C226.972 195.322 225.843 192.793 224.551 190.346C224.551 190.346 220.117 190.579 218.838 190.458C217.559 190.337 216.858 189.992 216.625 188.834C216.53 187.926 216.648 187.008 216.971 186.154C216.971 186.154 216.513 186.266 216.279 185.566C216.046 184.866 216.858 184.287 216.858 184.287C216.279 184.054 216.271 182.904 216.271 182.904L217.351 181.815C217.351 181.815 215.458 181.279 215.277 179.836C215.095 178.392 217.671 177.286 217.671 175.67Z" fill="white"/>
<mask id="mask5_530_2861" style="mask-type:luminance" maskUnits="userSpaceOnUse" x="215" y="161" width="39" height="95">
<path d="M217.673 175.67C217.673 174.045 216.178 168.28 220.326 164.494C224.475 160.708 231.77 161.564 231.77 161.564C240.413 162.152 245.521 172.057 243.775 179.041C242.029 186.024 237.016 186.819 235.27 189.067C234.32 190.259 234.977 193.388 235.78 195.981C243.214 196.318 242.652 202.222 244.026 206.353C245.755 211.435 248.054 227.546 248.685 231.151C249.316 234.755 253.983 240.9 253.983 243.018C253.983 245.135 244.657 248.523 236.61 252.525C228.563 256.527 228.684 256.752 227.198 254.626C225.711 252.499 224.103 231.315 224.103 228.774C224.103 226.233 216.471 219.871 218.166 216.267C219.531 213.363 225.711 202.49 228.062 198.375L227.932 197.917C226.974 195.322 225.845 192.792 224.553 190.346C224.553 190.346 220.119 190.579 218.84 190.458C217.561 190.337 216.86 189.991 216.627 188.833C216.532 187.925 216.65 187.008 216.973 186.154C216.973 186.154 216.515 186.266 216.281 185.566C216.048 184.866 216.86 184.287 216.86 184.287C216.281 184.054 216.273 182.904 216.273 182.904L217.353 181.815C217.353 181.815 215.46 181.279 215.279 179.836C215.097 178.392 217.673 177.286 217.673 175.67Z" fill="white"/>
</mask>
<g mask="url(#mask5_530_2861)">
<path opacity="0.15" d="M217.673 175.67C217.673 174.045 216.177 168.28 220.326 164.494C224.475 160.708 231.77 161.564 231.77 161.564C240.413 162.152 245.521 172.057 243.775 179.041C242.029 186.024 237.016 186.819 235.27 189.067C234.319 190.259 234.976 193.388 235.78 195.981C243.213 196.318 242.651 202.222 244.026 206.353C245.754 211.435 248.053 227.546 248.684 231.151C249.315 234.755 253.983 240.9 253.983 243.018C253.983 245.135 244.657 248.523 236.61 252.525C228.563 256.527 226.013 255.922 224.509 253.796C223.005 251.67 224.086 231.323 224.086 228.791C224.086 226.258 216.454 219.888 218.148 216.284C219.514 213.38 225.693 202.507 228.044 198.393L227.915 197.935C226.956 195.339 225.827 192.81 224.535 190.363C224.535 190.363 220.101 190.596 218.822 190.475C217.543 190.354 216.843 190.009 216.609 188.851C216.514 187.943 216.632 187.025 216.955 186.171C216.955 186.171 216.497 186.284 216.264 185.583C216.03 184.883 216.843 184.304 216.843 184.304C216.264 184.071 216.255 182.921 216.255 182.921L217.335 181.832C217.335 181.832 215.443 181.296 215.261 179.853C215.08 178.41 217.673 177.286 217.673 175.67Z" fill="black"/>
</g>
<path d="M217.671 175.67C217.671 174.045 216.176 168.28 220.324 164.494C224.473 160.708 231.768 161.564 231.768 161.564C240.411 162.152 245.519 172.057 243.773 179.041C242.028 186.024 237.014 186.82 235.269 189.067C234.318 190.26 234.975 193.388 235.778 195.981C243.212 196.319 242.65 202.222 244.024 206.353C245.753 211.436 248.052 227.547 248.683 231.151C249.314 234.755 253.981 240.9 253.981 243.018C253.981 245.136 244.655 248.524 236.608 252.525C228.561 256.527 228.682 256.752 227.196 254.626C225.709 252.5 224.101 231.315 224.101 228.774C224.101 226.233 216.47 219.871 218.164 216.267C219.529 213.363 225.709 202.49 228.06 198.376L227.93 197.918C226.972 195.322 225.843 192.793 224.551 190.346C224.551 190.346 220.117 190.579 218.838 190.458C217.559 190.337 216.858 189.992 216.625 188.834C216.53 187.926 216.648 187.008 216.971 186.154C216.971 186.154 216.513 186.266 216.279 185.566C216.046 184.866 216.858 184.287 216.858 184.287C216.279 184.054 216.271 182.904 216.271 182.904L217.351 181.815C217.351 181.815 215.458 181.279 215.277 179.836C215.095 178.393 217.671 177.286 217.671 175.67Z" stroke="#263238" stroke-linecap="round" stroke-linejoin="round"/>
<path d="M219.783 176.05C219.662 176.647 219.783 177.182 220.077 177.243C220.371 177.303 220.69 176.863 220.811 176.258C220.932 175.653 220.811 175.125 220.518 175.074C220.224 175.022 219.904 175.488 219.783 176.05Z" fill="#263238"/>
<path d="M222.22 173.915C222.22 173.915 221.875 172.057 219.541 172.524" stroke="#263238" stroke-linecap="round" stroke-linejoin="round"/>
<path d="M216.859 184.287C216.859 184.287 218.372 184.754 218.839 184.054" stroke="#263238" stroke-linecap="round" stroke-linejoin="round"/>
<path d="M218.165 216.267C218.718 215.092 220.067 212.611 221.623 209.802L222.193 210.122C229.306 214.24 237.752 215.397 245.711 213.346C247.008 220.036 248.304 228.601 248.71 231.108C249.35 234.712 254.009 240.857 254.009 242.975C254.009 245.092 248.996 249.085 240.94 253.105C232.885 257.124 228.71 256.735 227.223 254.609C225.737 252.482 224.103 231.315 224.103 228.774C224.103 226.233 216.471 219.871 218.165 216.267Z" fill="url(#paint10_linear_530_2861)" stroke="#263238" stroke-linecap="round" stroke-linejoin="round"/>
<path d="M242.538 217.114C242.538 217.114 235.123 216.907 231.734 215.844" stroke="#263238" stroke-linecap="round" stroke-linejoin="round"/>
<path d="M245.294 219.024C245.294 219.024 238.621 220.087 236.711 219.664" stroke="#263238" stroke-linecap="round" stroke-linejoin="round"/>
<path d="M226.143 161.832C227.998 161.489 229.891 161.399 231.77 161.564C240.413 162.152 245.521 172.057 243.775 179.041C242.28 185.022 238.399 186.482 236.213 188.168C234.484 187.459 232.591 186.439 232.003 185.221C231.382 184.001 230.914 182.709 230.612 181.374C230.612 181.374 229.445 182.187 229.091 180.207C228.736 178.228 226.601 177.079 225.374 174.633C224.147 172.187 225.841 169.516 227.422 167.416C228.641 165.782 229.635 162.809 226.143 161.832Z" fill="#263238" stroke="#263238" stroke-linecap="round" stroke-linejoin="round"/>
<path d="M227.268 160.544C226.373 159.863 225.307 159.441 224.188 159.325C223.069 159.209 221.94 159.404 220.924 159.887C216.887 161.72 222.756 164.287 224.96 167.77C227.164 171.253 228.262 176.577 229.359 173.457C230.457 170.337 231.149 166.776 229.748 163.682C229.207 162.439 228.352 161.358 227.268 160.544Z" fill="#263238" stroke="#263238" stroke-linecap="round" stroke-linejoin="round"/>
<path d="M228.639 180.761C228.639 180.761 231.319 176.275 234.007 177.666C236.695 179.058 233.367 183.578 231.319 184.711C229.27 185.843 228.51 182.982 228.51 182.982" fill="white"/>
<mask id="mask6_530_2861" style="mask-type:luminance" maskUnits="userSpaceOnUse" x="228" y="177" width="8" height="8">
<path d="M228.641 180.76C228.641 180.76 231.321 176.275 234.009 177.666C236.697 179.058 233.369 183.578 231.321 184.71C229.272 185.843 228.512 182.982 228.512 182.982" fill="white"/>
</mask>
<g mask="url(#mask6_530_2861)">
<path opacity="0.15" d="M228.641 180.76C228.641 180.76 231.321 176.275 234.009 177.666C236.697 179.058 233.369 183.578 231.321 184.71C229.272 185.843 228.512 182.982 228.512 182.982" fill="black"/>
</g>
<path d="M228.639 180.761C228.639 180.761 231.319 176.275 234.007 177.666C236.695 179.058 233.367 183.578 231.319 184.711C229.27 185.843 228.51 182.982 228.51 182.982" stroke="#263238" stroke-linecap="round" stroke-linejoin="round"/>
<path d="M229.824 204.616C229.824 204.616 234.483 197.2 239.997 199.318C245.512 201.435 263.524 224.539 264.155 228.134C264.786 231.73 269.67 261.203 269.67 261.203C269.67 261.203 270.724 264.375 269.67 266.925C268.615 269.475 268.606 270.52 269.67 272.647C270.733 274.773 270.534 275.611 268.805 274.375C267.077 273.139 266.895 272.647 264.985 268.861C263.075 265.075 266.255 259.535 266.255 259.535C266.255 259.535 255.451 234.746 255.019 232.412C254.794 231.081 254.366 229.793 253.749 228.592C253.749 228.592 234.25 212.49 232.339 209.525" fill="white"/>
<mask id="mask7_530_2861" style="mask-type:luminance" maskUnits="userSpaceOnUse" x="229" y="198" width="42" height="77">
<path d="M229.826 204.616C229.826 204.616 234.485 197.2 239.999 199.318C245.514 201.436 263.526 224.539 264.157 228.135C264.788 231.73 269.671 261.204 269.671 261.204C269.671 261.204 270.726 264.376 269.671 266.925C268.617 269.475 268.608 270.521 269.671 272.647C270.735 274.773 270.536 275.612 268.807 274.376C267.078 273.14 266.897 272.647 264.987 268.861C263.077 265.076 266.257 259.535 266.257 259.535C266.257 259.535 255.453 234.747 255.021 232.413C254.796 231.082 254.368 229.793 253.751 228.593C253.751 228.593 234.252 212.49 232.341 209.526" fill="white"/>
</mask>
<g mask="url(#mask7_530_2861)">
<path opacity="0.15" d="M229.826 204.616C229.826 204.616 234.485 197.2 239.999 199.318C245.514 201.436 263.526 224.539 264.157 228.135C264.788 231.73 269.671 261.204 269.671 261.204C269.671 261.204 270.726 264.376 269.671 266.925C268.617 269.475 268.608 270.521 269.671 272.647C270.735 274.773 270.536 275.612 268.807 274.376C267.078 273.14 266.897 272.647 264.987 268.861C263.077 265.076 266.257 259.535 266.257 259.535C266.257 259.535 255.453 234.747 255.021 232.413C254.796 231.082 254.368 229.793 253.751 228.593C253.751 228.593 234.252 212.49 232.341 209.526" fill="black"/>
</g>
<path d="M229.824 204.616C229.824 204.616 234.483 197.2 239.997 199.318C245.512 201.435 263.524 224.539 264.155 228.134C264.786 231.73 269.67 261.203 269.67 261.203C269.67 261.203 270.724 264.375 269.67 266.925C268.615 269.475 268.606 270.52 269.67 272.647C270.733 274.773 270.534 275.611 268.805 274.375C267.077 273.139 266.895 272.647 264.985 268.861C263.075 265.075 266.255 259.535 266.255 259.535C266.255 259.535 255.451 234.746 255.019 232.412C254.794 231.081 254.366 229.793 253.749 228.592C253.749 228.592 234.25 212.49 232.339 209.525" stroke="#263238" stroke-linecap="round" stroke-linejoin="round"/>
<path d="M251.985 210.848C257.992 217.987 263.8 226.12 264.155 228.134C264.794 231.739 269.669 261.203 269.669 261.203C269.669 261.203 270.723 264.375 269.669 266.925C268.615 269.475 268.606 270.521 269.669 272.647C270.732 274.773 270.533 275.612 268.805 274.376C267.076 273.14 266.895 272.647 264.984 268.861C263.074 265.076 266.255 259.535 266.255 259.535C266.255 259.535 255.451 234.746 255.019 232.413C254.794 231.082 254.365 229.793 253.748 228.592C253.748 228.592 243.506 220.139 237.145 214.348C242.293 214.322 247.368 213.125 251.985 210.848Z" fill="url(#paint11_linear_530_2861)" stroke="#263238" stroke-linecap="round" stroke-linejoin="round"/>
<path d="M264.631 230.926C266.031 239.241 269.67 261.177 269.67 261.177C269.67 261.177 270.724 264.349 269.67 266.899C268.615 269.449 268.607 270.495 269.67 272.621C270.733 274.747 270.534 275.586 268.806 274.35C267.077 273.114 266.895 272.621 264.985 268.835C263.075 265.05 266.256 259.509 266.256 259.509C266.256 259.509 256.394 236.881 255.141 232.828L264.631 230.926Z" fill="white"/>
<mask id="mask8_530_2861" style="mask-type:luminance" maskUnits="userSpaceOnUse" x="255" y="230" width="16" height="45">
<path d="M264.631 230.926C266.031 239.241 269.67 261.177 269.67 261.177C269.67 261.177 270.724 264.349 269.67 266.899C268.615 269.449 268.607 270.495 269.67 272.621C270.733 274.747 270.534 275.586 268.806 274.35C267.077 273.114 266.895 272.621 264.985 268.835C263.075 265.05 266.256 259.509 266.256 259.509C266.256 259.509 256.394 236.881 255.141 232.828L264.631 230.926Z" fill="white"/>
</mask>
<g mask="url(#mask8_530_2861)">
<path opacity="0.15" d="M264.631 230.926C266.031 239.241 269.67 261.177 269.67 261.177C269.67 261.177 270.724 264.349 269.67 266.899C268.615 269.449 268.607 270.495 269.67 272.621C270.733 274.747 270.534 275.586 268.806 274.35C267.077 273.114 266.895 272.621 264.985 268.835C263.075 265.05 266.256 259.509 266.256 259.509C266.256 259.509 256.394 236.881 255.141 232.828L264.631 230.926Z" fill="black"/>
</g>
<path d="M264.631 230.926C266.031 239.241 269.67 261.177 269.67 261.177C269.67 261.177 270.724 264.349 269.67 266.899C268.615 269.449 268.607 270.495 269.67 272.621C270.733 274.747 270.534 275.586 268.806 274.35C267.077 273.114 266.895 272.621 264.985 268.835C263.075 265.05 266.256 259.509 266.256 259.509C266.256 259.509 256.394 236.881 255.141 232.828L264.631 230.926Z" stroke="#263238" stroke-linecap="round" stroke-linejoin="round"/>
<path d="M278.261 350.981C278.53 351.02 278.788 351.118 279.017 351.268C279.245 351.417 279.438 351.614 279.583 351.845C280.124 352.615 280.514 353.48 280.733 354.395L283.567 351.845C283.844 354.066 284.034 355.579 284.077 355.959C284.294 357.869 282.349 358.924 280.473 359.987C278.598 361.05 274.743 364.974 270.3 362.528C267.059 360.713 277.206 354.507 278.261 350.981Z" fill="url(#paint12_linear_530_2861)" stroke="#263238" stroke-linecap="round" stroke-linejoin="round"/>
<path d="M238.086 351.275C238.312 351.094 238.523 350.894 238.717 350.678C239.231 350.849 239.695 351.146 240.065 351.543C240.36 351.967 240.577 352.441 240.705 352.943L240.834 353.963C242.657 354.243 244.52 354.116 246.288 353.591C246.288 353.738 246.331 353.876 246.357 353.997C246.988 357.601 245.934 357.818 243.808 358.448C241.681 359.079 237.645 358.319 235.104 359.408C232.563 360.497 227.437 360.272 227.083 358.544C226.729 356.815 235.337 353.392 238.086 351.275Z" fill="url(#paint13_linear_530_2861)" stroke="#263238" stroke-linecap="round" stroke-linejoin="round"/>
</g>
<defs>
<filter id="filter0_d_530_2861" x="0" y="14.4221" width="304.471" height="358.578" filterUnits="userSpaceOnUse" color-interpolation-filters="sRGB">
<feFlood flood-opacity="0" result="BackgroundImageFix"/>
<feColorMatrix in="SourceAlpha" type="matrix" values="0 0 0 0 0 0 0 0 0 0 0 0 0 0 0 0 0 0 127 0" result="hardAlpha"/>
<feOffset dy="4"/>
<feGaussianBlur stdDeviation="2"/>
<feComposite in2="hardAlpha" operator="out"/>
<feColorMatrix type="matrix" values="0 0 0 0 0 0 0 0 0 0 0 0 0 0 0 0 0 0 0.25 0"/>
<feBlend mode="normal" in2="BackgroundImageFix" result="effect1_dropShadow_530_2861"/>
<feBlend mode="normal" in="SourceGraphic" in2="effect1_dropShadow_530_2861" result="shape"/>
</filter>
<linearGradient id="paint0_linear_530_2861" x1="164.616" y1="355.829" x2="164.616" y2="365" gradientUnits="userSpaceOnUse">
<stop stop-color="#4F268D"/>
<stop offset="1" stop-color="#4AA3A7"/>
</linearGradient>
<linearGradient id="paint1_linear_530_2861" x1="73.2057" y1="207.581" x2="73.2057" y2="217.348" gradientUnits="userSpaceOnUse">
<stop stop-color="#4F268D"/>
<stop offset="1" stop-color="#4AA3A7"/>
</linearGradient>
<linearGradient id="paint2_linear_530_2861" x1="80.8051" y1="195.461" x2="80.8051" y2="285.015" gradientUnits="userSpaceOnUse">
<stop stop-color="#4F268D"/>
<stop offset="1" stop-color="#4AA3A7"/>
</linearGradient>
<linearGradient id="paint3_linear_530_2861" x1="111.832" y1="230.292" x2="111.832" y2="237.424" gradientUnits="userSpaceOnUse">
<stop stop-color="#4F268D"/>
<stop offset="1" stop-color="#4AA3A7"/>
</linearGradient>
<linearGradient id="paint4_linear_530_2861" x1="65.6478" y1="260.772" x2="65.6478" y2="353.755" gradientUnits="userSpaceOnUse">
<stop stop-color="#4F268D"/>
<stop offset="1" stop-color="#4AA3A7"/>
</linearGradient>
<linearGradient id="paint5_linear_530_2861" x1="161.322" y1="28.3542" x2="161.322" y2="38.2421" gradientUnits="userSpaceOnUse">
<stop stop-color="#4F268D"/>
<stop offset="1" stop-color="#4AA3A7"/>
</linearGradient>
<linearGradient id="paint6_linear_530_2861" x1="161.657" y1="60.2312" x2="161.657" y2="108.633" gradientUnits="userSpaceOnUse">
<stop stop-color="#4F268D"/>
<stop offset="1" stop-color="#4AA3A7"/>
</linearGradient>
<linearGradient id="paint7_linear_530_2861" x1="138.789" y1="179.758" x2="138.789" y2="200.606" gradientUnits="userSpaceOnUse">
<stop stop-color="#4F268D"/>
<stop offset="1" stop-color="#4AA3A7"/>
</linearGradient>
<linearGradient id="paint8_linear_530_2861" x1="191.66" y1="185.181" x2="191.66" y2="217.351" gradientUnits="userSpaceOnUse">
<stop stop-color="#4F268D"/>
<stop offset="1" stop-color="#4AA3A7"/>
</linearGradient>
<linearGradient id="paint9_linear_530_2861" x1="240.817" y1="243.149" x2="240.817" y2="257.366" gradientUnits="userSpaceOnUse">
<stop stop-color="#4F268D"/>
<stop offset="1" stop-color="#4AA3A7"/>
</linearGradient>
<linearGradient id="paint10_linear_530_2861" x1="235.964" y1="209.802" x2="235.964" y2="256.18" gradientUnits="userSpaceOnUse">
<stop stop-color="#4F268D"/>
<stop offset="1" stop-color="#4AA3A7"/>
</linearGradient>
<linearGradient id="paint11_linear_530_2861" x1="253.733" y1="210.848" x2="253.733" y2="274.951" gradientUnits="userSpaceOnUse">
<stop stop-color="#4F268D"/>
<stop offset="1" stop-color="#4AA3A7"/>
</linearGradient>
<linearGradient id="paint12_linear_530_2861" x1="276.879" y1="350.981" x2="276.879" y2="363.317" gradientUnits="userSpaceOnUse">
<stop stop-color="#4F268D"/>
<stop offset="1" stop-color="#4AA3A7"/>
</linearGradient>
<linearGradient id="paint13_linear_530_2861" x1="236.805" y1="350.678" x2="236.805" y2="360.072" gradientUnits="userSpaceOnUse">
<stop stop-color="#4F268D"/>
<stop offset="1" stop-color="#4AA3A7"/>
</linearGradient>
</defs>
</svg>
