<svg width="70" height="70" viewBox="0 0 70 70" fill="none" xmlns="http://www.w3.org/2000/svg">
<rect width="70" height="70" rx="6" fill="url(#paint0_linear_1327_4342)"/>
<path d="M51.25 28.8844V23.75C51.25 23.087 50.9866 22.4511 50.5178 21.9822C50.0489 21.5134 49.413 21.25 48.75 21.25H21.25C20.587 21.25 19.9511 21.5134 19.4822 21.9822C19.0134 22.4511 18.75 23.087 18.75 23.75V43.75C18.75 44.413 19.0134 45.0489 19.4822 45.5178C19.9511 45.9866 20.587 46.25 21.25 46.25H38.75V50C38.7498 50.2132 38.8042 50.4229 38.9079 50.6091C39.0117 50.7953 39.1613 50.952 39.3426 51.0641C39.5239 51.1762 39.7309 51.2401 39.9439 51.2496C40.1569 51.2592 40.3687 51.2141 40.5594 51.1187L45 48.8969L49.4406 51.1187C49.6313 51.2141 49.8431 51.2592 50.0561 51.2496C50.2691 51.2401 50.4761 51.1762 50.6574 51.0641C50.8387 50.952 50.9883 50.7953 51.0921 50.6091C51.1958 50.4229 51.2502 50.2132 51.25 50V41.1156C52.8524 39.4834 53.7502 37.2874 53.7502 35C53.7502 32.7126 52.8524 30.5166 51.25 28.8844ZM35 37.5H26.25C25.9185 37.5 25.6005 37.3683 25.3661 37.1339C25.1317 36.8995 25 36.5815 25 36.25C25 35.9185 25.1317 35.6005 25.3661 35.3661C25.6005 35.1317 25.9185 35 26.25 35H35C35.3315 35 35.6495 35.1317 35.8839 35.3661C36.1183 35.6005 36.25 35.9185 36.25 36.25C36.25 36.5815 36.1183 36.8995 35.8839 37.1339C35.6495 37.3683 35.3315 37.5 35 37.5ZM35 32.5H26.25C25.9185 32.5 25.6005 32.3683 25.3661 32.1339C25.1317 31.8995 25 31.5815 25 31.25C25 30.9185 25.1317 30.6005 25.3661 30.3661C25.6005 30.1317 25.9185 30 26.25 30H35C35.3315 30 35.6495 30.1317 35.8839 30.3661C36.1183 30.6005 36.25 30.9185 36.25 31.25C36.25 31.5815 36.1183 31.8995 35.8839 32.1339C35.6495 32.3683 35.3315 32.5 35 32.5ZM48.75 47.9781L45.5594 46.3812C45.3857 46.2943 45.1942 46.2491 45 46.2491C44.8058 46.2491 44.6143 46.2943 44.4406 46.3812L41.25 47.9781V42.9047C42.4218 43.4612 43.7028 43.75 45 43.75C46.2972 43.75 47.5782 43.4612 48.75 42.9047V47.9781ZM45 41.25C43.7639 41.25 42.5555 40.8834 41.5277 40.1967C40.4999 39.5099 39.6988 38.5338 39.2258 37.3918C38.7527 36.2497 38.6289 34.9931 38.8701 33.7807C39.1112 32.5683 39.7065 31.4547 40.5806 30.5806C41.4547 29.7065 42.5683 29.1112 43.7807 28.8701C44.9931 28.6289 46.2497 28.7527 47.3918 29.2258C48.5338 29.6988 49.5099 30.4999 50.1967 31.5277C50.8834 32.5555 51.25 33.7639 51.25 35C51.25 36.6576 50.5915 38.2473 49.4194 39.4194C48.2473 40.5915 46.6576 41.25 45 41.25Z" fill="#FBFBFB"/>
<defs>
<linearGradient id="paint0_linear_1327_4342" x1="66" y1="7.5" x2="1.96695e-06" y2="70" gradientUnits="userSpaceOnUse">
<stop stop-color="#008D96"/>
<stop offset="0.598958" stop-color="#00D0DD"/>
</linearGradient>
</defs>
</svg>
