<svg width="70" height="70" viewBox="0 0 70 70" fill="none" xmlns="http://www.w3.org/2000/svg">
<rect width="70" height="70" rx="6" fill="url(#paint0_linear_1327_4378)"/>
<path d="M39.5834 40C41.1934 40 42.5 41.3067 42.5 42.9167L42.4984 44.52C42.6934 48.17 39.98 50.015 35.1117 50.015C30.2617 50.015 27.5 48.1983 27.5 44.5833V42.9167C27.5 41.3067 28.8067 40 30.4167 40H39.5834ZM21.25 31.6667H28.5434C28.2526 32.7983 28.2638 33.9865 28.5758 35.1124C28.8879 36.2384 29.4899 37.2628 30.3217 38.0833L30.5917 38.335L30.4167 38.3333C29.4164 38.333 28.4435 38.6599 27.6463 39.2641C26.8492 39.8684 26.2716 40.7168 26.0017 41.68L25.945 41.6817C21.095 41.6817 18.3334 39.865 18.3334 36.25V34.5833C18.3334 32.9733 19.64 31.6667 21.25 31.6667ZM48.75 31.6667C50.36 31.6667 51.6667 32.9733 51.6667 34.5833L51.665 36.1867C51.86 39.8367 49.1467 41.6817 44.2784 41.6817L43.9967 41.6783C43.7405 40.7705 43.2109 39.9636 42.4801 39.3672C41.7492 38.7708 40.8525 38.4139 39.9117 38.345L39.5834 38.3333L39.4084 38.335C40.3336 37.5224 41.0149 36.4688 41.3766 35.2917C41.7383 34.1146 41.766 32.8603 41.4567 31.6683L48.75 31.6667ZM35 28.3333C35.6567 28.3333 36.3068 28.4627 36.9135 28.7139C37.5201 28.9652 38.0713 29.3335 38.5356 29.7978C38.9999 30.2621 39.3682 30.8133 39.6194 31.4199C39.8707 32.0265 40 32.6767 40 33.3333C40 33.9899 39.8707 34.6401 39.6194 35.2467C39.3682 35.8534 38.9999 36.4046 38.5356 36.8689C38.0713 37.3332 37.5201 37.7015 36.9135 37.9527C36.3068 38.204 35.6567 38.3333 35 38.3333C33.674 38.3333 32.4022 37.8065 31.4645 36.8689C30.5268 35.9312 30 34.6594 30 33.3333C30 32.0073 30.5268 30.7355 31.4645 29.7978C32.4022 28.8601 33.674 28.3333 35 28.3333ZM25.8334 20C27.1595 20 28.4312 20.5268 29.3689 21.4645C30.3066 22.4021 30.8334 23.6739 30.8334 25C30.8334 26.3261 30.3066 27.5979 29.3689 28.5355C28.4312 29.4732 27.1595 30 25.8334 30C24.5073 30 23.2355 29.4732 22.2978 28.5355C21.3602 27.5979 20.8334 26.3261 20.8334 25C20.8334 23.6739 21.3602 22.4021 22.2978 21.4645C23.2355 20.5268 24.5073 20 25.8334 20ZM44.1667 20C45.4928 20 46.7646 20.5268 47.7022 21.4645C48.6399 22.4021 49.1667 23.6739 49.1667 25C49.1667 26.3261 48.6399 27.5979 47.7022 28.5355C46.7646 29.4732 45.4928 30 44.1667 30C42.8406 30 41.5689 29.4732 40.6312 28.5355C39.6935 27.5979 39.1667 26.3261 39.1667 25C39.1667 23.6739 39.6935 22.4021 40.6312 21.4645C41.5689 20.5268 42.8406 20 44.1667 20Z" fill="#FBFBFB"/>
<defs>
<linearGradient id="paint0_linear_1327_4378" x1="66" y1="7.5" x2="1.96695e-06" y2="70" gradientUnits="userSpaceOnUse">
<stop stop-color="#968700"/>
<stop offset="0.598958" stop-color="#EED600"/>
</linearGradient>
</defs>
</svg>
