<svg width="353" height="364" viewBox="0 0 353 364" fill="none" xmlns="http://www.w3.org/2000/svg">
<path d="M171 7.28C171 3.25937 174.261 -0.0151978 178.278 0.145569C209.234 1.38431 239.406 10.5082 265.909 26.7055C294.485 44.1701 317.689 69.1811 332.965 98.985C348.241 128.789 354.997 162.23 352.489 195.627C349.982 229.023 338.308 261.081 318.753 288.269C299.198 315.458 272.52 336.724 241.656 349.725C210.792 362.727 176.939 366.96 143.823 361.96C110.708 356.959 79.6148 342.917 53.9666 321.381C30.1793 301.408 11.9311 275.707 0.908834 246.753C-0.521634 242.996 1.54537 238.862 5.35712 237.583L166.036 183.666C169.002 182.671 171 179.892 171 176.764V7.28Z" fill="#089898"/>
</svg>
