<svg width="20" height="21" viewBox="0 0 20 21" fill="none" xmlns="http://www.w3.org/2000/svg">
<path d="M9 2.18408C8.46957 2.18408 7.96086 2.3948 7.58579 2.76987C7.21071 3.14494 7 3.65365 7 4.18408V12.1841C7 12.7145 7.21071 13.2232 7.58579 13.5983C7.96086 13.9734 8.46957 14.1841 9 14.1841H15C15.5304 14.1841 16.0391 13.9734 16.4142 13.5983C16.7893 13.2232 17 12.7145 17 12.1841V6.59808C16.9999 6.06769 16.7891 5.55907 16.414 5.18408L14 2.77008C13.625 2.39498 13.1164 2.1842 12.586 2.18408H9Z" fill="#252525"/>
<path d="M3 8.18408C3 7.65365 3.21071 7.14494 3.58579 6.76987C3.96086 6.3948 4.46957 6.18408 5 6.18408V16.1841H13C13 16.7145 12.7893 17.2232 12.4142 17.5983C12.0391 17.9734 11.5304 18.1841 11 18.1841H5C4.46957 18.1841 3.96086 17.9734 3.58579 17.5983C3.21071 17.2232 3 16.7145 3 16.1841V8.18408Z" fill="#252525"/>
</svg>
