<svg width="70" height="70" viewBox="0 0 70 70" fill="none" xmlns="http://www.w3.org/2000/svg">
<rect width="70" height="70" rx="6" fill="url(#paint0_linear_1327_4304)"/>
<path d="M38.3334 29.625C38.3334 29.375 38.424 29.1178 38.6051 28.8534C38.7862 28.5889 38.9867 28.4156 39.2067 28.3334C40.0123 28.0556 40.8179 27.8472 41.6234 27.7084C42.429 27.5695 43.2767 27.5 44.1667 27.5C44.7223 27.5 45.2712 27.535 45.8134 27.605C46.3556 27.675 46.8901 27.765 47.4167 27.875C47.6667 27.9306 47.8823 28.0695 48.0634 28.2917C48.2445 28.5139 48.3345 28.7639 48.3334 29.0417C48.3334 29.5139 48.1806 29.8611 47.8751 30.0834C47.5695 30.3056 47.1806 30.3611 46.7084 30.25C46.3195 30.1667 45.9101 30.1039 45.4801 30.0617C45.0501 30.0195 44.6123 29.9989 44.1667 30C43.4445 30 42.7362 30.0695 42.0417 30.2084C41.3473 30.3472 40.6806 30.5278 40.0417 30.75C39.5417 30.9445 39.1323 30.9306 38.8134 30.7084C38.4945 30.4861 38.3345 30.125 38.3334 29.625ZM38.3334 38.7917C38.3334 38.5417 38.424 38.2845 38.6051 38.02C38.7862 37.7556 38.9873 37.5822 39.2084 37.5C40.014 37.2222 40.8195 37.0139 41.6251 36.875C42.4306 36.7361 43.2779 36.6667 44.1667 36.6667C44.7223 36.6667 45.2712 36.7017 45.8134 36.7717C46.3556 36.8417 46.8901 36.9317 47.4167 37.0417C47.6667 37.0972 47.8823 37.2361 48.0634 37.4584C48.2445 37.6806 48.3345 37.9306 48.3334 38.2084C48.3334 38.6806 48.1806 39.0278 47.8751 39.25C47.5695 39.4722 47.1806 39.5278 46.7084 39.4167C46.3195 39.3334 45.9101 39.2706 45.4801 39.2284C45.0501 39.1861 44.6123 39.1656 44.1667 39.1667C43.4445 39.1667 42.7362 39.2295 42.0417 39.355C41.3473 39.4806 40.6806 39.6539 40.0417 39.875C39.5417 40.0695 39.1317 40.0622 38.8117 39.8534C38.4917 39.6445 38.3323 39.2911 38.3334 38.7934V38.7917ZM38.3334 34.2084C38.3334 33.9584 38.424 33.7011 38.6051 33.4367C38.7862 33.1722 38.9873 32.9989 39.2084 32.9167C40.014 32.6389 40.8195 32.4306 41.6251 32.2917C42.4306 32.1528 43.2779 32.0834 44.1667 32.0834C44.7223 32.0834 45.2712 32.1184 45.8134 32.1884C46.3556 32.2584 46.8901 32.3484 47.4167 32.4584C47.6667 32.5139 47.8823 32.6528 48.0634 32.875C48.2445 33.0972 48.3345 33.3472 48.3334 33.625C48.3334 34.0972 48.1806 34.4445 47.8751 34.6667C47.5695 34.8889 47.1806 34.9445 46.7084 34.8334C46.3195 34.75 45.9101 34.6872 45.4801 34.645C45.0501 34.6028 44.6123 34.5822 44.1667 34.5834C43.4445 34.5834 42.7362 34.6528 42.0417 34.7917C41.3473 34.9306 40.6806 35.1111 40.0417 35.3334C39.5417 35.5278 39.1323 35.5139 38.8134 35.2917C38.4945 35.0695 38.3345 34.7084 38.3334 34.2084ZM36.6667 43.4167C37.889 42.8334 39.1179 42.3956 40.3534 42.1034C41.589 41.8111 42.8601 41.6656 44.1667 41.6667C45.1667 41.6667 46.1462 41.75 47.1051 41.9167C48.064 42.0834 49.029 42.3334 50.0001 42.6667V26.1667C49.0834 25.7778 48.1317 25.4861 47.1451 25.2917C46.1584 25.0972 45.1656 25 44.1667 25C42.8612 25 41.5695 25.1667 40.2917 25.5C39.014 25.8334 37.8056 26.3334 36.6667 27V43.4167ZM35.0001 47.4584C34.6112 47.4584 34.2429 47.4095 33.8951 47.3117C33.5473 47.2139 33.2212 47.0822 32.9167 46.9167C31.8334 46.2778 30.6945 45.7989 29.5001 45.48C28.3056 45.1611 27.0834 45.0011 25.8334 45C24.6667 45 23.5206 45.1528 22.3951 45.4584C21.2695 45.7639 20.1934 46.1945 19.1667 46.75C18.5834 47.0556 18.0212 47.0417 17.4801 46.7084C16.939 46.375 16.6679 45.8889 16.6667 45.25V25.1667C16.6667 24.8611 16.7434 24.5695 16.8967 24.2917C17.0501 24.0139 17.279 23.8056 17.5834 23.6667C18.8612 23 20.1945 22.5 21.5834 22.1667C22.9723 21.8334 24.389 21.6667 25.8334 21.6667C27.4445 21.6667 29.0212 21.875 30.5634 22.2917C32.1056 22.7084 33.5845 23.3334 35.0001 24.1667C36.4167 23.3334 37.8962 22.7084 39.4384 22.2917C40.9806 21.875 42.5567 21.6667 44.1667 21.6667C45.6112 21.6667 47.0279 21.8334 48.4167 22.1667C49.8056 22.5 51.139 23 52.4167 23.6667C52.7223 23.8056 52.9517 24.0139 53.1051 24.2917C53.2584 24.5695 53.3345 24.8611 53.3334 25.1667V45.25C53.3334 45.8889 53.0629 46.375 52.5217 46.7084C51.9806 47.0417 51.4179 47.0556 50.8334 46.75C49.8056 46.1945 48.7295 45.7639 47.6051 45.4584C46.4806 45.1528 45.3345 45 44.1667 45C42.9167 45 41.6945 45.16 40.5001 45.48C39.3056 45.8 38.1667 46.2789 37.0834 46.9167C36.7779 47.0834 36.4512 47.2156 36.1034 47.3134C35.7556 47.4111 35.3879 47.4595 35.0001 47.4584Z" fill="#FBFBFB"/>
<defs>
<linearGradient id="paint0_linear_1327_4304" x1="70" y1="0" x2="0" y2="70" gradientUnits="userSpaceOnUse">
<stop stop-color="#5D0096"/>
<stop offset="0.598958" stop-color="#9600F2"/>
</linearGradient>
</defs>
</svg>
