<svg width="70" height="70" viewBox="0 0 70 70" fill="none" xmlns="http://www.w3.org/2000/svg">
<rect width="70" height="70" rx="6" fill="url(#paint0_linear_1327_4345)"/>
<path d="M30 32.7953L31.7281 36.25H28.2719L30 32.7953ZM51.25 23.75V48.75C51.2502 48.9632 51.1958 49.1729 51.0921 49.3591C50.9883 49.5453 50.8387 49.702 50.6574 49.8141C50.4761 49.9262 50.2691 49.9901 50.0561 49.9996C49.8431 50.0092 49.6313 49.9641 49.4406 49.8687L45 47.6469L40.5594 49.8687C40.3857 49.9556 40.1942 50.0009 40 50.0009C39.8058 50.0009 39.6143 49.9556 39.4406 49.8687L35 47.6469L30.5594 49.8687C30.3857 49.9556 30.1942 50.0009 30 50.0009C29.8058 50.0009 29.6143 49.9556 29.4406 49.8687L25 47.6469L20.5594 49.8687C20.3687 49.9641 20.1569 50.0092 19.9439 49.9996C19.7309 49.9901 19.5239 49.9262 19.3426 49.8141C19.1613 49.702 19.0117 49.5453 18.9079 49.3591C18.8042 49.1729 18.7498 48.9632 18.75 48.75V23.75C18.75 23.087 19.0134 22.4511 19.4822 21.9822C19.9511 21.5134 20.587 21.25 21.25 21.25H48.75C49.413 21.25 50.0489 21.5134 50.5178 21.9822C50.9866 22.4511 51.25 23.087 51.25 23.75ZM36.1188 39.4406L31.1188 29.4406C31.0151 29.2326 30.8555 29.0576 30.6578 28.9353C30.4602 28.813 30.2324 28.7482 30 28.7482C29.7676 28.7482 29.5398 28.813 29.3422 28.9353C29.1445 29.0576 28.9849 29.2326 28.8812 29.4406L23.8813 39.4406C23.8078 39.5875 23.764 39.7475 23.7523 39.9113C23.7407 40.0752 23.7614 40.2397 23.8134 40.3955C23.8653 40.5514 23.9475 40.6954 24.0551 40.8195C24.1627 40.9436 24.2937 41.0453 24.4406 41.1187C24.5875 41.1922 24.7475 41.236 24.9113 41.2477C25.0752 41.2593 25.2397 41.2386 25.3955 41.1866C25.5514 41.1347 25.6954 41.0525 25.8195 40.9449C25.9436 40.8373 26.0453 40.7063 26.1188 40.5594L27.0219 38.75H32.9781L33.8812 40.5594C33.9547 40.7063 34.0564 40.8373 34.1805 40.9449C34.3046 41.0525 34.4486 41.1347 34.6045 41.1866C34.7603 41.2386 34.9248 41.2593 35.0887 41.2477C35.2525 41.236 35.4125 41.1922 35.5594 41.1187C35.7063 41.0453 35.8373 40.9436 35.9449 40.8195C36.0525 40.6954 36.1347 40.5514 36.1866 40.3955C36.2386 40.2397 36.2593 40.0752 36.2477 39.9113C36.236 39.7475 36.1922 39.5875 36.1188 39.4406ZM47.5 35C47.5 34.6685 47.3683 34.3505 47.1339 34.1161C46.8995 33.8817 46.5815 33.75 46.25 33.75H43.75V31.25C43.75 30.9185 43.6183 30.6005 43.3839 30.3661C43.1495 30.1317 42.8315 30 42.5 30C42.1685 30 41.8505 30.1317 41.6161 30.3661C41.3817 30.6005 41.25 30.9185 41.25 31.25V33.75H38.75C38.4185 33.75 38.1005 33.8817 37.8661 34.1161C37.6317 34.3505 37.5 34.6685 37.5 35C37.5 35.3315 37.6317 35.6495 37.8661 35.8839C38.1005 36.1183 38.4185 36.25 38.75 36.25H41.25V38.75C41.25 39.0815 41.3817 39.3995 41.6161 39.6339C41.8505 39.8683 42.1685 40 42.5 40C42.8315 40 43.1495 39.8683 43.3839 39.6339C43.6183 39.3995 43.75 39.0815 43.75 38.75V36.25H46.25C46.5815 36.25 46.8995 36.1183 47.1339 35.8839C47.3683 35.6495 47.5 35.3315 47.5 35Z" fill="#FBFBFB"/>
<defs>
<linearGradient id="paint0_linear_1327_4345" x1="66" y1="7.5" x2="1.96695e-06" y2="70" gradientUnits="userSpaceOnUse">
<stop stop-color="#00964E"/>
<stop offset="0.598958" stop-color="#00ED7B"/>
</linearGradient>
</defs>
</svg>
