<svg width="90" height="301" viewBox="0 0 90 301" fill="none" xmlns="http://www.w3.org/2000/svg">
<path d="M0 263.019C0.843629 252.695 5.95079 243.042 14.297 235.998C22.6431 228.953 33.611 225.038 45 225.038C56.389 225.038 67.3565 228.953 75.7027 235.998C84.0488 243.042 89.1564 252.695 90 263.019C89.1564 273.344 84.0488 282.997 75.7027 290.041C67.3565 297.085 56.389 301 45 301C33.611 301 22.6431 297.085 14.297 290.041C5.95079 282.997 0.843629 273.344 0 263.019ZM1.36345 0H88.1402L73.6363 194.842H15.4958L1.36345 0Z" fill="#DF2B29"/>
</svg>
