<svg width="20" height="20" viewBox="0 0 20 20" fill="none" xmlns="http://www.w3.org/2000/svg">
<path d="M0.174805 1.5999C0.174805 1.28164 0.301233 0.976418 0.526276 0.751374C0.75132 0.526331 1.05654 0.399902 1.3748 0.399902H3.9584C4.24245 0.400033 4.51724 0.500919 4.7339 0.684614C4.95055 0.868309 5.09502 1.1229 5.1416 1.4031L6.0296 6.7251C6.07204 6.97856 6.03197 7.23895 5.91532 7.46794C5.79867 7.69693 5.61158 7.88242 5.38161 7.9971L3.524 8.9247C4.19013 10.5755 5.1822 12.075 6.44094 13.3338C7.69967 14.5925 9.19922 15.5846 10.85 16.2507L11.7788 14.3931C11.8934 14.1633 12.0787 13.9764 12.3075 13.8598C12.5362 13.7431 12.7963 13.7029 13.0496 13.7451L18.3716 14.6331C18.6518 14.6797 18.9064 14.8242 19.0901 15.0408C19.2738 15.2575 19.3747 15.5323 19.3748 15.8163V18.3999C19.3748 18.7182 19.2484 19.0234 19.0233 19.2484C18.7983 19.4735 18.4931 19.5999 18.1748 19.5999H15.7748C7.15881 19.5999 0.174805 12.6159 0.174805 3.9999V1.5999Z" fill="#FBFBFB"/>
</svg>
