<svg width="24" height="24" viewBox="0 0 24 24" fill="none" xmlns="http://www.w3.org/2000/svg">
<path d="M2.4043 7.06079L12.0007 11.8584L21.5971 7.06079C21.5616 6.44932 21.2936 5.87457 20.8481 5.45426C20.4026 5.03395 19.8132 4.79988 19.2007 4.79999H4.8007C4.1882 4.79988 3.59883 5.03395 3.15331 5.45426C2.70779 5.87457 2.43982 6.44932 2.4043 7.06079Z" fill="#FBFBFB"/>
<path d="M21.6004 9.74161L12.0004 14.5416L2.40039 9.74161V16.8C2.40039 17.4365 2.65325 18.047 3.10333 18.4971C3.55342 18.9472 4.16387 19.2 4.80039 19.2H19.2004C19.8369 19.2 20.4474 18.9472 20.8974 18.4971C21.3475 18.047 21.6004 17.4365 21.6004 16.8V9.74161Z" fill="#F9FAFC"/>
</svg>
