<svg width="26" height="21" viewBox="0 0 26 21" fill="none" xmlns="http://www.w3.org/2000/svg">
<path d="M23.375 10.625L25.125 12.3875L16.9625 20.625L12.625 16.25L14.375 14.4875L16.9625 17.0875L23.375 10.625ZM9.5 16.25L13.25 20H0.75V17.5C0.75 14.7375 5.225 12.5 10.75 12.5L13.1125 12.6375L9.5 16.25ZM10.75 0C12.0761 0 13.3479 0.526784 14.2855 1.46447C15.2232 2.40215 15.75 3.67392 15.75 5C15.75 6.32608 15.2232 7.59785 14.2855 8.53553C13.3479 9.47322 12.0761 10 10.75 10C9.42392 10 8.15215 9.47322 7.21447 8.53553C6.27678 7.59785 5.75 6.32608 5.75 5C5.75 3.67392 6.27678 2.40215 7.21447 1.46447C8.15215 0.526784 9.42392 0 10.75 0Z" fill="#077F7F"/>
</svg>
