<svg width="24" height="24" viewBox="0 0 24 24" fill="none" xmlns="http://www.w3.org/2000/svg">
<path fill-rule="evenodd" clip-rule="evenodd" d="M0.780273 0.780273H20.1553V3.90527H18.9053V2.03027H2.03027V16.4053H15.3971V17.6553H0.780273V0.780273ZM19.5303 8.90527C20.0276 8.90527 20.5045 8.70773 20.8561 8.3561C21.2077 8.00447 21.4053 7.52755 21.4053 7.03027C21.4053 6.53299 21.2077 6.05608 20.8561 5.70445C20.5045 5.35282 20.0276 5.15527 19.5303 5.15527C19.033 5.15527 18.5561 5.35282 18.2044 5.70445C17.8528 6.05608 17.6553 6.53299 17.6553 7.03027C17.6553 7.52755 17.8528 8.00447 18.2044 8.3561C18.5561 8.70773 19.033 8.90527 19.5303 8.90527ZM20.7996 10.1615C21.6115 10.1615 22.254 10.5265 22.6746 11.0903C23.0678 11.6184 23.234 12.2715 23.2715 12.8746C23.3083 13.4933 23.224 14.1132 23.0234 14.6996C22.8359 15.2434 22.519 15.8059 22.0303 16.1915V22.3428C22.0307 22.5783 21.9425 22.8054 21.7831 22.9789C21.6238 23.1523 21.405 23.2594 21.1702 23.2789C20.9355 23.2983 20.702 23.2287 20.5163 23.0839C20.3305 22.939 20.2061 22.7296 20.1678 22.4972L19.3615 17.6553H19.1753L18.264 22.5153C18.2208 22.7446 18.0935 22.9496 17.9071 23.0901C17.7207 23.2306 17.4886 23.2965 17.2561 23.275C17.0237 23.2534 16.8077 23.1459 16.6503 22.9735C16.493 22.8011 16.4056 22.5762 16.4053 22.3428V13.4259C16.2803 13.6163 16.1569 13.8078 16.0353 14.0003L15.9865 14.0771L15.974 14.0971L15.9709 14.1028C15.8867 14.238 15.7693 14.3496 15.63 14.4269C15.4907 14.5042 15.334 14.5447 15.1746 14.5446H12.0496C11.801 14.5446 11.5626 14.4459 11.3867 14.2701C11.2109 14.0942 11.1121 13.8558 11.1121 13.6071C11.1121 13.3585 11.2109 13.1201 11.3867 12.9442C11.5626 12.7684 11.801 12.6696 12.0496 12.6696H14.6603C14.8121 12.4346 15.0121 12.1296 15.2221 11.8234C15.4409 11.504 15.6821 11.1659 15.8971 10.9009C16.0015 10.7715 16.1184 10.6365 16.2359 10.5259C16.2934 10.4715 16.3734 10.4009 16.4709 10.3384C16.643 10.2255 16.8438 10.1643 17.0496 10.1621L20.7996 10.1615Z" fill="#077F7F"/>
</svg>
