<svg width="28" height="21" viewBox="0 0 28 21" fill="none" xmlns="http://www.w3.org/2000/svg">
<path d="M16.5303 7.40527V5.28027C17.2178 4.98861 17.9211 4.76986 18.6403 4.62402C19.3586 4.47819 20.1136 4.40527 20.9053 4.40527C21.4469 4.40527 21.9782 4.44694 22.499 4.53027C23.0199 4.61361 23.5303 4.71777 24.0303 4.84277V6.84277C23.5303 6.65527 23.0253 6.51486 22.5153 6.42152C22.0044 6.32736 21.4678 6.28027 20.9053 6.28027C20.1136 6.28027 19.3532 6.37944 18.624 6.57777C17.8949 6.77527 17.1969 7.05111 16.5303 7.40527ZM16.5303 14.2803V12.1553C17.2178 11.8636 17.9211 11.6449 18.6403 11.499C19.3586 11.3532 20.1136 11.2803 20.9053 11.2803C21.4469 11.2803 21.9782 11.3219 22.499 11.4053C23.0199 11.4886 23.5303 11.5928 24.0303 11.7178V13.7178C23.5303 13.5303 23.0253 13.3899 22.5153 13.2965C22.0044 13.2024 21.4678 13.1553 20.9053 13.1553C20.1136 13.1553 19.3532 13.249 18.624 13.4365C17.8949 13.624 17.1969 13.9053 16.5303 14.2803ZM16.5303 10.8428V8.71777C17.2178 8.42611 17.9211 8.20736 18.6403 8.06152C19.3586 7.91569 20.1136 7.84277 20.9053 7.84277C21.4469 7.84277 21.9782 7.88444 22.499 7.96777C23.0199 8.05111 23.5303 8.15527 24.0303 8.28027V10.2803C23.5303 10.0928 23.0253 9.95236 22.5153 9.85902C22.0044 9.76486 21.4678 9.71777 20.9053 9.71777C20.1136 9.71777 19.3532 9.81694 18.624 10.0153C17.8949 10.2128 17.1969 10.4886 16.5303 10.8428ZM15.2803 16.3428C16.1969 15.9053 17.119 15.5769 18.0465 15.3578C18.9732 15.1394 19.9261 15.0303 20.9053 15.0303C21.6553 15.0303 22.3899 15.0928 23.109 15.2178C23.8274 15.3428 24.5511 15.5303 25.2803 15.7803V3.40527C24.5928 3.11361 23.8794 2.89486 23.1403 2.74902C22.4003 2.60319 21.6553 2.53027 20.9053 2.53027C19.9261 2.53027 18.9574 2.65527 17.999 2.90527C17.0407 3.15527 16.1344 3.53027 15.2803 4.03027V16.3428ZM14.0303 20.0303C13.0303 19.2386 11.9469 18.624 10.7803 18.1865C9.61361 17.749 8.40527 17.5303 7.15527 17.5303C6.28027 17.5303 5.42111 17.6449 4.57777 17.874C3.73361 18.1032 2.92611 18.4261 2.15527 18.8428C1.71777 19.0719 1.29611 19.0615 0.890273 18.8115C0.483607 18.5615 0.280273 18.1969 0.280273 17.7178V2.65527C0.280273 2.42611 0.337773 2.20736 0.452773 1.99902C0.56694 1.79069 0.738607 1.63444 0.967773 1.53027C1.94694 1.05111 2.95236 0.681106 3.98402 0.420273C5.01486 0.160273 6.07194 0.0302734 7.15527 0.0302734C8.36361 0.0302734 9.54611 0.186523 10.7028 0.499023C11.8586 0.811523 12.9678 1.28027 14.0303 1.90527C15.0928 1.28027 16.2024 0.811523 17.359 0.499023C18.5149 0.186523 19.6969 0.0302734 20.9053 0.0302734C21.9886 0.0302734 23.0461 0.160273 24.0778 0.420273C25.1086 0.681106 26.1136 1.05111 27.0928 1.53027C27.3219 1.63444 27.494 1.79069 27.609 1.99902C27.7232 2.20736 27.7803 2.42611 27.7803 2.65527V17.7178C27.7803 18.1969 27.5774 18.5615 27.1715 18.8115C26.7649 19.0615 26.3428 19.0719 25.9053 18.8428C25.1344 18.4261 24.3269 18.1032 23.4828 17.874C22.6394 17.6449 21.7803 17.5303 20.9053 17.5303C19.6553 17.5303 18.4469 17.749 17.2803 18.1865C16.1136 18.624 15.0303 19.2386 14.0303 20.0303Z" fill="#077F7F"/>
</svg>
