<svg width="25" height="24" viewBox="0 0 25 24" fill="none" xmlns="http://www.w3.org/2000/svg">
<path d="M16.25 12C16.25 12.7417 16.0301 13.4667 15.618 14.0834C15.206 14.7001 14.6203 15.1807 13.9351 15.4645C13.2498 15.7484 12.4958 15.8226 11.7684 15.6779C11.041 15.5333 10.3728 15.1761 9.84835 14.6516C9.3239 14.1272 8.96675 13.459 8.82205 12.7316C8.67736 12.0042 8.75162 11.2502 9.03545 10.5649C9.31928 9.87971 9.79993 9.29404 10.4166 8.88199C11.0333 8.46993 11.7583 8.25 12.5 8.25C13.4936 8.25309 14.4456 8.64917 15.1482 9.35176C15.8508 10.0544 16.2469 11.0064 16.25 12ZM24.2188 6.84375V17.1562C24.2188 18.8967 23.5273 20.5659 22.2966 21.7966C21.0659 23.0273 19.3967 23.7188 17.6562 23.7188H7.34375C5.60327 23.7188 3.93407 23.0273 2.70336 21.7966C1.47265 20.5659 0.78125 18.8967 0.78125 17.1562V6.84375C0.78125 5.10327 1.47265 3.43407 2.70336 2.20336C3.93407 0.972654 5.60327 0.28125 7.34375 0.28125H17.6562C19.3967 0.28125 21.0659 0.972654 22.2966 2.20336C23.5273 3.43407 24.2188 5.10327 24.2188 6.84375ZM18.125 12C18.125 10.8875 17.7951 9.79994 17.177 8.87492C16.5589 7.94989 15.6804 7.22892 14.6526 6.80318C13.6248 6.37744 12.4938 6.26604 11.4026 6.48308C10.3115 6.70013 9.30919 7.23585 8.52252 8.02252C7.73585 8.80919 7.20013 9.81147 6.98308 10.9026C6.76604 11.9938 6.87744 13.1248 7.30318 14.1526C7.72892 15.1804 8.44989 16.0589 9.37492 16.677C10.2999 17.2951 11.3875 17.625 12.5 17.625C13.9918 17.625 15.4226 17.0324 16.4775 15.9775C17.5324 14.9226 18.125 13.4918 18.125 12ZM20 5.90625C20 5.62812 19.9175 5.35624 19.763 5.12498C19.6085 4.89372 19.3889 4.71348 19.1319 4.60704C18.8749 4.50061 18.5922 4.47276 18.3194 4.52702C18.0466 4.58128 17.796 4.71521 17.5994 4.91188C17.4027 5.10855 17.2688 5.35912 17.2145 5.6319C17.1603 5.90469 17.1881 6.18744 17.2945 6.4444C17.401 6.70136 17.5812 6.92098 17.8125 7.0755C18.0437 7.23003 18.3156 7.3125 18.5938 7.3125C18.9667 7.3125 19.3244 7.16434 19.5881 6.90062C19.8518 6.6369 20 6.27921 20 5.90625Z" fill="#00D8BB"/>
</svg>
