<svg width="802" height="603" viewBox="0 0 802 603" fill="none" xmlns="http://www.w3.org/2000/svg">
<path d="M153.592 166.056L154.023 166.958L153.592 166.056ZM188.613 48.187L187.844 47.5477L188.613 48.187ZM598.5 105.131L598.262 106.102L598.5 105.131ZM792.975 117.283L793.197 116.308L792.975 117.283ZM834 128.121H835V127.369L834.277 127.16L834 128.121ZM834 487.148L834.712 487.851L835 487.559V487.148H834ZM722.433 573.405L721.997 572.504L722.433 573.405ZM455.273 595.082L464.508 602.013L465.893 590.549L455.273 595.082ZM5.22146 204.026C5.62408 203.648 5.64399 203.016 5.26595 202.613C4.8879 202.21 4.25505 202.19 3.85243 202.568L5.22146 204.026ZM11.2049 195.922C10.7886 196.284 10.7452 196.916 11.1081 197.332C11.471 197.749 12.1027 197.792 12.519 197.429L11.2049 195.922ZM20.0578 191.1C20.4875 190.753 20.5546 190.124 20.2077 189.694C19.8608 189.264 19.2312 189.197 18.8015 189.544L20.0578 191.1ZM26.6458 183.483C26.2012 183.811 26.1063 184.437 26.4339 184.881C26.7615 185.326 27.3875 185.421 27.8322 185.093L26.6458 183.483ZM35.8852 179.487C36.3475 179.185 36.4775 178.565 36.1755 178.103C35.8734 177.64 35.2537 177.51 34.7914 177.813L35.8852 179.487ZM43.3123 172.681C42.8279 172.946 42.6501 173.553 42.9152 174.038C43.1804 174.522 43.7881 174.7 44.2726 174.435L43.3123 172.681ZM53.0682 170.229C53.5808 170.024 53.8296 169.441 53.624 168.929C53.4183 168.416 52.8361 168.167 52.3235 168.373L53.0682 170.229ZM61.9602 165.521C61.4161 165.615 61.0518 166.133 61.1465 166.677C61.2413 167.222 61.7591 167.586 62.3032 167.491L61.9602 165.521ZM71.3732 167.184C71.9246 167.216 72.397 166.794 72.4282 166.243C72.4595 165.691 72.0379 165.219 71.4865 165.188L71.3732 167.184ZM80.3058 166.049C79.7582 165.978 79.2562 166.364 79.1844 166.911C79.1127 167.459 79.4985 167.961 80.0461 168.033L80.3058 166.049ZM88.7071 169.335C89.2522 169.425 89.7663 169.055 89.8556 168.51C89.9449 167.965 89.5754 167.451 89.0304 167.362L88.7071 169.335ZM97.7036 168.803C97.1585 168.713 96.6445 169.083 96.5554 169.628C96.4664 170.173 96.836 170.687 97.3811 170.776L97.7036 168.803ZM106.101 172.094C106.648 172.168 107.151 171.784 107.225 171.236C107.299 170.689 106.914 170.186 106.367 170.112L106.101 172.094ZM115.05 171.057C114.5 171.014 114.018 171.425 113.975 171.975C113.931 172.526 114.342 173.007 114.893 173.051L115.05 171.057ZM123.754 173.41C124.307 173.409 124.754 172.96 124.752 172.408C124.751 171.855 124.302 171.409 123.75 171.41L123.754 173.41ZM132.417 170.948C131.868 171.008 131.472 171.501 131.531 172.051C131.591 172.6 132.085 172.996 132.634 172.937L132.417 170.948ZM141.415 171.424C141.952 171.295 142.283 170.755 142.154 170.218C142.025 169.681 141.485 169.351 140.948 169.48L141.415 171.424ZM149.19 166.884C148.677 167.087 148.424 167.668 148.627 168.182C148.829 168.695 149.41 168.948 149.924 168.745L149.19 166.884ZM158.199 164.731C158.674 164.45 158.831 163.836 158.549 163.361C158.267 162.886 157.653 162.73 157.178 163.012L158.199 164.731ZM164.423 157.575C164.023 157.957 164.009 158.59 164.391 158.989C164.772 159.388 165.405 159.403 165.804 159.021L164.423 157.575ZM171.753 151.588C172.037 151.114 171.882 150.5 171.408 150.217C170.934 149.933 170.32 150.088 170.037 150.562L171.753 151.588ZM173.637 142.304C173.477 142.832 173.777 143.39 174.305 143.55C174.834 143.709 175.392 143.41 175.552 142.881L173.637 142.304ZM177.417 133.618C177.482 133.069 177.089 132.572 176.541 132.508C175.992 132.443 175.495 132.836 175.431 133.384L177.417 133.618ZM175.971 124.225C175.965 124.778 176.408 125.23 176.96 125.236C177.512 125.242 177.965 124.8 177.971 124.247L175.971 124.225ZM177.792 114.913C177.769 114.361 177.303 113.932 176.752 113.955C176.2 113.978 175.771 114.444 175.794 114.996L177.792 114.913ZM175.323 105.731C175.353 106.283 175.824 106.706 176.375 106.676C176.927 106.646 177.35 106.175 177.32 105.624L175.323 105.731ZM176.903 96.3689C176.887 95.8169 176.425 95.3831 175.873 95.4C175.321 95.4169 174.887 95.8781 174.904 96.4301L176.903 96.3689ZM174.86 87.0878C174.845 87.6398 175.281 88.0995 175.833 88.1143C176.385 88.1292 176.845 87.6937 176.859 87.1417L174.86 87.0878ZM177.51 77.9762C177.577 77.428 177.186 76.9295 176.638 76.8627C176.09 76.7959 175.591 77.1862 175.525 77.7345L177.51 77.9762ZM177.25 68.4845C177.111 69.0191 177.432 69.5649 177.967 69.7036C178.501 69.8424 179.047 69.5215 179.186 68.9869L177.25 68.4845ZM182.178 60.385C182.404 59.8808 182.178 59.2893 181.673 59.064C181.169 58.8386 180.578 59.0647 180.352 59.5689L182.178 60.385ZM184.983 51.3195C184.67 51.7742 184.784 52.3969 185.239 52.7104C185.694 53.0238 186.316 52.9093 186.63 52.4545L184.983 51.3195ZM192.4 45.3345C192.77 44.9238 192.736 44.2915 192.325 43.9223C191.914 43.5531 191.282 43.5868 190.913 43.9975L192.4 45.3345ZM197.402 37.3175C197.002 37.6984 196.986 38.3314 197.367 38.7313C197.748 39.1312 198.381 39.1467 198.781 38.7658L197.402 37.3175ZM205.654 32.713C206.082 32.3644 206.147 31.7345 205.798 31.3062C205.45 30.8778 204.82 30.8131 204.391 31.1617L205.654 32.713ZM211.838 25.5666C211.384 25.8811 211.271 26.5041 211.586 26.9581C211.9 27.4121 212.523 27.5251 212.977 27.2106L211.838 25.5666ZM220.701 22.2804C221.177 22.0008 221.337 21.3881 221.057 20.9117C220.778 20.4354 220.165 20.2759 219.689 20.5555L220.701 22.2804ZM227.885 16.1374C227.39 16.3819 227.187 16.9815 227.431 17.4768C227.676 17.972 228.275 18.1753 228.771 17.9308L227.885 16.1374ZM237.13 14.1581C237.641 13.9482 237.885 13.3639 237.675 12.8531C237.465 12.3422 236.881 12.0983 236.37 12.3083L237.13 14.1581ZM245.088 9.05305C244.564 9.22964 244.283 9.79701 244.46 10.3203C244.637 10.8436 245.204 11.1246 245.727 10.9481L245.088 9.05305ZM254.512 8.27881C255.045 8.13407 255.36 7.58466 255.215 7.05168C255.071 6.5187 254.521 6.20398 253.988 6.34873L254.512 8.27881ZM263.027 4.16728C262.487 4.28192 262.142 4.81282 262.257 5.35308C262.371 5.89333 262.902 6.23836 263.443 6.12372L263.027 4.16728ZM272.481 4.45347C273.026 4.36711 273.399 3.85489 273.312 3.3094C273.226 2.76391 272.714 2.39171 272.168 2.47808L272.481 4.45347ZM281.379 1.24986C280.83 1.30978 280.433 1.80342 280.493 2.35245C280.553 2.90147 281.047 3.29797 281.596 3.23806L281.379 1.24986ZM290.762 2.44809C291.313 2.41288 291.731 1.93753 291.696 1.38637C291.661 0.835207 291.185 0.416946 290.634 0.452158L290.762 2.44809ZM299.912 0.0562115C299.36 0.0683498 298.922 0.525797 298.935 1.07795C298.947 1.6301 299.404 2.06787 299.956 2.05573L299.912 0.0562115ZM309.163 2.03528C309.715 2.04473 310.17 1.60474 310.18 1.05254C310.189 0.500333 309.749 0.0450234 309.197 0.0355739L309.163 2.03528ZM318.474 0.366428C317.922 0.336717 317.451 0.759698 317.421 1.31118C317.391 1.86267 317.814 2.33382 318.366 2.36353L318.474 0.366428ZM327.554 3.01994C328.104 3.06875 328.59 2.66236 328.639 2.11224C328.687 1.56212 328.281 1.07658 327.731 1.02777L327.554 3.01994ZM336.959 2.00147C336.411 1.93454 335.912 2.32469 335.845 2.8729C335.778 3.42112 336.169 3.91979 336.717 3.98673L336.959 2.00147ZM345.845 5.24896C346.391 5.33321 346.901 4.95902 346.986 4.4132C347.07 3.86738 346.696 3.35661 346.15 3.27237L345.845 5.24896ZM355.295 4.82828C354.752 4.72735 354.23 5.0857 354.129 5.62869C354.028 6.17167 354.386 6.69367 354.929 6.7946L355.295 4.82828ZM363.961 8.61452C364.501 8.73173 365.033 8.38923 365.15 7.84952C365.267 7.30982 364.925 6.77729 364.385 6.66008L363.961 8.61452ZM373.41 8.76172C372.874 8.62841 372.331 8.95481 372.198 9.49077C372.065 10.0267 372.391 10.5693 372.927 10.7026L373.41 8.76172ZM381.821 13.0586C382.353 13.2081 382.905 12.8984 383.054 12.3668C383.204 11.8351 382.894 11.2829 382.363 11.1333L381.821 13.0586ZM391.281 13.7957C390.754 13.6292 390.193 13.921 390.026 14.4476C389.859 14.9742 390.151 15.5361 390.678 15.7026L391.281 13.7957ZM399.418 18.6321C399.938 18.8169 400.51 18.5448 400.695 18.0243C400.88 17.5039 400.608 16.9321 400.087 16.7473L399.418 18.6321ZM408.744 20.0131C408.231 19.8074 407.649 20.0562 407.443 20.5688C407.238 21.0813 407.487 21.6636 407.999 21.8692L408.744 20.0131ZM416.47 25.5156C416.971 25.748 417.566 25.5303 417.798 25.0293C418.031 24.5283 417.813 23.9337 417.312 23.7013L416.47 25.5156ZM425.621 27.9491C425.142 27.6747 424.531 27.8407 424.257 28.32C423.982 28.7993 424.148 29.4103 424.628 29.6847L425.621 27.9491ZM432.285 34.6322C432.747 34.935 433.367 34.8061 433.67 34.3443C433.973 33.8824 433.844 33.2625 433.382 32.9597L432.285 34.6322ZM441.208 37.9121C440.737 37.6235 440.121 37.7713 439.833 38.2421C439.544 38.713 439.692 39.3287 440.163 39.6173L441.208 37.9121ZM448.164 44.3919C448.641 44.6697 449.253 44.5079 449.531 44.0305C449.809 43.5532 449.647 42.941 449.17 42.6633L448.164 44.3919ZM457.221 47.2442C456.738 46.9755 456.129 47.1489 455.861 47.6314C455.592 48.1139 455.765 48.7229 456.248 48.9916L457.221 47.2442ZM464.408 53.4449C464.895 53.7054 465.501 53.5219 465.762 53.0349C466.022 52.548 465.839 51.942 465.352 51.6814L464.408 53.4449ZM473.563 55.9926C473.072 55.7396 472.469 55.9324 472.216 56.4234C471.963 56.9143 472.155 57.5174 472.646 57.7704L473.563 55.9926ZM480.955 61.9749C481.45 62.2207 482.05 62.019 482.296 61.5244C482.542 61.0298 482.34 60.4296 481.845 60.1839L480.955 61.9749ZM490.167 64.2452C489.669 64.0065 489.071 64.2167 488.833 64.7147C488.594 65.2128 488.804 65.81 489.302 66.0487L490.167 64.2452ZM497.728 70.0153C498.23 70.247 498.824 70.0285 499.056 69.5272C499.287 69.0258 499.069 68.4316 498.568 68.1999L497.728 70.0153ZM507.001 72.0266C506.496 71.8019 505.905 72.0287 505.68 72.5332C505.456 73.0377 505.682 73.6289 506.187 73.8536L507.001 72.0266ZM514.717 77.581C515.225 77.7986 515.813 77.5634 516.03 77.0558C516.248 76.5482 516.013 75.9603 515.505 75.7427L514.717 77.581ZM524.047 79.3312C523.536 79.1209 522.952 79.3645 522.741 79.8752C522.531 80.3859 522.775 80.9704 523.286 81.1806L524.047 79.3312ZM531.914 84.6586C532.427 84.8612 533.008 84.609 533.211 84.0953C533.414 83.5815 533.161 83.0008 532.648 82.7981L531.914 84.6586ZM541.299 86.1352C540.782 85.9404 540.205 86.2014 540.01 86.7182C539.815 87.235 540.076 87.8118 540.593 88.0066L541.299 86.1352ZM549.321 91.2182C549.841 91.4048 550.413 91.1347 550.6 90.6149C550.786 90.095 550.516 89.5224 549.996 89.3358L549.321 91.2182ZM558.748 92.3959C558.226 92.218 557.657 92.4976 557.48 93.0204C557.302 93.5433 557.581 94.1114 558.104 94.2893L558.748 92.3959ZM566.937 97.2095C567.463 97.3782 568.026 97.0887 568.195 96.5628C568.363 96.0369 568.074 95.4738 567.548 95.3051L566.937 97.2095ZM576.398 98.0553C575.869 97.8964 575.311 98.1963 575.153 98.7252C574.994 99.2541 575.293 99.8118 575.822 99.9707L576.398 98.0553ZM584.759 102.562C585.291 102.71 585.843 102.399 585.991 101.868C586.14 101.336 585.829 100.784 585.297 100.635L584.759 102.562ZM594.248 103.034C593.713 102.897 593.168 103.219 593.031 103.754C592.893 104.289 593.216 104.834 593.751 104.971L594.248 103.034ZM602.628 107.131C603.167 107.253 603.703 106.915 603.825 106.377C603.947 105.838 603.609 105.302 603.07 105.18L602.628 107.131ZM611.722 106.982C611.18 106.879 610.656 107.235 610.553 107.778C610.45 108.321 610.806 108.844 611.349 108.947L611.722 106.982ZM620.154 110.459C620.7 110.543 621.21 110.168 621.294 109.622C621.378 109.077 621.003 108.566 620.457 108.482L620.154 110.459ZM629.232 109.671C628.684 109.607 628.187 109.999 628.122 110.548C628.057 111.096 628.45 111.593 628.998 111.658L629.232 109.671ZM637.866 112.549C638.417 112.595 638.9 112.186 638.946 111.635C638.992 111.085 638.583 110.602 638.033 110.556L637.866 112.549ZM646.878 111.151C646.326 111.122 645.856 111.546 645.828 112.098C645.799 112.65 646.224 113.12 646.775 113.148L646.878 111.151ZM655.677 113.476C656.23 113.489 656.687 113.052 656.7 112.5C656.713 111.947 656.275 111.49 655.723 111.477L655.677 113.476ZM664.594 111.567C664.041 111.568 663.594 112.017 663.595 112.569C663.596 113.121 664.045 113.568 664.597 113.567L664.594 111.567ZM673.501 113.462C674.053 113.45 674.491 112.993 674.479 112.441C674.468 111.888 674.01 111.45 673.458 111.462L673.501 113.462ZM682.332 111.208C681.78 111.228 681.348 111.691 681.367 112.243C681.387 112.795 681.85 113.227 682.402 113.207L682.332 111.208ZM691.29 112.859C691.842 112.835 692.27 112.369 692.247 111.817C692.224 111.265 691.757 110.837 691.206 110.86L691.29 112.859ZM700.085 110.474C699.534 110.498 699.106 110.965 699.13 111.517C699.154 112.069 699.62 112.496 700.172 112.473L700.085 110.474ZM709.047 112.108C709.599 112.087 710.029 111.623 710.008 111.071C709.987 110.519 709.523 110.088 708.971 110.109L709.047 112.108ZM717.87 109.821C717.318 109.836 716.882 110.295 716.896 110.847C716.91 111.399 717.37 111.835 717.922 111.821L717.87 109.821ZM726.787 111.665C727.339 111.661 727.783 111.21 727.779 110.657C727.774 110.105 727.323 109.661 726.771 109.666L726.787 111.665ZM735.69 109.69C735.137 109.682 734.683 110.123 734.675 110.676C734.667 111.228 735.108 111.682 735.66 111.69L735.69 109.69ZM744.509 111.935C745.061 111.958 745.527 111.529 745.55 110.977C745.573 110.425 745.144 109.959 744.592 109.936L744.509 111.935ZM753.506 110.439C752.955 110.399 752.477 110.814 752.437 111.365C752.398 111.916 752.812 112.394 753.363 112.434L753.506 110.439ZM762.175 113.209C762.724 113.266 763.216 112.867 763.273 112.318C763.331 111.769 762.932 111.277 762.382 111.219L762.175 113.209ZM771.241 112.296C770.694 112.22 770.189 112.602 770.113 113.149C770.038 113.696 770.419 114.201 770.966 114.277L771.241 112.296ZM779.724 115.646C780.268 115.74 780.786 115.376 780.881 114.832C780.975 114.288 780.611 113.77 780.067 113.675L779.724 115.646ZM788.815 115.352C788.274 115.239 787.744 115.585 787.631 116.126C787.518 116.666 787.865 117.196 788.405 117.309L788.815 115.352ZM797.9 119.47C798.436 119.6 798.977 119.271 799.107 118.734C799.238 118.197 798.908 117.657 798.372 117.526L797.9 119.47ZM808.677 120.133C808.143 119.993 807.596 120.313 807.457 120.848C807.317 121.382 807.637 121.928 808.172 122.068L808.677 120.133ZM818.416 124.805C818.949 124.95 819.498 124.636 819.644 124.103C819.789 123.57 819.475 123.021 818.942 122.875L818.416 124.805ZM829.17 125.709C828.639 125.56 828.087 125.869 827.937 126.401C827.787 126.933 828.097 127.485 828.629 127.635L829.17 125.709ZM833 132.609C833 133.161 833.448 133.609 834 133.609C834.552 133.609 835 133.161 835 132.609H833ZM835 141.585C835 141.032 834.552 140.585 834 140.585C833.448 140.585 833 141.032 833 141.585H835ZM833 150.56C833 151.113 833.448 151.56 834 151.56C834.552 151.56 835 151.113 835 150.56H833ZM835 159.536C835 158.984 834.552 158.536 834 158.536C833.448 158.536 833 158.984 833 159.536H835ZM833 168.512C833 169.064 833.448 169.512 834 169.512C834.552 169.512 835 169.064 835 168.512H833ZM835 177.487C835 176.935 834.552 176.487 834 176.487C833.448 176.487 833 176.935 833 177.487H835ZM833 186.463C833 187.015 833.448 187.463 834 187.463C834.552 187.463 835 187.015 835 186.463H833ZM835 195.439C835 194.887 834.552 194.439 834 194.439C833.448 194.439 833 194.887 833 195.439H835ZM833 204.414C833 204.967 833.448 205.414 834 205.414C834.552 205.414 835 204.967 835 204.414H833ZM835 213.39C835 212.838 834.552 212.39 834 212.39C833.448 212.39 833 212.838 833 213.39H835ZM833 222.366C833 222.918 833.448 223.366 834 223.366C834.552 223.366 835 222.918 835 222.366H833ZM835 231.341C835 230.789 834.552 230.341 834 230.341C833.448 230.341 833 230.789 833 231.341H835ZM833 240.317C833 240.869 833.448 241.317 834 241.317C834.552 241.317 835 240.869 835 240.317H833ZM835 249.293C835 248.741 834.552 248.293 834 248.293C833.448 248.293 833 248.741 833 249.293H835ZM833 258.268C833 258.821 833.448 259.268 834 259.268C834.552 259.268 835 258.821 835 258.268H833ZM835 267.244C835 266.692 834.552 266.244 834 266.244C833.448 266.244 833 266.692 833 267.244H835ZM833 276.22C833 276.772 833.448 277.22 834 277.22C834.552 277.22 835 276.772 835 276.22H833ZM835 285.195C835 284.643 834.552 284.195 834 284.195C833.448 284.195 833 284.643 833 285.195H835ZM833 294.171C833 294.723 833.448 295.171 834 295.171C834.552 295.171 835 294.723 835 294.171H833ZM835 303.147C835 302.594 834.552 302.147 834 302.147C833.448 302.147 833 302.594 833 303.147H835ZM833 312.122C833 312.675 833.448 313.122 834 313.122C834.552 313.122 835 312.675 835 312.122H833ZM835 321.098C835 320.546 834.552 320.098 834 320.098C833.448 320.098 833 320.546 833 321.098H835ZM833 330.074C833 330.626 833.448 331.074 834 331.074C834.552 331.074 835 330.626 835 330.074H833ZM835 339.049C835 338.497 834.552 338.049 834 338.049C833.448 338.049 833 338.497 833 339.049H835ZM833 348.025C833 348.577 833.448 349.025 834 349.025C834.552 349.025 835 348.577 835 348.025H833ZM835 357.001C835 356.448 834.552 356.001 834 356.001C833.448 356.001 833 356.448 833 357.001H835ZM833 365.976C833 366.529 833.448 366.976 834 366.976C834.552 366.976 835 366.529 835 365.976H833ZM835 374.952C835 374.4 834.552 373.952 834 373.952C833.448 373.952 833 374.4 833 374.952H835ZM833 383.928C833 384.48 833.448 384.928 834 384.928C834.552 384.928 835 384.48 835 383.928H833ZM835 392.903C835 392.351 834.552 391.903 834 391.903C833.448 391.903 833 392.351 833 392.903H835ZM833 401.879C833 402.431 833.448 402.879 834 402.879C834.552 402.879 835 402.431 835 401.879H833ZM835 410.855C835 410.302 834.552 409.855 834 409.855C833.448 409.855 833 410.302 833 410.855H835ZM833 419.83C833 420.383 833.448 420.83 834 420.83C834.552 420.83 835 420.383 835 419.83H833ZM835 428.806C835 428.254 834.552 427.806 834 427.806C833.448 427.806 833 428.254 833 428.806H835ZM833 437.782C833 438.334 833.448 438.782 834 438.782C834.552 438.782 835 438.334 835 437.782H833ZM835 446.757C835 446.205 834.552 445.757 834 445.757C833.448 445.757 833 446.205 833 446.757H835ZM833 455.733C833 456.285 833.448 456.733 834 456.733C834.552 456.733 835 456.285 835 455.733H833ZM835 464.709C835 464.157 834.552 463.709 834 463.709C833.448 463.709 833 464.157 833 464.709H835ZM833 473.684C833 474.237 833.448 474.684 834 474.684C834.552 474.684 835 474.237 835 473.684H833ZM835 482.66C835 482.108 834.552 481.66 834 481.66C833.448 481.66 833 482.108 833 482.66H835ZM830.189 489.52C829.795 489.907 829.789 490.54 830.176 490.934C830.562 491.329 831.196 491.335 831.59 490.948L830.189 489.52ZM825.213 497.106C825.613 496.725 825.628 496.092 825.247 495.692C824.867 495.292 824.234 495.276 823.834 495.657L825.213 497.106ZM817.376 501.727C816.971 502.102 816.947 502.735 817.323 503.14C817.699 503.545 818.331 503.568 818.736 503.193L817.376 501.727ZM812.209 509.177C812.618 508.807 812.65 508.174 812.279 507.765C811.908 507.356 811.276 507.324 810.866 507.695L812.209 509.177ZM804.272 513.596C803.858 513.962 803.819 514.594 804.185 515.008C804.551 515.422 805.183 515.46 805.596 515.095L804.272 513.596ZM798.934 520.91C799.352 520.549 799.399 519.918 799.038 519.499C798.678 519.081 798.046 519.034 797.628 519.395L798.934 520.91ZM790.896 525.118C790.473 525.472 790.418 526.103 790.773 526.526C791.127 526.95 791.758 527.005 792.181 526.65L790.896 525.118ZM785.342 532.303C785.77 531.954 785.835 531.325 785.486 530.896C785.137 530.468 784.507 530.404 784.079 530.752L785.342 532.303ZM777.192 536.273C776.758 536.615 776.684 537.244 777.026 537.677C777.368 538.111 777.997 538.185 778.43 537.843L777.192 536.273ZM771.418 543.278C771.857 542.943 771.942 542.316 771.608 541.877C771.273 541.437 770.646 541.352 770.207 541.686L771.418 543.278ZM763.131 546.966C762.685 547.292 762.588 547.917 762.914 548.363C763.24 548.809 763.866 548.906 764.312 548.58L763.131 546.966ZM757.095 553.738C757.548 553.422 757.659 552.798 757.343 552.345C757.027 551.893 756.404 551.782 755.951 552.098L757.095 553.738ZM748.65 557.061C748.189 557.366 748.062 557.986 748.367 558.447C748.672 558.908 749.292 559.034 749.753 558.73L748.65 557.061ZM742.285 563.515C742.754 563.224 742.899 562.608 742.608 562.138C742.317 561.669 741.701 561.524 741.231 561.815L742.285 563.515ZM733.651 566.334C733.171 566.608 733.005 567.219 733.279 567.698C733.553 568.178 734.164 568.344 734.644 568.07L733.651 566.334ZM726.839 572.319C727.33 572.066 727.523 571.463 727.269 570.972C727.016 570.481 726.413 570.289 725.922 570.542L726.839 572.319ZM717.959 574.392C717.456 574.619 717.232 575.211 717.459 575.715C717.687 576.218 718.279 576.442 718.782 576.215L717.959 574.392ZM710.413 579.745C710.927 579.543 711.179 578.962 710.977 578.448C710.774 577.935 710.194 577.682 709.68 577.885L710.413 579.745ZM701.241 581C700.719 581.18 700.442 581.749 700.623 582.271C700.803 582.793 701.372 583.07 701.894 582.89L701.241 581ZM693.257 585.689C693.786 585.528 694.084 584.97 693.923 584.441C693.763 583.913 693.204 583.615 692.676 583.775L693.257 585.689ZM684.01 586.244C683.477 586.387 683.16 586.935 683.302 587.468C683.445 588.002 683.993 588.319 684.526 588.176L684.01 586.244ZM675.745 590.378C676.283 590.252 676.616 589.714 676.49 589.176C676.363 588.638 675.825 588.305 675.288 588.431L675.745 590.378ZM666.499 590.369C665.958 590.48 665.611 591.009 665.722 591.55C665.834 592.091 666.363 592.439 666.904 592.327L666.499 590.369ZM658.011 594.047C658.555 593.949 658.915 593.429 658.817 592.885C658.719 592.342 658.199 591.981 657.655 592.079L658.011 594.047ZM648.767 593.582C648.221 593.668 647.849 594.18 647.935 594.725C648.021 595.271 648.533 595.643 649.078 595.557L648.767 593.582ZM640.115 596.874C640.662 596.799 641.045 596.295 640.971 595.748C640.896 595.2 640.392 594.817 639.845 594.892L640.115 596.874ZM630.9 596.025C630.352 596.089 629.959 596.586 630.023 597.134C630.088 597.683 630.584 598.075 631.133 598.011L630.9 596.025ZM622.136 598.984C622.685 598.929 623.087 598.439 623.032 597.89C622.978 597.34 622.488 596.939 621.938 596.993L622.136 598.984ZM612.956 597.81C612.405 597.855 611.996 598.338 612.041 598.889C612.087 599.439 612.57 599.849 613.12 599.803L612.956 597.81ZM604.094 600.479C604.645 600.442 605.062 599.966 605.024 599.414C604.987 598.863 604.511 598.447 603.96 598.484L604.094 600.479ZM594.958 599.024C594.406 599.054 593.983 599.524 594.012 600.076C594.041 600.627 594.512 601.051 595.063 601.022L594.958 599.024ZM586.034 601.437C586.586 601.416 587.016 600.951 586.994 600.399C586.973 599.847 586.508 599.417 585.956 599.439L586.034 601.437ZM576.934 599.736C576.382 599.75 575.946 600.21 575.961 600.762C575.975 601.314 576.435 601.75 576.987 601.735L576.934 599.736ZM567.933 601.92C568.485 601.912 568.927 601.458 568.919 600.905C568.911 600.353 568.457 599.912 567.904 599.92L567.933 601.92ZM558.875 599.997C558.323 599.998 557.877 600.447 557.878 601C557.88 601.552 558.329 601.998 558.881 601.997L558.875 599.997ZM549.833 601.971C550.385 601.976 550.837 601.532 550.841 600.98C550.846 600.428 550.402 599.976 549.85 599.972L549.833 601.971ZM540.828 599.848C540.276 599.837 539.82 600.277 539.81 600.829C539.799 601.381 540.238 601.837 540.79 601.848L540.828 599.848ZM531.753 601.629C532.305 601.645 532.765 601.211 532.781 600.659C532.798 600.107 532.363 599.646 531.811 599.63L531.753 601.629ZM522.796 599.32C522.244 599.298 521.779 599.728 521.757 600.28C521.736 600.832 522.165 601.297 522.717 601.318L522.796 599.32ZM513.681 600.918C514.233 600.945 514.702 600.52 514.729 599.968C514.756 599.417 514.331 598.947 513.779 598.92L513.681 600.918ZM504.759 598.432C504.207 598.399 503.734 598.82 503.701 599.371C503.669 599.922 504.089 600.396 504.641 600.428L504.759 598.432ZM495.599 599.85C496.15 599.888 496.628 599.472 496.666 598.921C496.704 598.37 496.288 597.893 495.737 597.855L495.599 599.85ZM486.733 597.191C486.182 597.147 485.701 597.558 485.657 598.109C485.614 598.659 486.025 599.141 486.576 599.184L486.733 597.191ZM477.636 598.434C478.186 598.483 478.672 598.077 478.721 597.527C478.77 596.977 478.364 596.491 477.814 596.442L477.636 598.434ZM468.751 595.583C468.202 595.528 467.712 595.929 467.656 596.478C467.601 597.028 468.002 597.518 468.551 597.573L468.751 595.583ZM459.631 596.615C460.179 596.678 460.675 596.285 460.738 595.736C460.802 595.188 460.408 594.692 459.859 594.628L459.631 596.615ZM1 206.701C1.70815 207.407 1.70814 207.407 1.70813 207.407C1.70813 207.407 1.70813 207.407 1.70813 207.407C1.70815 207.407 1.70818 207.407 1.70823 207.407C1.70834 207.407 1.70852 207.406 1.70878 207.406C1.7093 207.406 1.71014 207.405 1.71128 207.404C1.71357 207.401 1.7171 207.398 1.72187 207.393C1.7314 207.384 1.74586 207.369 1.76517 207.35C1.80381 207.311 1.86186 207.254 1.93873 207.178C2.09246 207.026 2.32143 206.801 2.62074 206.509C3.21938 205.927 4.09932 205.08 5.22146 204.026L3.85243 202.568C2.72093 203.631 1.83239 204.486 1.22597 205.076C0.922755 205.371 0.690043 205.6 0.532731 205.755C0.454074 205.833 0.394265 205.893 0.353914 205.933C0.333739 205.953 0.318428 205.968 0.308058 205.978C0.302873 205.984 0.298923 205.988 0.296218 205.99C0.294866 205.992 0.293824 205.993 0.293095 205.993C0.292731 205.994 0.292444 205.994 0.292236 205.994C0.292132 205.994 0.292048 205.994 0.291983 205.995C0.29195 205.995 0.291916 205.995 0.2919 205.995C0.291871 205.995 0.291847 205.995 1 206.701ZM12.519 197.429C14.7804 195.458 17.3187 193.312 20.0578 191.1L18.8015 189.544C16.0403 191.773 13.4826 193.936 11.2049 195.922L12.519 197.429ZM27.8322 185.093C30.4365 183.174 33.1368 181.282 35.8852 179.487L34.7914 177.813C32.0071 179.631 29.2758 181.545 26.6458 183.483L27.8322 185.093ZM44.2726 174.435C47.2297 172.816 50.1802 171.388 53.0682 170.229L52.3235 168.373C49.3474 169.567 46.3242 171.032 43.3123 172.681L44.2726 174.435ZM62.3032 167.491C63.9398 167.206 65.5224 167.056 67.0396 167.056V165.056C65.3916 165.056 63.6934 165.219 61.9602 165.521L62.3032 167.491ZM67.0396 167.056C68.4642 167.056 69.909 167.101 71.3732 167.184L71.4865 165.188C69.9892 165.103 68.5064 165.056 67.0396 165.056V167.056ZM80.0461 168.033C82.8813 168.404 85.7695 168.854 88.7071 169.335L89.0304 167.362C86.0846 166.879 83.1722 166.425 80.3058 166.049L80.0461 168.033ZM97.3811 170.776C100.254 171.246 103.164 171.7 106.101 172.094L106.367 170.112C103.457 169.721 100.568 169.271 97.7036 168.803L97.3811 170.776ZM114.893 173.051C117.828 173.283 120.785 173.416 123.754 173.41L123.75 171.41C120.843 171.416 117.941 171.285 115.05 171.057L114.893 173.051ZM132.634 172.937C135.557 172.619 138.486 172.128 141.415 171.424L140.948 169.48C138.108 170.161 135.263 170.639 132.417 170.948L132.634 172.937ZM149.924 168.745C151.293 168.205 152.66 167.611 154.023 166.958L153.16 165.154C151.839 165.787 150.516 166.362 149.19 166.884L149.924 168.745ZM154.023 166.958C155.5 166.251 156.891 165.508 158.199 164.731L157.178 163.012C155.923 163.757 154.585 164.472 153.16 165.154L154.023 166.958ZM165.804 159.021C168.213 156.721 170.17 154.234 171.753 151.588L170.037 150.562C168.545 153.055 166.7 155.4 164.423 157.575L165.804 159.021ZM175.552 142.881C176.449 139.906 177.042 136.807 177.417 133.618L175.431 133.384C175.066 136.481 174.494 139.462 173.637 142.304L175.552 142.881ZM177.971 124.247C178.005 121.188 177.924 118.068 177.792 114.913L175.794 114.996C175.925 118.133 176.004 121.214 175.971 124.225L177.971 124.247ZM177.32 105.624C177.155 102.549 176.998 99.4605 176.903 96.3689L174.904 96.4301C175 99.5464 175.158 102.655 175.323 105.731L177.32 105.624ZM176.859 87.1417C176.942 84.0614 177.142 81.0009 177.51 77.9762L175.525 77.7345C175.147 80.8333 174.945 83.9578 174.86 87.0878L176.859 87.1417ZM179.186 68.9869C179.945 66.0614 180.925 63.1888 182.178 60.385L180.352 59.5689C179.05 62.4832 178.035 65.4617 177.25 68.4845L179.186 68.9869ZM186.63 52.4545C187.476 51.2275 188.391 50.0176 189.382 48.8264L187.844 47.5477C186.815 48.7851 185.863 50.043 184.983 51.3195L186.63 52.4545ZM189.382 48.8264C190.372 47.6354 191.378 46.4716 192.4 45.3345L190.913 43.9975C189.874 45.1537 188.85 46.3369 187.844 47.5477L189.382 48.8264ZM198.781 38.7658C201.012 36.6403 203.305 34.6241 205.654 32.713L204.391 31.1617C202.003 33.1053 199.671 35.1559 197.402 37.3175L198.781 38.7658ZM212.977 27.2106C215.5 25.4626 218.076 23.8207 220.701 22.2804L219.689 20.5555C217.022 22.1207 214.403 23.7895 211.838 25.5666L212.977 27.2106ZM228.771 17.9308C231.516 16.5758 234.304 15.3198 237.13 14.1581L236.37 12.3083C233.503 13.4868 230.673 14.7615 227.885 16.1374L228.771 17.9308ZM245.727 10.9481C248.626 9.9699 251.556 9.0817 254.512 8.27881L253.988 6.34873C250.994 7.16178 248.026 8.0616 245.088 9.05305L245.727 10.9481ZM263.443 6.12372C266.437 5.48823 269.452 4.93302 272.481 4.45347L272.168 2.47808C269.106 2.96285 266.057 3.52432 263.027 4.16728L263.443 6.12372ZM281.596 3.23806C284.645 2.90532 287.702 2.64354 290.762 2.44809L290.634 0.452158C287.546 0.649449 284.459 0.913759 281.379 1.24986L281.596 3.23806ZM299.956 2.05573C303.031 1.98814 306.102 1.9829 309.163 2.03528L309.197 0.0355739C306.111 -0.0172378 303.014 -0.0119699 299.912 0.0562115L299.956 2.05573ZM318.366 2.36353C321.447 2.52953 324.512 2.74998 327.554 3.01994L327.731 1.02777C324.666 0.755834 321.578 0.533708 318.474 0.366428L318.366 2.36353ZM336.717 3.98673C339.792 4.36224 342.837 4.78479 345.845 5.24896L346.15 3.27237C343.122 2.80506 340.056 2.37961 336.959 2.00147L336.717 3.98673ZM354.929 6.7946C357.991 7.36375 361.004 7.97247 363.961 8.61452L364.385 6.66008C361.41 6.01386 358.377 5.40117 355.295 4.82828L354.929 6.7946ZM372.927 10.7026C375.97 11.4595 378.938 12.2474 381.821 13.0586L382.363 11.1333C379.46 10.3167 376.472 9.52354 373.41 8.76172L372.927 10.7026ZM390.678 15.7026C393.717 16.6637 396.635 17.6439 399.418 18.6321L400.087 16.7473C397.282 15.7513 394.342 14.7637 391.281 13.7957L390.678 15.7026ZM407.999 21.8692C411.064 23.0989 413.896 24.3214 416.47 25.5156L417.312 23.7013C414.703 22.491 411.838 21.2545 408.744 20.0131L407.999 21.8692ZM424.628 29.6847C426.071 30.5111 427.343 31.3034 428.434 32.0521L429.566 30.4028C428.421 29.6176 427.102 28.7967 425.621 27.9491L424.628 29.6847ZM428.434 32.0521C429.644 32.8821 430.929 33.7431 432.285 34.6322L433.382 32.9597C432.036 32.0775 430.763 31.2243 429.566 30.4028L428.434 32.0521ZM440.163 39.6173C442.671 41.155 445.343 42.7501 448.164 44.3919L449.17 42.6633C446.361 41.0287 443.703 39.4414 441.208 37.9121L440.163 39.6173ZM456.248 48.9916C458.87 50.4516 461.592 51.9382 464.408 53.4449L465.352 51.6814C462.546 50.18 459.833 48.6987 457.221 47.2442L456.248 48.9916ZM472.646 57.7704C475.347 59.1623 478.119 60.5655 480.955 61.9749L481.845 60.1839C479.018 58.7788 476.255 57.38 473.563 55.9926L472.646 57.7704ZM489.302 66.0487C492.06 67.3709 494.871 68.6945 497.728 70.0153L498.568 68.1999C495.718 66.883 492.917 65.5634 490.167 64.2452L489.302 66.0487ZM506.187 73.8536C508.993 75.1032 511.837 76.3468 514.717 77.581L515.505 75.7427C512.634 74.5123 509.798 73.2724 507.001 72.0266L506.187 73.8536ZM523.286 81.1806C526.133 82.3529 529.011 83.5133 531.914 84.6586L532.648 82.7981C529.754 81.6565 526.886 80.4998 524.047 79.3312L523.286 81.1806ZM540.593 88.0066C543.482 89.0956 546.392 90.1671 549.321 91.2182L549.996 89.3358C547.078 88.2884 544.178 87.2205 541.299 86.1352L540.593 88.0066ZM558.104 94.2893C561.035 95.2865 563.98 96.2608 566.937 97.2095L567.548 95.3051C564.603 94.3601 561.668 93.3894 558.748 92.3959L558.104 94.2893ZM575.822 99.9707C578.794 100.864 581.774 101.728 584.759 102.562L585.297 100.635C582.325 99.8058 579.358 98.9448 576.398 98.0553L575.822 99.9707ZM593.751 104.971C595.254 105.357 596.758 105.734 598.262 106.102L598.738 104.16C597.241 103.793 595.744 103.418 594.248 103.034L593.751 104.971ZM598.262 106.102C599.728 106.461 601.183 106.804 602.628 107.131L603.07 105.18C601.636 104.856 600.192 104.516 598.738 104.16L598.262 106.102ZM611.349 108.947C614.325 109.513 617.258 110.015 620.154 110.459L620.457 108.482C617.585 108.041 614.674 107.543 611.722 106.982L611.349 108.947ZM628.998 111.658C631.991 112.01 634.945 112.305 637.866 112.549L638.033 110.556C635.133 110.313 632.201 110.021 629.232 109.671L628.998 111.658ZM646.775 113.148C649.772 113.303 652.738 113.409 655.677 113.476L655.723 111.477C652.801 111.41 649.855 111.304 646.878 111.151L646.775 113.148ZM664.597 113.567C667.585 113.562 670.551 113.524 673.501 113.462L673.458 111.462C670.519 111.524 667.567 111.562 664.594 111.567L664.597 113.567ZM682.402 113.207C685.373 113.103 688.334 112.984 691.29 112.859L691.206 110.86C688.251 110.986 685.296 111.105 682.332 111.208L682.402 113.207ZM700.172 112.473C703.126 112.344 706.081 112.22 709.047 112.108L708.971 110.109C706 110.221 703.04 110.346 700.085 110.474L700.172 112.473ZM717.922 111.821C720.86 111.745 723.813 111.69 726.787 111.665L726.771 109.666C723.783 109.69 720.818 109.745 717.87 109.821L717.922 111.821ZM735.66 111.69C738.583 111.732 741.531 111.811 744.509 111.935L744.592 109.936C741.594 109.812 738.628 109.733 735.69 109.69L735.66 111.69ZM753.363 112.434C756.266 112.642 759.201 112.898 762.175 113.209L762.382 111.219C759.387 110.907 756.429 110.649 753.506 110.439L753.363 112.434ZM770.966 114.277C773.846 114.677 776.764 115.131 779.724 115.646L780.067 113.675C777.084 113.156 774.143 112.699 771.241 112.296L770.966 114.277ZM788.405 117.309C789.844 117.61 791.294 117.926 792.754 118.258L793.197 116.308C791.726 115.974 790.265 115.655 788.815 115.352L788.405 117.309ZM792.754 118.258C794.391 118.629 796.117 119.037 797.9 119.47L798.372 117.526C796.582 117.092 794.845 116.682 793.197 116.308L792.754 118.258ZM808.172 122.068C811.704 122.991 815.198 123.928 818.416 124.805L818.942 122.875C815.719 121.997 812.218 121.058 808.677 120.133L808.172 122.068ZM828.629 127.635C830.205 128.078 831.479 128.44 832.359 128.691C832.799 128.817 833.14 128.915 833.371 128.981C833.487 129.014 833.575 129.039 833.634 129.056C833.663 129.065 833.686 129.071 833.701 129.076C833.708 129.078 833.714 129.079 833.717 129.081C833.719 129.081 833.721 129.081 833.722 129.082C833.722 129.082 833.722 129.082 833.723 129.082C833.723 129.082 833.723 129.082 833.723 129.082C833.723 129.082 833.723 129.082 833.723 129.082C833.723 129.082 833.723 129.082 834 128.121C834.277 127.16 834.277 127.16 834.277 127.16C834.277 127.16 834.277 127.16 834.277 127.16C834.277 127.16 834.277 127.16 834.277 127.16C834.276 127.16 834.276 127.16 834.276 127.16C834.275 127.16 834.273 127.159 834.271 127.159C834.267 127.158 834.262 127.156 834.254 127.154C834.239 127.149 834.217 127.143 834.187 127.134C834.127 127.117 834.039 127.092 833.923 127.059C833.691 126.992 833.348 126.894 832.907 126.768C832.026 126.517 830.75 126.154 829.17 125.709L828.629 127.635ZM833 128.121V132.609H835V128.121H833ZM833 141.585V150.56H835V141.585H833ZM833 159.536V168.512H835V159.536H833ZM833 177.487V186.463H835V177.487H833ZM833 195.439V204.414H835V195.439H833ZM833 213.39V222.366H835V213.39H833ZM833 231.341V240.317H835V231.341H833ZM833 249.293V258.268H835V249.293H833ZM833 267.244V276.22H835V267.244H833ZM833 285.195V294.171H835V285.195H833ZM833 303.147V312.122H835V303.147H833ZM833 321.098V330.074H835V321.098H833ZM833 339.049V348.025H835V339.049H833ZM833 357.001V365.976H835V357.001H833ZM833 374.952V383.928H835V374.952H833ZM833 392.903V401.879H835V392.903H833ZM833 410.855V419.83H835V410.855H833ZM833 428.806V437.782H835V428.806H833ZM833 446.757V455.733H835V446.757H833ZM833 464.709V473.684H835V464.709H833ZM833 482.66V487.148H835V482.66H833ZM834 487.148C833.288 486.445 833.288 486.445 833.288 486.445C833.288 486.445 833.288 486.445 833.288 486.445C833.288 486.445 833.288 486.446 833.288 486.446C833.288 486.446 833.288 486.446 833.288 486.446C833.287 486.447 833.286 486.447 833.286 486.448C833.284 486.45 833.28 486.454 833.276 486.458C833.268 486.466 833.255 486.479 833.239 486.496C833.205 486.529 833.155 486.58 833.089 486.647C832.955 486.781 832.757 486.98 832.495 487.241C831.971 487.764 831.195 488.533 830.189 489.52L831.59 490.948C832.6 489.957 833.38 489.183 833.907 488.657C834.171 488.394 834.372 488.193 834.507 488.057C834.574 487.989 834.625 487.938 834.659 487.903C834.677 487.886 834.689 487.873 834.698 487.864C834.703 487.86 834.706 487.856 834.708 487.854C834.709 487.853 834.71 487.852 834.711 487.852C834.711 487.851 834.711 487.851 834.711 487.851C834.711 487.851 834.711 487.851 834.711 487.851C834.712 487.851 834.712 487.851 834.712 487.851C834.712 487.851 834.712 487.851 834 487.148ZM823.834 495.657C821.925 497.474 819.762 499.512 817.376 501.727L818.736 503.193C821.129 500.971 823.299 498.928 825.213 497.106L823.834 495.657ZM810.866 507.695C808.778 509.587 806.575 511.561 804.272 513.596L805.596 515.095C807.906 513.054 810.115 511.075 812.209 509.177L810.866 507.695ZM797.628 519.395C795.448 521.273 793.201 523.185 790.896 525.118L792.181 526.65C794.494 524.711 796.747 522.793 798.934 520.91L797.628 519.395ZM784.079 530.752C781.823 532.589 779.525 534.433 777.192 536.273L778.43 537.843C780.772 535.997 783.079 534.146 785.342 532.303L784.079 530.752ZM770.207 541.686C767.871 543.464 765.511 545.227 763.131 546.966L764.312 548.58C766.702 546.833 769.073 545.062 771.418 543.278L770.207 541.686ZM755.951 552.098C753.526 553.79 751.089 555.448 748.65 557.061L749.753 558.73C752.207 557.107 754.658 555.439 757.095 553.738L755.951 552.098ZM741.231 561.815C738.697 563.385 736.168 564.895 733.651 566.334L734.644 568.07C737.182 566.619 739.732 565.096 742.285 563.515L741.231 561.815ZM725.922 570.542C724.607 571.22 723.299 571.875 721.997 572.504L722.869 574.305C724.186 573.667 725.51 573.005 726.839 572.319L725.922 570.542ZM721.997 572.504C720.669 573.147 719.322 573.776 717.959 574.392L718.782 576.215C720.161 575.592 721.523 574.956 722.869 574.305L721.997 572.504ZM709.68 577.885C706.922 578.972 704.107 580.01 701.241 581L701.894 582.89C704.786 581.891 707.627 580.844 710.413 579.745L709.68 577.885ZM692.676 583.775C689.828 584.64 686.938 585.462 684.01 586.244L684.526 588.176C687.474 587.389 690.386 586.56 693.257 585.689L692.676 583.775ZM675.288 588.431C672.387 589.113 669.456 589.758 666.499 590.369L666.904 592.327C669.877 591.714 672.826 591.064 675.745 590.378L675.288 588.431ZM657.655 592.079C654.711 592.612 651.747 593.112 648.767 593.582L649.078 595.557C652.072 595.085 655.051 594.583 658.011 594.047L657.655 592.079ZM639.845 594.892C636.873 595.297 633.89 595.675 630.9 596.025L631.133 598.011C634.135 597.66 637.13 597.281 640.115 596.874L639.845 594.892ZM621.938 596.993C618.945 597.29 615.95 597.562 612.956 597.81L613.12 599.803C616.125 599.554 619.132 599.282 622.136 598.984L621.938 596.993ZM603.96 598.484C600.952 598.686 597.95 598.866 594.958 599.024L595.063 601.022C598.065 600.863 601.076 600.683 604.094 600.479L603.96 598.484ZM585.956 599.439C582.932 599.558 579.923 599.656 576.934 599.736L576.987 601.735C579.985 601.655 583.002 601.557 586.034 601.437L585.956 599.439ZM567.904 599.92C564.868 599.964 561.856 599.989 558.875 599.997L558.881 601.997C561.869 601.989 564.888 601.963 567.933 601.92L567.904 599.92ZM549.85 599.972C546.802 599.946 543.793 599.904 540.828 599.848L540.79 601.848C543.762 601.904 546.778 601.946 549.833 601.971L549.85 599.972ZM531.811 599.63C528.747 599.54 525.739 599.436 522.796 599.32L522.717 601.318C525.667 601.435 528.681 601.539 531.753 601.629L531.811 599.63ZM513.779 598.92C510.682 598.768 507.673 598.604 504.759 598.432L504.641 600.428C507.561 600.601 510.577 600.765 513.681 600.918L513.779 598.92ZM495.737 597.855C492.586 597.638 489.58 597.415 486.733 597.191L486.576 599.184C489.429 599.409 492.442 599.633 495.599 599.85L495.737 597.855ZM477.814 596.442C474.456 596.143 471.423 595.852 468.751 595.583L468.551 597.573C471.23 597.843 474.271 598.134 477.636 598.434L477.814 596.442Z" fill="#089898"/>
</svg>
