<svg width="31" height="30" viewBox="0 0 31 30" fill="none" xmlns="http://www.w3.org/2000/svg">
<path d="M9.17481 6.25C9.17447 6.91304 8.91076 7.54879 8.44169 8.0174C7.97261 8.48601 7.3366 8.74908 6.67356 8.74875C6.01051 8.74842 5.37476 8.48471 4.90615 8.01563C4.43755 7.54656 4.17447 6.91054 4.17481 6.2475C4.17514 5.58446 4.43885 4.9487 4.90792 4.4801C5.377 4.01149 6.01301 3.74842 6.67606 3.74875C7.3391 3.74908 7.97485 4.01279 8.44346 4.48187C8.91206 4.95094 9.17514 5.58696 9.17481 6.25ZM9.24981 10.6H4.2498V26.25H9.24981V10.6ZM17.1498 10.6H12.1748V26.25H17.0998V18.0375C17.0998 13.4625 23.0623 13.0375 23.0623 18.0375V26.25H27.9998V16.3375C27.9998 8.625 19.1748 8.9125 17.0998 12.7L17.1498 10.6Z" fill="#00D8BB"/>
</svg>
