<svg width="21" height="22" viewBox="0 0 21 22" fill="none" xmlns="http://www.w3.org/2000/svg">
<path d="M2.23633 6.58358L10.4815 10.7057L18.7267 6.58358C18.6962 6.05821 18.4659 5.56439 18.0831 5.20326C17.7004 4.84213 17.194 4.64102 16.6677 4.64111H4.2953C3.76905 4.64102 3.26267 4.84213 2.87988 5.20326C2.49709 5.56439 2.26685 6.05821 2.23633 6.58358Z" fill="#162A5A"/>
<path d="M18.7309 8.88721L10.4827 13.0113L2.23438 8.88721V14.9518C2.23438 15.4986 2.45163 16.0231 2.83834 16.4099C3.22505 16.7966 3.74955 17.0138 4.29644 17.0138H16.6689C17.2158 17.0138 17.7402 16.7966 18.127 16.4099C18.5137 16.0231 18.7309 15.4986 18.7309 14.9518V8.88721Z" fill="#252525"/>
</svg>
