<svg width="74" height="77" viewBox="0 0 74 77" fill="none" xmlns="http://www.w3.org/2000/svg">
<rect width="74" height="77" rx="6" fill="#EDF2FF"/>
<path d="M39.5 20.5C39.5 19.837 39.2366 19.2011 38.7678 18.7322C38.2989 18.2634 37.663 18 37 18C36.337 18 35.7011 18.2634 35.2322 18.7322C34.7634 19.2011 34.5 19.837 34.5 20.5V23C34.5 23.663 34.7634 24.2989 35.2322 24.7678C35.7011 25.2366 36.337 25.5 37 25.5C37.663 25.5 38.2989 25.2366 38.7678 24.7678C39.2366 24.2989 39.5 23.663 39.5 23V20.5ZM51.1425 27.3925C51.5979 26.921 51.8499 26.2895 51.8442 25.634C51.8385 24.9785 51.5756 24.3515 51.112 23.888C50.6485 23.4244 50.0215 23.1615 49.366 23.1558C48.7105 23.1501 48.079 23.4021 47.6075 23.8575L45.84 25.625C45.3846 26.0965 45.1326 26.728 45.1383 27.3835C45.144 28.039 45.4069 28.666 45.8705 29.1295C46.334 29.5931 46.961 29.856 47.6165 29.8617C48.272 29.8674 48.9035 29.6154 49.375 29.16L51.1425 27.3925ZM57 38C57 38.663 56.7366 39.2989 56.2678 39.7678C55.7989 40.2366 55.163 40.5 54.5 40.5H52C51.337 40.5 50.7011 40.2366 50.2322 39.7678C49.7634 39.2989 49.5 38.663 49.5 38C49.5 37.337 49.7634 36.7011 50.2322 36.2322C50.7011 35.7634 51.337 35.5 52 35.5H54.5C55.163 35.5 55.7989 35.7634 56.2678 36.2322C56.7366 36.7011 57 37.337 57 38ZM24.625 29.16C24.8556 29.3988 25.1315 29.5892 25.4365 29.7203C25.7415 29.8513 26.0695 29.9202 26.4015 29.9231C26.7334 29.926 27.0626 29.8628 27.3699 29.7371C27.6771 29.6114 27.9563 29.4257 28.191 29.191C28.4257 28.9563 28.6114 28.6771 28.7371 28.3699C28.8628 28.0626 28.926 27.7334 28.9231 27.4015C28.9202 27.0695 28.8513 26.7415 28.7203 26.4365C28.5892 26.1315 28.3988 25.8556 28.16 25.625L26.3925 23.8575C25.921 23.4021 25.2895 23.1501 24.634 23.1558C23.9785 23.1615 23.3515 23.4244 22.888 23.888C22.4244 24.3515 22.1615 24.9785 22.1558 25.634C22.1501 26.2895 22.4021 26.921 22.8575 27.3925L24.625 29.16ZM24.5 38C24.5 38.663 24.2366 39.2989 23.7678 39.7678C23.2989 40.2366 22.663 40.5 22 40.5H19.5C18.837 40.5 18.2011 40.2366 17.7322 39.7678C17.2634 39.2989 17 38.663 17 38C17 37.337 17.2634 36.7011 17.7322 36.2322C18.2011 35.7634 18.837 35.5 19.5 35.5H22C22.663 35.5 23.2989 35.7634 23.7678 36.2322C24.2366 36.7011 24.5 37.337 24.5 38ZM32 53V50.5H42V53C42 54.3261 41.4732 55.5979 40.5355 56.5355C39.5979 57.4732 38.3261 58 37 58C35.6739 58 34.4021 57.4732 33.4645 56.5355C32.5268 55.5979 32 54.3261 32 53ZM42 48C42.0375 47.15 42.52 46.385 43.1925 45.8525C44.8242 44.5656 46.0145 42.8024 46.5979 40.8079C47.1812 38.8134 47.1288 36.6866 46.4477 34.7233C45.7667 32.76 44.4909 31.0576 42.7977 29.8528C41.1046 28.648 39.0781 28.0006 37 28.0006C34.9219 28.0006 32.8954 28.648 31.2023 29.8528C29.5091 31.0576 28.2333 32.76 27.5523 34.7233C26.8712 36.6866 26.8188 38.8134 27.4021 40.8079C27.9855 42.8024 29.1758 44.5656 30.8075 45.8525C31.4825 46.385 31.9625 47.15 31.9975 48H42.0025H42Z" fill="#162A5A"/>
</svg>
