<svg width="22" height="14" viewBox="0 0 22 14" fill="none" xmlns="http://www.w3.org/2000/svg">
<path fill-rule="evenodd" clip-rule="evenodd" d="M13.9805 0.880623C14.2243 0.63691 14.5549 0.5 14.8996 0.5C15.2443 0.5 15.5749 0.63691 15.8187 0.880623L21.0187 6.08062C21.2624 6.32441 21.3993 6.65501 21.3993 6.99972C21.3993 7.34444 21.2624 7.67504 21.0187 7.91882L15.8187 13.1188C15.5735 13.3556 15.2451 13.4867 14.9043 13.4837C14.5634 13.4807 14.2374 13.344 13.9963 13.103C13.7553 12.862 13.6186 12.5359 13.6156 12.195C13.6127 11.8542 13.7437 11.5258 13.9805 11.2806L16.9614 8.29972H1.89961C1.55483 8.29972 1.22417 8.16276 0.980371 7.91896C0.736573 7.67516 0.599609 7.3445 0.599609 6.99972C0.599609 6.65494 0.736573 6.32428 0.980371 6.08048C1.22417 5.83669 1.55483 5.69972 1.89961 5.69972H16.9614L13.9805 2.71882C13.7368 2.47504 13.5999 2.14444 13.5999 1.79972C13.5999 1.45501 13.7368 1.12441 13.9805 0.880623Z" fill="#FBFBFB"/>
</svg>
