<svg width="24" height="24" viewBox="0 0 24 24" fill="none" xmlns="http://www.w3.org/2000/svg">
<g clip-path="url(#clip0_644_4564)">
<path d="M23.6504 19.4496C23.8837 19.0829 23.8837 18.7329 23.6504 18.3996L12.9504 1.34961C12.7504 1.01628 12.4504 0.849609 12.0504 0.849609C11.6504 0.849609 11.3504 1.01628 11.1504 1.34961L0.500391 18.3996C0.200391 18.7329 0.200391 19.0829 0.500391 19.4496C0.700391 19.8163 0.983724 19.9996 1.35039 19.9996H22.6504C23.0504 19.9996 23.3837 19.8163 23.6504 19.4496ZM17.2504 12.2996L13.6004 17.8496H9.65039L15.2004 9.09961L17.2504 12.2996ZM12.0004 3.89961L14.0504 7.09961L7.20039 17.8496H3.25039L12.0004 3.89961ZM16.1504 17.8496L18.5004 14.2496L20.7504 17.8496H16.1504Z" fill="#252525"/>
</g>
<defs>
<clipPath id="clip0_644_4564">
<rect width="24" height="22.4" fill="white" transform="translate(0 0.799805)"/>
</clipPath>
</defs>
</svg>
