<svg width="956" height="360" viewBox="0 0 956 360" fill="none" xmlns="http://www.w3.org/2000/svg">
<path d="M-50 194.778C23.85 -154.259 41.4333 -154.259 2.75 194.778C-25.9505 363.667 -8.3672 363.667 55.5 194.778C129.35 25.8889 146.933 25.8889 108.25 194.778C53.4486 504.407 71.0319 504.407 161 194.778C234.85 -114.852 252.433 -114.852 213.75 194.778C186.965 313.938 204.548 313.938 266.5 194.778C340.35 75.6173 357.933 75.6173 319.25 194.778C250.412 499.716 267.995 499.716 372 194.778C445.85 -110.161 463.433 -110.161 424.75 194.778C398.445 304.556 416.029 304.556 477.5 194.778C551.35 85 568.933 85 530.25 194.778C480.656 366.481 498.239 366.481 583 194.778C656.85 23.0741 674.433 23.0741 635.75 194.778C592.733 404.951 610.317 404.951 688.5 194.778C762.35 -15.3951 779.933 -15.3951 741.25 194.778C693.673 501.593 711.256 501.593 794 194.778C867.85 -112.037 885.433 -112.037 846.75 194.778C818.063 343.025 835.646 343.025 899.5 194.778C973.35 46.5309 990.933 46.5309 952.25 194.778C919.075 300.802 936.659 300.802 1005 194.778" stroke="#FBFBFB" stroke-opacity="0.1" stroke-width="2"/>
</svg>
