<svg width="22" height="22" viewBox="0 0 22 22" fill="none" xmlns="http://www.w3.org/2000/svg">
<path d="M2.58008 3.61062C2.58008 3.33718 2.6887 3.07493 2.88206 2.88157C3.07542 2.68822 3.33767 2.57959 3.61111 2.57959H5.83093C6.07498 2.5797 6.31108 2.66638 6.49723 2.82421C6.68338 2.98204 6.80751 3.20079 6.84753 3.44153L7.6105 8.01417C7.64695 8.23195 7.61253 8.45567 7.5123 8.65241C7.41207 8.84916 7.25133 9.00853 7.05374 9.10707L5.4577 9.90406C6.03003 11.3224 6.88241 12.6108 7.96391 13.6923C9.0454 14.7738 10.3338 15.6262 11.7522 16.1985L12.5502 14.6025C12.6487 14.4051 12.8079 14.2445 13.0044 14.1443C13.2009 14.044 13.4244 14.0095 13.642 14.0457L18.2147 14.8087C18.4554 14.8487 18.6742 14.9728 18.832 15.159C18.9898 15.3451 19.0765 15.5812 19.0766 15.8253V18.0451C19.0766 18.3186 18.968 18.5808 18.7746 18.7742C18.5813 18.9675 18.319 19.0761 18.0456 19.0761H15.9835C8.5807 19.0761 2.58008 13.0755 2.58008 5.67269V3.61062Z" fill="#162A5A"/>
</svg>
