<svg width="103" height="177" viewBox="0 0 103 177" fill="none" xmlns="http://www.w3.org/2000/svg">
<path d="M100.501 100.5L99.5229 100.292L100.501 100.5ZM1.00098 173L12.0244 176.438L9.48977 165.172L1.00098 173ZM0.625271 2.42674C1.85858 2.92673 3.13098 3.45566 4.43813 4.01267L5.22216 2.17275C3.9045 1.61127 2.62123 1.07781 1.37668 0.573261L0.625271 2.42674ZM12.0042 7.3785C14.4215 8.49757 16.9157 9.69307 19.4655 10.9607L20.3558 9.16975C17.7894 7.8939 15.2784 6.69039 12.8444 5.56355L12.0042 7.3785ZM26.8263 14.7445C29.2245 16.0184 31.6518 17.3484 34.092 18.7313L35.0781 16.9914C32.6216 15.5991 30.1783 14.2603 27.7645 12.9782L26.8263 14.7445ZM41.2408 22.9178C43.5871 24.3377 45.9305 25.8031 48.2571 27.3111L49.3449 25.6328C47.0002 24.1131 44.6393 22.6368 42.2764 21.2068L41.2408 22.9178ZM55.1274 31.9284C57.395 33.5099 59.6318 35.1306 61.8238 36.7875L63.0298 35.192C60.8162 33.5188 58.5587 31.8832 56.2715 30.2879L55.1274 31.9284ZM68.31 41.9117C70.4534 43.6848 72.5345 45.4927 74.5384 47.3322L75.8909 45.8588C73.8598 43.9944 71.7526 42.164 69.5848 40.3706L68.31 41.9117ZM80.4487 53.0928C82.3879 55.1075 84.2225 57.1534 85.9351 59.2266L87.477 57.9529C85.7294 55.8373 83.8608 53.7537 81.8897 51.7058L80.4487 53.0928ZM90.865 65.7829C92.4363 68.1033 93.8396 70.4499 95.0531 72.8178L96.833 71.9057C95.5789 69.4584 94.1331 67.0421 92.521 64.6615L90.865 65.7829ZM98.2171 80.3252C99.0779 82.9419 99.6872 85.5769 100.018 88.2249L102.003 87.9768C101.655 85.1907 101.015 82.4295 100.117 79.7003L98.2171 80.3252ZM100.141 96.2974C100.012 97.6257 99.8071 98.9573 99.5229 100.292L101.479 100.708C101.779 99.3 101.995 97.8939 102.132 96.4908L100.141 96.2974ZM99.5229 100.292C99.2463 101.59 98.922 102.871 98.5523 104.133L100.472 104.695C100.855 103.386 101.192 102.057 101.479 100.708L99.5229 100.292ZM95.7775 111.556C94.6805 113.956 93.4171 116.284 92.0059 118.541L93.7017 119.601C95.1562 117.275 96.4614 114.871 97.5965 112.387L95.7775 111.556ZM87.4025 125.03C85.7617 127.09 83.9984 129.084 82.1303 131.01L83.5661 132.402C85.4762 130.433 87.2829 128.391 88.9671 126.276L87.4025 125.03ZM76.3293 136.501C74.3332 138.243 72.2552 139.922 70.1116 141.537L71.3154 143.134C73.4945 141.492 75.6097 139.784 77.6442 138.008L76.3293 136.501ZM63.5638 146.155C61.3358 147.628 59.0602 149.04 56.7528 150.391L57.7634 152.117C60.1001 150.748 62.4066 149.318 64.6666 147.824L63.5638 146.155ZM49.7297 154.274C47.3413 155.522 44.937 156.707 42.5333 157.831L43.3806 159.643C45.8094 158.507 48.24 157.309 50.6556 156.047L49.7297 154.274ZM35.1864 161.085C32.6696 162.14 30.1727 163.126 27.7154 164.046L28.4163 165.919C30.897 164.991 33.4178 163.995 35.9594 162.93L35.1864 161.085ZM20.1397 166.717C17.4932 167.594 14.9232 168.386 12.4576 169.095L13.0104 171.017C15.5014 170.301 18.0967 169.501 20.7686 168.616L20.1397 166.717Z" fill="black"/>
</svg>
