<svg width="102" height="176" viewBox="0 0 102 176" fill="none" xmlns="http://www.w3.org/2000/svg">
<path d="M1.80762 100L2.78568 99.7917L1.80762 100ZM101.308 172.5L90.2842 175.938L92.8188 164.672L101.308 172.5ZM101.683 1.92674C100.45 2.42673 99.1776 2.95566 97.8705 3.51267L97.0864 1.67275C98.4041 1.11127 99.6874 0.577807 100.932 0.0732607L101.683 1.92674ZM90.3044 6.8785C87.8871 7.99757 85.3929 9.19307 82.8431 10.4607L81.9528 8.66975C84.5192 7.3939 87.0302 6.19039 89.4642 5.06355L90.3044 6.8785ZM75.4823 14.2445C73.0841 15.5184 70.6568 16.8484 68.2166 18.2313L67.2305 16.4914C69.687 15.0991 72.1303 13.7603 74.5441 12.4782L75.4823 14.2445ZM61.0677 22.4178C58.7215 23.8377 56.3781 25.3031 54.0515 26.8111L52.9637 25.1328C55.3084 23.6131 57.6693 22.1368 60.0322 20.7068L61.0677 22.4178ZM47.1812 31.4284C44.9136 33.0099 42.6768 34.6306 40.4847 36.2875L39.2788 34.692C41.4924 33.0188 43.7499 31.3832 46.0371 29.7879L47.1812 31.4284ZM33.9986 41.4117C31.8552 43.1848 29.7741 44.9927 27.7702 46.8322L26.4177 45.3588C28.4488 43.4944 30.556 41.664 32.7238 39.8706L33.9986 41.4117ZM21.8599 52.5928C19.9207 54.6075 18.0861 56.6534 16.3735 58.7266L14.8316 57.4529C16.5792 55.3373 18.4478 53.2537 20.4189 51.2058L21.8599 52.5928ZM11.4436 65.2829C9.87225 67.6033 8.46896 69.9499 7.25547 72.3178L5.47557 71.4057C6.72971 68.9584 8.17545 66.5421 9.78762 64.1615L11.4436 65.2829ZM4.09148 79.8252C3.23074 82.4419 2.62137 85.0769 2.29029 87.7249L0.30574 87.4768C0.654091 84.6907 1.29385 81.9295 2.19164 79.2003L4.09148 79.8252ZM2.16767 95.7974C2.29674 97.1257 2.50151 98.4573 2.78568 99.7917L0.829552 100.208C0.529648 98.8 0.313377 97.3939 0.177048 95.9908L2.16767 95.7974ZM2.78568 99.7917C3.06226 101.09 3.38655 102.371 3.75626 103.633L1.83688 104.195C1.4533 102.886 1.1167 101.557 0.829552 100.208L2.78568 99.7917ZM6.53108 111.056C7.6281 113.456 8.89149 115.784 10.3027 118.041L8.6069 119.101C7.15237 116.775 5.84718 114.371 4.71207 111.887L6.53108 111.056ZM14.9061 124.53C16.5469 126.59 18.3102 128.584 20.1783 130.51L18.7425 131.902C16.8323 129.933 15.0257 127.891 13.3415 125.776L14.9061 124.53ZM25.9793 136.001C27.9754 137.743 30.0534 139.422 32.197 141.037L30.9931 142.634C28.8141 140.992 26.6989 139.284 24.6644 137.508L25.9793 136.001ZM38.7448 145.655C40.9728 147.128 43.2484 148.54 45.5558 149.891L44.5452 151.617C42.2085 150.248 39.902 148.818 37.642 147.324L38.7448 145.655ZM52.5789 153.774C54.9673 155.022 57.3716 156.207 59.7753 157.331L58.928 159.143C56.4992 158.007 54.0686 156.809 51.653 155.547L52.5789 153.774ZM67.1221 160.585C69.639 161.64 72.1358 162.626 74.5932 163.546L73.8923 165.419C71.4116 164.491 68.8907 163.495 66.3492 162.43L67.1221 160.585ZM82.1689 166.217C84.8154 167.094 87.3854 167.886 89.851 168.595L89.2982 170.517C86.8072 169.801 84.2119 169.001 81.54 168.116L82.1689 166.217Z" fill="black"/>
</svg>
