<svg width="20" height="13" viewBox="0 0 20 13" fill="none" xmlns="http://www.w3.org/2000/svg">
<path fill-rule="evenodd" clip-rule="evenodd" d="M12.5587 0.779355C12.7764 0.561716 13.0717 0.439453 13.3795 0.439453C13.6873 0.439453 13.9826 0.561716 14.2003 0.779355L18.8439 5.42303C19.0616 5.64074 19.1838 5.93597 19.1838 6.2438C19.1838 6.55164 19.0616 6.84687 18.8439 7.06457L14.2003 11.7083C13.9813 11.9197 13.6881 12.0367 13.3837 12.0341C13.0793 12.0314 12.7881 11.9094 12.5729 11.6941C12.3576 11.4789 12.2355 11.1877 12.2329 10.8833C12.2302 10.5789 12.3472 10.2857 12.5587 10.0667L15.2207 7.40472H1.77029C1.4624 7.40472 1.16712 7.28241 0.9494 7.0647C0.731686 6.84698 0.609375 6.5517 0.609375 6.2438C0.609375 5.93591 0.731686 5.64062 0.9494 5.42291C1.16712 5.20519 1.4624 5.08288 1.77029 5.08288H15.2207L12.5587 2.42089C12.3411 2.20319 12.2188 1.90796 12.2188 1.60012C12.2188 1.29229 12.3411 0.997059 12.5587 0.779355Z" fill="#162A5A"/>
</svg>
