<svg width="22" height="14" viewBox="0 0 22 14" fill="none" xmlns="http://www.w3.org/2000/svg">
<path fill-rule="evenodd" clip-rule="evenodd" d="M8.01941 13.1187C7.77562 13.3625 7.44502 13.4994 7.10031 13.4994C6.7556 13.4994 6.42499 13.3625 6.18121 13.1187L0.981208 7.91875C0.737496 7.67496 0.600586 7.34436 0.600586 6.99965C0.600586 6.65494 0.737496 6.32434 0.981208 6.08055L6.18121 0.880551C6.42639 0.643745 6.75477 0.512712 7.09563 0.515674C7.43649 0.518636 7.76254 0.655356 8.00357 0.896387C8.2446 1.13742 8.38132 1.46347 8.38428 1.80433C8.38725 2.14518 8.25621 2.47357 8.01941 2.71875L5.03851 5.69965H20.1003C20.4451 5.69965 20.7758 5.83661 21.0195 6.08041C21.2633 6.32421 21.4003 6.65487 21.4003 6.99965C21.4003 7.34443 21.2633 7.67509 21.0195 7.91889C20.7758 8.16269 20.4451 8.29965 20.1003 8.29965H5.03851L8.01941 11.2806C8.26312 11.5243 8.40003 11.8549 8.40003 12.1996C8.40003 12.5444 8.26312 12.875 8.01941 13.1187Z" fill="#EDF2FF"/>
</svg>
