<svg width="37" height="29" viewBox="0 0 37 29" fill="none" xmlns="http://www.w3.org/2000/svg">
<path d="M0.472 27.624C0.472 22.76 1.19733 18.152 2.648 13.8C4.09867 9.36266 6.27467 4.968 9.176 0.615997L15.32 3.432C13.1867 7.528 11.6933 11.2827 10.84 14.696C10.072 18.1093 9.688 21.3093 9.688 24.296C9.688 25.2347 9.688 26.0453 9.688 26.728C9.688 27.4107 9.73067 28.136 9.816 28.904H0.472V27.624ZM21.208 27.624C21.208 22.76 21.9333 18.152 23.384 13.8C24.8347 9.36266 27.0107 4.968 29.912 0.615997L36.056 3.432C33.9227 7.528 32.4293 11.2827 31.576 14.696C30.808 18.1093 30.424 21.3093 30.424 24.296C30.424 25.2347 30.424 26.0453 30.424 26.728C30.424 27.4107 30.4667 28.136 30.552 28.904H21.208V27.624Z" fill="#252525"/>
</svg>
