<svg width="20" height="14" viewBox="0 0 20 14" fill="none" xmlns="http://www.w3.org/2000/svg">
<path d="M19.68 0.183999C19.744 0.631999 19.792 1.096 19.824 1.576C19.856 2.056 19.872 2.408 19.872 2.632C19.872 4.776 19.488 6.824 18.72 8.776C17.952 10.696 17.008 12.328 15.888 13.672L11.04 12.568C11.648 11.192 12.128 9.64 12.48 7.912C12.864 6.152 13.056 4.488 13.056 2.92C13.056 2.856 13.056 2.728 13.056 2.536C13.056 2.312 13.04 2.072 13.008 1.816C13.008 1.528 12.992 1.24 12.96 0.951998C12.96 0.663998 12.944 0.407998 12.912 0.183999H19.68ZM9.36 0.183999C9.424 0.631999 9.472 1.096 9.504 1.576C9.536 2.056 9.552 2.408 9.552 2.632C9.552 4.776 9.168 6.824 8.4 8.776C7.632 10.696 6.688 12.328 5.568 13.672L0.72 12.568C1.328 11.192 1.808 9.64 2.16 7.912C2.544 6.152 2.736 4.488 2.736 2.92C2.736 2.856 2.736 2.728 2.736 2.536C2.736 2.312 2.72 2.072 2.688 1.816C2.688 1.528 2.672 1.24 2.64 0.951998C2.64 0.663998 2.624 0.407998 2.592 0.183999H9.36Z" fill="#162A5A" fill-opacity="0.5"/>
</svg>
