<svg width="44" height="44" viewBox="0 0 44 44" fill="none" xmlns="http://www.w3.org/2000/svg">
<g filter="url(#filter0_d_351_1868)">
<rect x="2" y="1" width="39.443" height="39.443" rx="5.37859" fill="#FBFBFB"/>
<path fill-rule="evenodd" clip-rule="evenodd" d="M19.5695 14.2673C18.4283 14.2673 17.3339 14.7206 16.527 15.5275C15.72 16.3345 15.2667 17.4289 15.2667 18.5701C15.2667 19.7113 15.72 20.8058 16.527 21.6127C17.3339 22.4197 18.4283 22.873 19.5695 22.873C20.7107 22.873 21.8052 22.4197 22.6121 21.6127C23.4191 20.8058 23.8724 19.7113 23.8724 18.5701C23.8724 17.4289 23.4191 16.3345 22.6121 15.5275C21.8052 14.7206 20.7107 14.2673 19.5695 14.2673ZM13.1152 18.5701C13.1151 17.5543 13.3547 16.5528 13.8146 15.6471C14.2745 14.7414 14.9417 13.957 15.7619 13.3578C16.5821 12.7585 17.5322 12.3613 18.5349 12.1985C19.5375 12.0356 20.5645 12.1117 21.5322 12.4206C22.4998 12.7295 23.381 13.2624 24.1039 13.976C24.8268 14.6897 25.371 15.5638 25.6924 16.5275C26.0137 17.4911 26.1031 18.517 25.9532 19.5217C25.8033 20.5263 25.4184 21.4814 24.8298 22.3093L30.0115 27.4911C30.2075 27.6939 30.3159 27.9657 30.3135 28.2477C30.311 28.5298 30.1979 28.7996 29.9984 28.999C29.799 29.1985 29.5292 29.3116 29.2471 29.314C28.9651 29.3165 28.6934 29.2081 28.4905 29.0121L23.3098 23.8315C22.3442 24.5181 21.2082 24.9256 20.0264 25.0095C18.8445 25.0934 17.6624 24.8503 16.6095 24.3069C15.5566 23.7635 14.6736 22.9408 14.0573 21.9289C13.4409 20.917 13.115 19.755 13.1152 18.5701Z" fill="#056565"/>
</g>
<defs>
<filter id="filter0_d_351_1868" x="0.207137" y="0.103568" width="43.0291" height="43.0286" filterUnits="userSpaceOnUse" color-interpolation-filters="sRGB">
<feFlood flood-opacity="0" result="BackgroundImageFix"/>
<feColorMatrix in="SourceAlpha" type="matrix" values="0 0 0 0 0 0 0 0 0 0 0 0 0 0 0 0 0 0 127 0" result="hardAlpha"/>
<feOffset dy="0.896432"/>
<feGaussianBlur stdDeviation="0.896432"/>
<feColorMatrix type="matrix" values="0 0 0 0 0 0 0 0 0 0 0 0 0 0 0 0 0 0 0.05 0"/>
<feBlend mode="normal" in2="BackgroundImageFix" result="effect1_dropShadow_351_1868"/>
<feBlend mode="normal" in="SourceGraphic" in2="effect1_dropShadow_351_1868" result="shape"/>
</filter>
</defs>
</svg>
