<svg width="18" height="21" viewBox="0 0 18 21" fill="none" xmlns="http://www.w3.org/2000/svg">
<path d="M15 14.3041C14.24 14.3041 13.56 14.6041 13.04 15.0741L5.91 10.9241C5.96 10.6941 6 10.4641 6 10.2241C6 9.98412 5.96 9.75412 5.91 9.52412L12.96 5.41412C13.5 5.91412 14.21 6.22412 15 6.22412C16.66 6.22412 18 4.88412 18 3.22412C18 1.56412 16.66 0.224121 15 0.224121C13.34 0.224121 12 1.56412 12 3.22412C12 3.46412 12.04 3.69412 12.09 3.92412L5.04 8.03412C4.5 7.53412 3.79 7.22412 3 7.22412C1.34 7.22412 0 8.56412 0 10.2241C0 11.8841 1.34 13.2241 3 13.2241C3.79 13.2241 4.5 12.9141 5.04 12.4141L12.16 16.5741C12.11 16.7841 12.08 17.0041 12.08 17.2241C12.08 18.8341 13.39 20.1441 15 20.1441C16.61 20.1441 17.92 18.8341 17.92 17.2241C17.92 15.6141 16.61 14.3041 15 14.3041Z" fill="#056565"/>
</svg>
