<svg width="45" height="44" viewBox="0 0 45 44" fill="none" xmlns="http://www.w3.org/2000/svg">
<g filter="url(#filter0_d_351_1870)">
<rect x="2.78613" y="1" width="39.443" height="39.443" rx="5.37859" fill="#FBFBFB"/>
<path d="M17.1284 14.2674C17.1284 13.9821 17.0151 13.7085 16.8134 13.5067C16.6116 13.305 16.338 13.1917 16.0527 13.1917C15.7674 13.1917 15.4938 13.305 15.2921 13.5067C15.0903 13.7085 14.977 13.9821 14.977 14.2674V22.0857C14.65 22.2745 14.3784 22.5461 14.1896 22.8732C14.0008 23.2002 13.9014 23.5712 13.9014 23.9488C13.9014 24.3265 14.0008 24.6975 14.1896 25.0245C14.3784 25.3516 14.65 25.6231 14.977 25.812V27.176C14.977 27.4613 15.0903 27.7349 15.2921 27.9366C15.4938 28.1384 15.7674 28.2517 16.0527 28.2517C16.338 28.2517 16.6116 28.1384 16.8134 27.9366C17.0151 27.7349 17.1284 27.4613 17.1284 27.176V25.812C17.4555 25.6231 17.727 25.3516 17.9158 25.0245C18.1047 24.6975 18.2041 24.3265 18.2041 23.9488C18.2041 23.5712 18.1047 23.2002 17.9158 22.8732C17.727 22.5461 17.4555 22.2745 17.1284 22.0857V14.2674ZM23.5827 14.2674C23.5827 13.9821 23.4694 13.7085 23.2677 13.5067C23.0659 13.305 22.7923 13.1917 22.507 13.1917C22.2217 13.1917 21.9481 13.305 21.7464 13.5067C21.5446 13.7085 21.4313 13.9821 21.4313 14.2674V15.6314C21.1043 15.8202 20.8327 16.0918 20.6439 16.4189C20.4551 16.7459 20.3557 17.1169 20.3557 17.4945C20.3557 17.8722 20.4551 18.2431 20.6439 18.5702C20.8327 18.8972 21.1043 19.1688 21.4313 19.3577V27.176C21.4313 27.4613 21.5446 27.7349 21.7464 27.9366C21.9481 28.1384 22.2217 28.2517 22.507 28.2517C22.7923 28.2517 23.0659 28.1384 23.2677 27.9366C23.4694 27.7349 23.5827 27.4613 23.5827 27.176V19.3577C23.9098 19.1688 24.1813 18.8972 24.3701 18.5702C24.559 18.2431 24.6584 17.8722 24.6584 17.4945C24.6584 17.1169 24.559 16.7459 24.3701 16.4189C24.1813 16.0918 23.9098 15.8202 23.5827 15.6314V14.2674ZM28.9613 13.1917C29.2466 13.1917 29.5202 13.305 29.722 13.5067C29.9237 13.7085 30.037 13.9821 30.037 14.2674V22.0857C30.3641 22.2745 30.6356 22.5461 30.8245 22.8732C31.0133 23.2002 31.1127 23.5712 31.1127 23.9488C31.1127 24.3265 31.0133 24.6975 30.8245 25.0245C30.6356 25.3516 30.3641 25.6231 30.037 25.812V27.176C30.037 27.4613 29.9237 27.7349 29.722 27.9366C29.5202 28.1384 29.2466 28.2517 28.9613 28.2517C28.676 28.2517 28.4024 28.1384 28.2007 27.9366C27.9989 27.7349 27.8856 27.4613 27.8856 27.176V25.812C27.5586 25.6231 27.287 25.3516 27.0982 25.0245C26.9094 24.6975 26.81 24.3265 26.81 23.9488C26.81 23.5712 26.9094 23.2002 27.0982 22.8732C27.287 22.5461 27.5586 22.2745 27.8856 22.0857V14.2674C27.8856 13.9821 27.9989 13.7085 28.2007 13.5067C28.4024 13.305 28.676 13.1917 28.9613 13.1917Z" fill="#056565"/>
</g>
<defs>
<filter id="filter0_d_351_1870" x="0.993269" y="0.103568" width="43.0291" height="43.0286" filterUnits="userSpaceOnUse" color-interpolation-filters="sRGB">
<feFlood flood-opacity="0" result="BackgroundImageFix"/>
<feColorMatrix in="SourceAlpha" type="matrix" values="0 0 0 0 0 0 0 0 0 0 0 0 0 0 0 0 0 0 127 0" result="hardAlpha"/>
<feOffset dy="0.896432"/>
<feGaussianBlur stdDeviation="0.896432"/>
<feColorMatrix type="matrix" values="0 0 0 0 0 0 0 0 0 0 0 0 0 0 0 0 0 0 0.05 0"/>
<feBlend mode="normal" in2="BackgroundImageFix" result="effect1_dropShadow_351_1870"/>
<feBlend mode="normal" in="SourceGraphic" in2="effect1_dropShadow_351_1870" result="shape"/>
</filter>
</defs>
</svg>
