<svg width="12" height="13" viewBox="0 0 12 13" fill="none" xmlns="http://www.w3.org/2000/svg">
<path d="M5.23879 1.34166C5.47879 0.604862 6.52119 0.604862 6.76039 1.34166L7.61639 3.97526C7.66869 4.13565 7.77035 4.27541 7.90685 4.37455C8.04334 4.47369 8.20769 4.52714 8.37639 4.52726H11.146C11.9212 4.52726 12.2428 5.51926 11.6164 5.97526L9.37639 7.60246C9.23961 7.70169 9.13777 7.84167 9.08546 8.00234C9.03314 8.16302 9.03305 8.33613 9.08519 8.49686L9.94119 11.1305C10.1812 11.8673 9.33719 12.4809 8.70919 12.0249L6.46919 10.3977C6.33255 10.2985 6.16804 10.245 5.99919 10.245C5.83034 10.245 5.66582 10.2985 5.52919 10.3977L3.28919 12.0249C2.66199 12.4809 1.81879 11.8673 2.05799 11.1305L2.91399 8.49686C2.96613 8.33613 2.96603 8.16302 2.91372 8.00234C2.86141 7.84167 2.75956 7.70169 2.62279 7.60246L0.383589 5.97606C-0.242811 5.52006 0.0795887 4.52806 0.853989 4.52806H3.62279C3.79163 4.52811 3.95615 4.47473 4.09281 4.37558C4.22947 4.27643 4.33125 4.13658 4.38359 3.97606L5.23959 1.34246L5.23879 1.34166Z" fill="#C2C2C2"/>
</svg>
