<svg width="24" height="24" viewBox="0 0 24 24" fill="none" xmlns="http://www.w3.org/2000/svg">
<path d="M12 1.07812C11.8266 1.07812 11.6531 1.08281 11.4797 1.09078L11.5172 1.93359C11.6766 1.92609 11.8359 1.92188 12 1.92188C17.5688 1.92188 22.0781 6.43125 22.0781 12C22.0781 17.5688 17.5688 22.0781 12 22.0781C7.8 22.0781 4.20234 19.5141 2.68828 15.8625L3.98344 15.4734L1.71328 13.8656L0.820312 16.4203L1.87734 16.1063C3.50063 20.1 7.425 22.9219 12 22.9219C18.0281 22.9219 22.9219 18.0281 22.9219 12C22.9219 5.97187 18.0281 1.07812 12 1.07812ZM10.5562 1.17375C9.93281 1.25578 9.33281 1.38938 8.74688 1.57125L9.00937 2.37234C9.54375 2.20641 10.1016 2.08406 10.6688 2.00906L10.5562 1.17375ZM7.88437 1.8825C7.30312 2.11922 6.75 2.40375 6.225 2.73187L6.67031 3.44484C7.15313 3.14297 7.66406 2.88094 8.19844 2.66344L7.88437 1.8825ZM5.45625 3.25781C4.96416 3.62667 4.50395 4.03624 4.08047 4.48219L4.69219 5.05781C5.08125 4.64672 5.50781 4.26984 5.95781 3.93L5.73281 3.62203L5.45625 3.25781ZM8.71406 3.66L8.50781 4.4775L18.6797 7.07812L18.8859 6.2625L8.71406 3.66ZM3.47203 5.17969C3.08812 5.65781 2.74359 6.17344 2.44359 6.7125L3.17719 7.125C3.45422 6.62344 3.77203 6.15 4.12687 5.70469L3.47203 5.17969ZM9.45469 5.59219C9.27187 6.81094 9.58594 8.17969 10.1203 9.30469C10.4203 9.93281 10.7859 10.4859 11.1469 10.8891C11.3438 11.1094 11.5406 11.2781 11.7188 11.4L11.4656 12.3937C11.25 12.4125 10.9969 12.4688 10.7156 12.5672C10.2047 12.7453 9.61875 13.0547 9.05625 13.4625C8.04375 14.1938 7.11563 15.2391 6.69375 16.3969L14.5453 18.4078C14.7281 17.1891 14.4141 15.8203 13.8797 14.6953C13.5797 14.0672 13.2141 13.5141 12.8531 13.1109C12.6563 12.8906 12.4594 12.7219 12.2812 12.6L12.5344 11.6063C12.7453 11.5828 13.0031 11.5312 13.2844 11.4328C13.7953 11.2547 14.3812 10.9453 14.9437 10.5375C15.9562 9.80625 16.8844 8.76094 17.3063 7.60312L9.45469 5.59219ZM2.02688 7.54219C1.77703 8.10469 1.57219 8.68594 1.4175 9.29062L2.23688 9.4875C2.37891 8.93437 2.56687 8.4 2.79703 7.88437L2.02688 7.54219ZM1.22813 10.1953C1.13016 10.7812 1.07812 11.3859 1.07812 12V12.0422L1.92188 12.0328V12C1.92188 11.4328 1.96969 10.875 2.06016 10.3312L1.22813 10.1953ZM5.32031 16.9219L5.11406 17.7375L15.2859 20.3391L15.4922 19.5234L5.32031 16.9219Z" fill="black"/>
</svg>
