<svg width="74" height="77" viewBox="0 0 74 77" fill="none" xmlns="http://www.w3.org/2000/svg">
<rect width="74" height="77" rx="6" fill="#EDF2FF"/>
<path fill-rule="evenodd" clip-rule="evenodd" d="M19.5 20.5C18.837 20.5 18.2011 20.7634 17.7322 21.2322C17.2634 21.7011 17 22.337 17 23C17 23.663 17.2634 24.2989 17.7322 24.7678C18.2011 25.2366 18.837 25.5 19.5 25.5V45.5C19.5 46.8261 20.0268 48.0979 20.9645 49.0355C21.9021 49.9732 23.1739 50.5 24.5 50.5H30.965L27.7325 53.7325C27.4937 53.9631 27.3033 54.239 27.1722 54.544C27.0412 54.849 26.9723 55.177 26.9694 55.509C26.9665 55.8409 27.0297 56.1701 27.1554 56.4774C27.2811 56.7846 27.4668 57.0638 27.7015 57.2985C27.9362 57.5332 28.2154 57.7189 28.5226 57.8446C28.8299 57.9703 29.1591 58.0335 29.491 58.0306C29.823 58.0277 30.151 57.9588 30.456 57.8278C30.761 57.6967 31.0369 57.5063 31.2675 57.2675L37 51.535L42.7325 57.2675C43.204 57.7229 43.8355 57.9749 44.491 57.9692C45.1465 57.9635 45.7735 57.7006 46.237 57.237C46.7006 56.7735 46.9635 56.1465 46.9692 55.491C46.9749 54.8355 46.7229 54.204 46.2675 53.7325L43.035 50.5H49.5C50.8261 50.5 52.0979 49.9732 53.0355 49.0355C53.9732 48.0979 54.5 46.8261 54.5 45.5V25.5C55.163 25.5 55.7989 25.2366 56.2678 24.7678C56.7366 24.2989 57 23.663 57 23C57 22.337 56.7366 21.7011 56.2678 21.2322C55.7989 20.7634 55.163 20.5 54.5 20.5H19.5ZM48.7675 32.2675C49.2229 31.796 49.4749 31.1645 49.4692 30.509C49.4635 29.8535 49.2006 29.2265 48.737 28.763C48.2735 28.2994 47.6465 28.0365 46.991 28.0308C46.3355 28.0251 45.704 28.2771 45.2325 28.7325L37 36.965L33.7675 33.7325C33.2987 33.2638 32.6629 33.0005 32 33.0005C31.3371 33.0005 30.7013 33.2638 30.2325 33.7325L25.2325 38.7325C24.9937 38.9631 24.8033 39.239 24.6722 39.544C24.5412 39.849 24.4723 40.177 24.4694 40.509C24.4665 40.8409 24.5297 41.1701 24.6554 41.4774C24.7811 41.7846 24.9668 42.0638 25.2015 42.2985C25.4362 42.5332 25.7154 42.7189 26.0226 42.8446C26.3299 42.9703 26.6591 43.0335 26.991 43.0306C27.323 43.0277 27.651 42.9588 27.956 42.8278C28.261 42.6967 28.5369 42.5063 28.7675 42.2675L32 39.035L35.2325 42.2675C35.7013 42.7362 36.3371 42.9995 37 42.9995C37.6629 42.9995 38.2987 42.7362 38.7675 42.2675L48.7675 32.2675Z" fill="#162A5A"/>
</svg>
