<svg width="74" height="77" viewBox="0 0 74 77" fill="none" xmlns="http://www.w3.org/2000/svg">
<rect width="74" height="77" rx="6" fill="#EDF2FF"/>
<path fill-rule="evenodd" clip-rule="evenodd" d="M17.415 25.4976C24.6528 25.4076 31.612 22.6938 37 17.8601C42.3876 22.6947 49.3468 25.4094 56.585 25.5001C56.86 27.1251 57 28.8001 57 30.5026C57 43.5651 48.65 54.6776 37 58.7951C25.35 54.6751 17 43.5626 17 30.5001C17 28.7951 17.1425 27.1251 17.415 25.4976ZM46.2675 34.7676C46.7229 34.2961 46.9749 33.6646 46.9692 33.0091C46.9635 32.3536 46.7006 31.7266 46.237 31.2631C45.7735 30.7995 45.1465 30.5366 44.491 30.5309C43.8355 30.5252 43.204 30.7772 42.7325 31.2326L34.5 39.4651L31.2675 36.2326C30.796 35.7772 30.1645 35.5252 29.509 35.5309C28.8535 35.5366 28.2265 35.7995 27.763 36.2631C27.2994 36.7266 27.0365 37.3536 27.0308 38.0091C27.0251 38.6646 27.2771 39.2961 27.7325 39.7676L32.7325 44.7676C33.2013 45.2363 33.8371 45.4996 34.5 45.4996C35.1629 45.4996 35.7987 45.2363 36.2675 44.7676L46.2675 34.7676Z" fill="#162A5A"/>
</svg>
