<svg width="31" height="30" viewBox="0 0 31 30" fill="none" xmlns="http://www.w3.org/2000/svg">
<path d="M28.5748 7.5C27.6123 7.9375 26.5748 8.225 25.4998 8.3625C26.5998 7.7 27.4498 6.65 27.8498 5.3875C26.8123 6.0125 25.6623 6.45 24.4498 6.7C23.4623 5.625 22.0748 5 20.4998 5C17.5623 5 15.1623 7.4 15.1623 10.3625C15.1623 10.7875 15.2123 11.2 15.2998 11.5875C10.8498 11.3625 6.88731 9.225 4.2498 5.9875C3.7873 6.775 3.5248 7.7 3.5248 8.675C3.5248 10.5375 4.4623 12.1875 5.9123 13.125C5.0248 13.125 4.19981 12.875 3.4748 12.5V12.5375C3.4748 15.1375 5.32481 17.3125 7.77481 17.8C6.98821 18.0153 6.16242 18.0452 5.36231 17.8875C5.70181 18.9531 6.36673 19.8855 7.26358 20.5537C8.16043 21.2218 9.24411 21.5921 10.3623 21.6125C8.46684 23.113 6.1173 23.9241 3.6998 23.9125C3.2748 23.9125 2.8498 23.8875 2.4248 23.8375C4.7998 25.3625 7.6248 26.25 10.6498 26.25C20.4998 26.25 25.9123 18.075 25.9123 10.9875C25.9123 10.75 25.9123 10.525 25.8998 10.2875C26.9498 9.5375 27.8498 8.5875 28.5748 7.5Z" fill="#00D8BB"/>
</svg>
